<svg xmlns="http://www.w3.org/2000/svg" width="40" height="40" viewBox="0 0 40 40">
    <g fill="none" fill-rule="evenodd">
        <g>
            <g transform="translate(-12 -4)">
                <circle cx="32.053" cy="24.2" r="19.5" fill="#9CB5BE" fill-opacity=".19"/>
                <g transform="translate(18.005 10.04)">
                    <circle cx="14.563" cy="15.577" r="13.746" fill="#FFF"/>
                    <path fill="#9CB5BE" d="M22.284 23.687a.743.743 0 0 1-.525-.216.76.76 0 0 1-.012-1.07 9.808 9.808 0 0 0 2.787-6.876 9.868 9.868 0 0 0-.64-3.508.758.758 0 0 1 .433-.976.75.75 0 0 1 .969.437c.489 1.291.738 2.653.738 4.047a11.32 11.32 0 0 1-3.215 7.935.746.746 0 0 1-.535.227M7.284 23.687a.745.745 0 0 1-.536-.226 11.319 11.319 0 0 1-3.215-7.936c0-6.252 5.047-11.338 11.25-11.338 1.386 0 2.738.25 4.021.746.387.15.58.586.434.976a.748.748 0 0 1-.97.435 9.658 9.658 0 0 0-3.485-.645c-5.377 0-9.75 4.408-9.75 9.826 0 2.587.99 5.03 2.786 6.878a.76.76 0 0 1-.01 1.068.742.742 0 0 1-.525.216M14.783 16.187a.751.751 0 0 1-.53-1.28l7.5-7.5a.75.75 0 1 1 1.06 1.06l-7.5 7.5a.748.748 0 0 1-.53.22"/>
                    <path fill="#9CB5BE" d="M14.783 10.187a.75.75 0 0 1-.75-.75v-2.25a.75.75 0 1 1 1.5 0v2.25a.75.75 0 0 1-.75.75M10.54 11.944a.748.748 0 0 1-.53-.22l-1.591-1.59a.75.75 0 0 1 1.06-1.06l1.593 1.59a.752.752 0 0 1-.531 1.28M8.783 16.187h-2.25a.75.75 0 1 1 0-1.5h2.25a.75.75 0 0 1 0 1.5M23.034 16.187h-2.25a.75.75 0 1 1 0-1.5h2.25a.75.75 0 0 1 0 1.5"/>
                    <path stroke="#9CB5BE" stroke-linecap="round" stroke-width="1.5" d="M5.458 25.889a14.175 14.175 0 0 1-4.291-10.18c0-7.852 6.366-14.219 14.219-14.219 2.25 0 4.38.523 6.27 1.454M22.03 3.256L21.322.913M22.03 3.256l-1.994.508"/>
                </g>
            </g>
        </g>
    </g>
</svg>
