<svg width="20" height="20" viewBox="0 0 20 20" fill="none" xmlns="http://www.w3.org/2000/svg">
<path fill-rule="evenodd" clip-rule="evenodd" d="M0.75 0.5C0.335786 0.5 0 0.835786 0 1.25C0 1.66421 0.335786 2 0.75 2H19.25C19.6642 2 20 1.66421 20 1.25C20 0.835786 19.6642 0.5 19.25 0.5H0.75ZM7.45781 12.7314C7.34714 12.4971 7.28529 12.248 7.27227 11.9844H8.54668C8.56947 12.1113 8.61667 12.2301 8.68828 12.3408C8.7599 12.4482 8.8543 12.5426 8.97148 12.624C9.08867 12.7054 9.22702 12.7689 9.38652 12.8145C9.54603 12.86 9.72344 12.8828 9.91875 12.8828C10.1922 12.8828 10.4217 12.8438 10.6072 12.7656C10.796 12.6875 10.9376 12.5801 11.032 12.4434C11.1264 12.3034 11.1736 12.1423 11.1736 11.96C11.1736 11.7288 11.089 11.5482 10.9197 11.418C10.7505 11.2845 10.4933 11.1771 10.1482 11.0957L9.11797 10.8564C8.77292 10.7783 8.47344 10.6595 8.21953 10.5C7.96562 10.3405 7.77031 10.137 7.63359 9.88965C7.49687 9.64225 7.42852 9.35091 7.42852 9.01562C7.42852 8.60872 7.53431 8.25391 7.7459 7.95117C7.95749 7.64844 8.25046 7.41406 8.6248 7.24805C8.99915 7.08203 9.43047 6.99902 9.91875 6.99902C10.4266 6.99902 10.8595 7.08366 11.2176 7.25293C11.5789 7.4222 11.8572 7.65006 12.0525 7.93652C12.2511 8.21973 12.3618 8.53385 12.3846 8.87891H11.1346C11.1053 8.7194 11.0385 8.57617 10.9344 8.44922C10.8335 8.32227 10.6967 8.22135 10.5242 8.14648C10.3517 8.07161 10.1466 8.03418 9.90898 8.03418C9.54766 8.03418 9.26283 8.11881 9.05449 8.28809C8.84941 8.4541 8.74687 8.66732 8.74687 8.92773C8.74687 9.12956 8.82663 9.29557 8.98613 9.42578C9.14564 9.55599 9.37025 9.65365 9.65996 9.71875L10.6951 9.95801C11.0564 10.0394 11.3706 10.1566 11.6375 10.3096C11.9044 10.4593 12.1128 10.6579 12.2625 10.9053C12.4122 11.1527 12.4871 11.4635 12.4871 11.8379C12.4871 12.2513 12.3829 12.6159 12.1746 12.9316C11.9695 13.2441 11.6701 13.4883 11.2762 13.6641C10.8855 13.8398 10.4087 13.9277 9.84551 13.9277C9.42233 13.9277 9.05286 13.8773 8.73711 13.7764C8.42135 13.6755 8.15605 13.5355 7.94121 13.3564C7.72962 13.1742 7.56849 12.9658 7.45781 12.7314ZM2.85547 12.0869L2.33301 13.8008H1L3.23633 7.13574H4.7793L7.00586 13.8008H5.60449L5.08203 12.0869H2.85547ZM4.81836 11.1055L4.00293 8.41016H3.94434L3.12891 11.1055H4.81836ZM14.7799 13.8008V9.34277H14.8336L17.7682 13.8008H18.8619V7.13574H17.6119V11.5693H17.5582L14.6383 7.13574H13.5348V13.8008H14.7799ZM0 18.25C0 17.8358 0.335786 17.5 0.75 17.5H19.25C19.6642 17.5 20 17.8358 20 18.25C20 18.6642 19.6642 19 19.25 19H0.75C0.335786 19 0 18.6642 0 18.25Z" fill="#889096"/>
</svg>
