<svg xmlns="http://www.w3.org/2000/svg" width="20" height="20">
    <path fill="#A6BEC6" fill-rule="evenodd" d="M19.284 13.957a.986.986 0 0 1-1.115-.402l-2.155-3.252V13c0 .553-.445 1-.994 1a.997.997 0 0 1-.994-1V7a.992.992 0 1 1 1.821-.555l2.155 3.252V7c0-.552.444-1 .994-1 .549 0 .993.448.993 1v6a1 1 0 0 1-.705.957zM17.008 2H3.094A.997.997 0 0 1 2.1 1c0-.552.444-1 .994-1h13.914c.549 0 .994.448.994 1s-.445 1-.994 1zM3.591 6c.4 0 .762.243.917.615L6.738 12h4.307v-.382L7.618 9.895A1.003 1.003 0 0 1 7.069 9V7c0-.552.445-1 .994-1h3.975c.55 0 .994.448.994 1s-.444 1-.994 1H9.057v.382l3.426 1.723c.337.17.549.516.549.895v2c0 .553-.444 1-.994 1H6.075a.987.987 0 0 1-.344-.07c-.034-.013-.064-.029-.097-.045a.942.942 0 0 1-.205-.14c-.027-.023-.053-.042-.077-.068a.976.976 0 0 1-.179-.267c-.004-.009-.011-.015-.014-.024l-.001-.001L3.591 9.6l-1.568 3.785a.99.99 0 0 1-1.3.538 1.002 1.002 0 0 1-.534-1.308l2.484-6A.996.996 0 0 1 3.591 6zm-.497 12h13.914c.549 0 .994.447.994 1 0 .553-.445 1-.994 1H3.094a.996.996 0 0 1-.994-1c0-.553.444-1 .994-1z"/>
</svg>
