<svg id="Layer_1" data-name="Layer 1" xmlns="http://www.w3.org/2000/svg" viewBox="0 0 30 30"><defs><style>.cls-1{fill:#526373;}</style></defs><title>ic_ic_banned_ips</title><path class="cls-1" d="M10,30a1,1,0,0,1-.65-.24C9,29.43,0,21.63,0,14.14A10.09,10.09,0,0,1,10,4,10.09,10.09,0,0,1,20,14.14c0,7.49-9,15.29-9.35,15.62A1,1,0,0,1,10,30ZM10,6a8.08,8.08,0,0,0-8,8.14c0,5.49,6,11.6,8,13.51,2-1.91,8-8,8-13.51A8.08,8.08,0,0,0,10,6Z"/><path class="cls-1" d="M7,18a1,1,0,0,1-.71-.29,1,1,0,0,1,0-1.42l6-6a1,1,0,0,1,1.42,1.42l-6,6A1,1,0,0,1,7,18Z"/><path class="cls-1" d="M13,18a1,1,0,0,1-.71-.29l-6-6a1,1,0,0,1,1.42-1.42l6,6a1,1,0,0,1,0,1.42A1,1,0,0,1,13,18Z"/><path class="cls-1" d="M22,20a1,1,0,0,1-.77-.36,1,1,0,0,1,.13-1.41C21.43,18.18,28,12.65,28,7.86A5.94,5.94,0,0,0,22,2a6,6,0,0,0-4.29,1.77,1,1,0,0,1-1.42-1.42A8,8,0,0,1,30,7.86c0,5.73-7.06,11.66-7.36,11.91A1,1,0,0,1,22,20Z"/></svg>
