<svg xmlns="http://www.w3.org/2000/svg" width="18" height="18">
    <path fill="#91B4C3" fill-rule="evenodd" d="M17.683 14.4l-2.782-3.734V6c0-3.309-2.675-6-5.962-6-3.288 0-5.962 2.691-5.962 6v4.666L.194 14.4A1.005 1.005 0 0 0 .1 15.447.994.994 0 0 0 .989 16h5.962c0 1.105.89 2 1.988 2a1.994 1.994 0 0 0 1.987-2h5.962c.377 0 .72-.214.889-.553a1.005 1.005 0 0 0-.094-1.047zM2.977 14l1.788-2.4c.129-.173.199-.384.199-.6V6c0-2.206 1.783-4 3.975-4s3.975 1.794 3.975 4v5c0 .216.069.427.198.6l1.789 2.4H2.977z"/>
</svg>
