<svg id="Layer_1" data-name="Layer 1" xmlns="http://www.w3.org/2000/svg" xmlns:xlink="http://www.w3.org/1999/xlink" viewBox="0 0 1585.83 379.15"><defs><clipPath id="clip-path"><rect x="3.94" width="1581.89" height="378.21" fill="none"/></clipPath></defs><g clip-path="url(#clip-path)"><path d="M368.06,23.59c4,8.15,2,15-.8,22.3-4.42,12-3.22,23.59,4.83,33.45,8,10.29,19.3,11.58,31,9,16.08-3.86,25.33-20.16,22.92-38.17-1.21-8.58-6-17.16-1.61-26.59-4,2.14-4,2.14-8.85,10.72-4.42-5.58-8.44-11.58-13.27-17.58-4-4.72-8-9-5.63-16.73a17.89,17.89,0,0,0-8.84,10.29c-1.21,4.29-2,8.58-2.82,12.87a15.47,15.47,0,0,1-6.83,10.72C375.7,29.16,373.29,25.73,368.06,23.59Z" fill="#3d7ffc"/><path d="M25.8,273.51V75.7L3.94,71.86V53.54l57-7.68,9.68-1.46v75.19a42.24,42.24,0,0,1,8.3-7.09,60.68,60.68,0,0,1,10.24-6.21,75.53,75.53,0,0,1,12.18-4.43,54.6,54.6,0,0,1,14.11-1.77,63.65,63.65,0,0,1,24.91,4.73,54.54,54.54,0,0,1,20.47,15.06c5.82,7.09,10.52,16,14.12,27.18,3.32,11.23,5.25,24.52,5.25,40.77a125.17,125.17,0,0,1-5.81,38.7,89.42,89.42,0,0,1-17.15,31,80,80,0,0,1-27.12,20.68,84.23,84.23,0,0,1-36.25,7.68,236.55,236.55,0,0,1-26-1.47,157.42,157.42,0,0,1-20.47-3.55,115,115,0,0,1-14.12-4.13C29.68,275.28,26.91,274.39,25.8,273.51ZM96.92,128.75a33,33,0,0,0-15.77,3.54,35.37,35.37,0,0,0-10.52,8v117a13,13,0,0,0,7.75,5.61,38.68,38.68,0,0,0,13.56,2.07c6.64,0,12.45-1.77,17.16-5.61,5-3.84,8.85-8.87,12.17-15.37s5.54-14.18,7.2-22.74A147.63,147.63,0,0,0,131,193.45,168.36,168.36,0,0,0,129,166c-1.38-8-3.32-14.77-6.36-20.38a31.54,31.54,0,0,0-10.8-12.71A26.5,26.5,0,0,0,96.92,128.75Z" fill="#3d7ffc"/><path d="M204.38,280.65v-21l21-2.95v-120l-19.93-6.5V106.64L255.29,99h.83l7.75,6.79v13L263.59,143h.56a69.46,69.46,0,0,1,6.36-12.41,90.75,90.75,0,0,1,11.35-14.77,63.91,63.91,0,0,1,15.5-12.11,38.56,38.56,0,0,1,19.09-5,43.58,43.58,0,0,1,6.92.3c1.66.29,3,.59,4.15.88v54.07c-1.11-.89-3.88-1.77-8.3-2.66a83.2,83.2,0,0,0-16.05-1.48c-3.32,0-6.92.3-10.24.59a51.54,51.54,0,0,0-9.69,1.78,52.58,52.58,0,0,0-8,2.36,26.15,26.15,0,0,0-5.54,2.66v99.26l36.25,3.84v20.39Z" fill="#3d7ffc"/><path d="M358.55,282.37v-21l21.31-2.95V138.5l-19.64-6.8V108.36l53.68-7.68,11.35-1.2V258.14l21,3.25v21Z" fill="#3d7ffc"/><path d="M543.84,224.75a131.35,131.35,0,0,1-22.92-1.85,24.85,24.85,0,0,0-4.3,6.46A19.83,19.83,0,0,0,514.9,238c0,3.69.57,6.77,2,9.23a14.06,14.06,0,0,0,6.3,5.23,32.48,32.48,0,0,0,10.89,2.46c4.58.31,9.74.61,15.76.61h30.08c21.78,0,37.82,4,48.7,11.69,10.61,8,16.05,20.91,16.05,38.75a56.57,56.57,0,0,1-8,29.83c-5.16,8.92-12.32,16.3-21.49,22.75A106.48,106.48,0,0,1,584,373a133.1,133.1,0,0,1-37,5.23h-.29c-14.32,0-26.35-1.23-36.38-4s-18.34-6.46-24.93-11.07a43.62,43.62,0,0,1-14.32-16.92,48.83,48.83,0,0,1-4.59-21.52,39.78,39.78,0,0,1,2.58-14.15,49,49,0,0,1,6.88-12A44,44,0,0,1,486,289a49.58,49.58,0,0,1,11.75-6.45c-5.73-3.39-10.31-7.39-13.46-12.31s-4.59-10.76-4.59-17.52c0-8.31,2-15.07,6-20.92a63.32,63.32,0,0,1,15.47-15.07c-10.31-4.92-17.76-12-22.63-21.22s-7.45-20-7.45-32.29a57.5,57.5,0,0,1,6-26.44,61.42,61.42,0,0,1,16.62-20.3,80.15,80.15,0,0,1,24.64-12.92A96.78,96.78,0,0,1,548.42,99h.29c25.21,0,43.84,5.23,56.15,15.68a35.48,35.48,0,0,1,5.74-5.53,44.56,44.56,0,0,1,8.3-5.23,52,52,0,0,1,10.32-3.69,49.86,49.86,0,0,1,12-1.54h7.17V135h-29.8a65.24,65.24,0,0,1,2.58,10.76,83,83,0,0,1,.86,12.31,62.72,62.72,0,0,1-5.73,26.75A65.71,65.71,0,0,1,600.28,206a78.58,78.58,0,0,1-24.64,13.84C565.9,223.21,555.59,224.75,543.84,224.75Zm-7.74,65.5a108,108,0,0,1-18.05-1.53,44.28,44.28,0,0,0-5.73,9.22c-1.72,3.69-2.58,9.23-2.58,15.69q0,11.07,2.58,18.45a29.84,29.84,0,0,0,8,12.3,30.57,30.57,0,0,0,13.17,6.76,63.67,63.67,0,0,0,18.05,2.16h.29a72.32,72.32,0,0,0,18-2.16,52.79,52.79,0,0,0,15.76-6.76,34.32,34.32,0,0,0,10.89-11.69,30.55,30.55,0,0,0,4.3-16.3,51.22,51.22,0,0,0-1.44-12.3,15.42,15.42,0,0,0-5.16-8.3,22.32,22.32,0,0,0-10-4.61,78,78,0,0,0-16.33-1.54H536.1Zm11.46-87a23.94,23.94,0,0,0,12.9-3.38,23.38,23.38,0,0,0,8-8.92c2-3.69,3.15-8.3,4-13.53a101.33,101.33,0,0,0,1.15-16.3c0-14.15-2-24.6-6.31-31.06s-11.17-9.53-21.2-9.53h-.29c-9.45,0-16.33,3.38-20.62,9.84s-6.59,16-6.59,29.21a107.65,107.65,0,0,0,1.43,17.53,48.43,48.43,0,0,0,4.58,13.84,25.62,25.62,0,0,0,8.88,8.92A27.5,27.5,0,0,0,547.56,203.22Z" fill="#3d7ffc"/><path d="M664.62,282.37v-21l18-3.25V74l-21.86-3.84V51.84l56.73-7.68,3.3-.59h6.16l.5,57.41-.5,22.35c2.49-2.66,4.1-2.85,8.25-5.81a86.67,86.67,0,0,1,13.28-8,120.28,120.28,0,0,1,16.33-6.2A75.93,75.93,0,0,1,783.34,101c9.41,0,17.44,1.47,23.52,4.13a34.17,34.17,0,0,1,14.94,13c3.88,5.91,6.09,13.3,7.75,22.16a206.62,206.62,0,0,1,2.21,31.61v86.27l20.49,3.25v21H770.61V262l16.33-3.55V171.59A123.69,123.69,0,0,0,785.83,153,34,34,0,0,0,782,140a16.07,16.07,0,0,0-7.75-7.38,32.38,32.38,0,0,0-13-2.37,35.45,35.45,0,0,0-9.41,1.19q-5,1.32-9.13,2.66a55.44,55.44,0,0,0-8.3,3.84,66.49,66.49,0,0,0-6.64,4.43v116.1l19.92,3.25v21h-83Z" fill="#3d7ffc"/><path d="M884.74,246.2V131.58H864.27V113.85c.83-.29,1.93-.59,3.59-1.18s3.33-1.48,5.26-2.07c1.66-.59,3.32-1.48,5-2.07a7.76,7.76,0,0,0,2.77-1.47c3.32-2.66,6.64-7.68,10.24-15.07,1.1-2.07,1.94-4.43,3.32-7.39S896.64,79,897.75,76s2.21-5.91,3-8.87c1.1-3,1.65-5.61,2.49-8h26l.55,46.08h42.89v26.59H929.85v86.27c0,8.27,0,14.77.28,19.79s.83,8.57,1.66,10.93a7.27,7.27,0,0,0,4.42,4.73,27.75,27.75,0,0,0,8,1.18h.28a73.2,73.2,0,0,0,7.47-.59,65.74,65.74,0,0,0,7.47-1.48c2.49-.59,4.71-1.18,6.92-1.77a38.88,38.88,0,0,0,5.26-1.77h.27l6.92,18.32A73.4,73.4,0,0,1,968,274.57a131.73,131.73,0,0,1-14.11,6.5,96.67,96.67,0,0,1-16.33,4.72,84.73,84.73,0,0,1-17.16,1.77h-.27a44.48,44.48,0,0,1-16.33-2.65,26.32,26.32,0,0,1-11.07-8,34.62,34.62,0,0,1-6.09-13A69.26,69.26,0,0,1,884.74,246.2Z" fill="#3d7ffc"/><path d="M1105.34,286.84a61,61,0,0,1-24.91-5.32,56.46,56.46,0,0,1-20.75-16.25c-6.09-7.38-10.79-16.54-14.39-27.47s-5.26-23.93-5.26-39a122.24,122.24,0,0,1,5.81-38.4,96.78,96.78,0,0,1,16.89-31,78.84,78.84,0,0,1,26.84-20.68c10.51-5,22.41-7.39,35.69-7.39a109,109,0,0,1,13.84.89c4.43.59,8.86,1.18,13,2.06V71.49l-28.78-3V53.76L1177,47h.83L1185,46V264.68h17.43v16.55c-4.15,1.18-8.85,2.36-14.39,3.84a67.58,67.58,0,0,1-17.43,2.07,46.35,46.35,0,0,1-6.92-.6,9.89,9.89,0,0,1-5-2.36,10.09,10.09,0,0,1-3-5,33.55,33.55,0,0,1-1.1-8.57V263.8a87.72,87.72,0,0,1-8.86,8.56,49.39,49.39,0,0,1-11.07,7.39,83,83,0,0,1-13.55,5.32A84.29,84.29,0,0,1,1105.34,286.84Zm13.56-23.93a45.46,45.46,0,0,0,11.07-1.48,70.24,70.24,0,0,0,9.4-3.84,48.76,48.76,0,0,0,7.48-5,33.69,33.69,0,0,0,5.53-5.32V128.49a10.93,10.93,0,0,0-3.6-3.55,28.93,28.93,0,0,0-6.64-3.25,37,37,0,0,0-8.57-2.06,52.48,52.48,0,0,0-10-.89,41.54,41.54,0,0,0-18.27,3.84,39.42,39.42,0,0,0-15.22,12.7c-4.43,5.91-7.75,13.59-10.24,23.05s-3.88,21-4.15,34.56a120.38,120.38,0,0,0,3,31.61,70.5,70.5,0,0,0,9.13,21.87,38.47,38.47,0,0,0,13.84,12.7A42,42,0,0,0,1118.9,262.91Z" fill="#c6dbff"/><path d="M1206.55,237.26a51.65,51.65,0,0,1,3.87-20.09,48.89,48.89,0,0,1,10.79-15.66A73.92,73.92,0,0,1,1237.27,190a101.26,101.26,0,0,1,19.92-7.68,136.75,136.75,0,0,1,22.41-4.43c7.75-.89,15.5-1.48,23-1.77v-8.28a115,115,0,0,0-1.38-18.61,35.63,35.63,0,0,0-5-12.41,18.12,18.12,0,0,0-9.69-6.79c-3.88-1.48-9.13-2.07-15.22-2.07a94.44,94.44,0,0,0-15.77,1.48c-5.26,1.18-10.24,2.36-15.22,3.84-4.71,1.48-9.14,3.25-13.28,4.73-4.15,1.77-7.48,3.25-10.25,4.72h-.27l-6.64-15.06a67.74,67.74,0,0,1,9.68-7.1,153.37,153.37,0,0,1,16.6-8.56,187,187,0,0,1,20.49-7.09,80.85,80.85,0,0,1,21.86-3,94.09,94.09,0,0,1,26,3.25,41.44,41.44,0,0,1,17.15,10.64c4.43,5,7.48,11.22,9.41,19.2s2.77,17.43,2.77,29V266.8h18v15.07q-2.91.88-6.64,1.77c-2.49.59-5.26,1.18-8,1.78a85,85,0,0,1-8.58,1.47,82.39,82.39,0,0,1-8.3.59,55.22,55.22,0,0,1-7.19-.29,9.62,9.62,0,0,1-5-2.07,8.58,8.58,0,0,1-2.77-5,36,36,0,0,1-.83-8.87v-5.9c-1.38,1.18-3.32,2.95-6.09,5.61a68.8,68.8,0,0,1-10.52,7.38,74.2,74.2,0,0,1-14.38,6.5,53.62,53.62,0,0,1-17.16,2.66,58.75,58.75,0,0,1-19.09-3,50.89,50.89,0,0,1-16.06-8.86A42.1,42.1,0,0,1,1210.15,260C1207.38,253.51,1206.55,246.12,1206.55,237.26Zm62.82,26.59a36,36,0,0,0,7.19-.89c2.77-.59,5.81-1.48,8.85-2.36a80.46,80.46,0,0,0,8.86-3.84,55.57,55.57,0,0,0,8-5V193.83a118,118,0,0,0-29.33,3.25c-7.75,2.07-14.11,5-18.81,8.57a29.58,29.58,0,0,0-10,12.41,37.73,37.73,0,0,0-3,14.47,43.84,43.84,0,0,0,2.21,14.48,28,28,0,0,0,5.81,9.75,21.48,21.48,0,0,0,8.86,5.32A37.89,37.89,0,0,0,1269.37,263.85Z" fill="#c6dbff"/><path d="M1360.17,247.09v-122h-21V110.31c3-1.19,6.09-2.07,8.86-3.25,3-1.18,5.25-2.07,6.36-3.25,3.32-2.37,5.81-6.21,8.3-11.82.83-1.77,1.67-4.43,3-7.39,1.12-2.95,2.22-6.2,3.33-9.45s2.21-6.2,3-9.16,1.66-5.32,1.94-6.79h18.82v43.13h49v22.75h-49v93.65c0,9.16,0,16.54.27,21.86s.83,9.16,1.94,11.52,2.77,4.14,5,4.73a37,37,0,0,0,9.13.89h.28c2.77,0,5.81-.3,8.86-.59a81.22,81.22,0,0,0,8.85-1.48c3-.59,5.54-1.18,8-1.77a19.71,19.71,0,0,0,5.8-2.07h.28l5,15.36a56.13,56.13,0,0,1-9.68,5.91,141.31,141.31,0,0,1-13.28,5.61,112.23,112.23,0,0,1-15,4.14,65.87,65.87,0,0,1-14.66,1.77h-.28a49.66,49.66,0,0,1-13.84-1.77,24.08,24.08,0,0,1-10.51-6.21,32.1,32.1,0,0,1-6.64-11.52A70.51,70.51,0,0,1,1360.17,247.09Z" fill="#c6dbff"/><path d="M1447.07,234a51.65,51.65,0,0,1,3.87-20.09,48.89,48.89,0,0,1,10.79-15.66,74.34,74.34,0,0,1,16-11.52,101.6,101.6,0,0,1,19.93-7.68,136.54,136.54,0,0,1,22.41-4.43c7.75-.89,15.5-1.48,23-1.77v-8.28a113.77,113.77,0,0,0-1.39-18.61,35.24,35.24,0,0,0-5-12.41,18.09,18.09,0,0,0-9.68-6.79c-3.87-1.48-9.13-2.07-15.22-2.07a94.54,94.54,0,0,0-15.77,1.48c-5.26,1.18-10.24,2.36-15.22,3.84-4.71,1.48-9.13,3.25-13.28,4.72-4.16,1.78-7.47,3.26-10.24,4.73H1457l-6.64-15.06a68,68,0,0,1,9.69-7.1,151.53,151.53,0,0,1,16.6-8.56,188.74,188.74,0,0,1,20.47-7.09,81,81,0,0,1,21.87-3,94.09,94.09,0,0,1,26,3.25,41.54,41.54,0,0,1,17.16,10.64c4.42,5,7.47,11.22,9.4,19.2s2.77,17.43,2.77,28.95V263.51h18v15.07c-1.94.59-4.15,1.18-6.65,1.77s-5.25,1.18-8,1.78a85,85,0,0,1-8.58,1.47,82.6,82.6,0,0,1-8.3.59,55.14,55.14,0,0,1-7.19-.29,9.69,9.69,0,0,1-5-2.07,8.63,8.63,0,0,1-2.76-5,36.44,36.44,0,0,1-.83-8.87V262c-1.39,1.18-3.33,2.95-6.09,5.61a69.17,69.17,0,0,1-10.51,7.38,74.86,74.86,0,0,1-14.39,6.5,53.66,53.66,0,0,1-17.16,2.66,58.81,58.81,0,0,1-19.1-2.95,51.06,51.06,0,0,1-16-8.86,42.1,42.1,0,0,1-11.06-15.66C1447.9,250.22,1447.07,242.83,1447.07,234Zm63.09,26.59a35.88,35.88,0,0,0,7.19-.89c2.77-.59,5.82-1.47,8.86-2.36a81.3,81.3,0,0,0,8.86-3.84,55.57,55.57,0,0,0,8-5V190.54a117.9,117.9,0,0,0-29.33,3.25c-7.75,2.07-14.12,5-18.82,8.57a29.56,29.56,0,0,0-10,12.41,37.54,37.54,0,0,0-3,14.47,43.58,43.58,0,0,0,2.21,14.48,27.84,27.84,0,0,0,5.81,9.75,21.35,21.35,0,0,0,8.86,5.32A37.88,37.88,0,0,0,1510.16,260.56Z" fill="#c6dbff"/></g></svg>

