<svg xmlns="http://www.w3.org/2000/svg" width="20" height="20">
    <path fill="#00AAC3" fill-rule="evenodd" d="M19.973 4.512a4.376 4.376 0 0 0-1.323-3.139c-1.761-1.731-4.626-1.731-6.387 0l-9.918 9.751c-.026.024-.047.053-.071.08a1.01 1.01 0 0 0-.181.295c-.011.028-.028.053-.036.083L.066 18.43a.971.971 0 0 0 .254.963 1.006 1.006 0 0 0 .979.25l6.967-1.958c.03-.008.056-.025.085-.036a.972.972 0 0 0 .297-.177c.028-.023.058-.044.083-.07l6.927-6.809v-.001l.001-.001 2.991-2.939a4.38 4.38 0 0 0 1.323-3.14zm-6.541.653c-.049.034-.104.054-.148.098l-4.986 4.9a.969.969 0 0 0 0 1.386 1 1 0 0 0 .705.287 1 1 0 0 0 .705-.287l4.985-4.901c.045-.043.067-.099.101-.149a2.444 2.444 0 0 1-.546 2.706v.001l-5.245 5.156v-.565a.988.988 0 0 0-.997-.98h-.997v-.981a.988.988 0 0 0-.997-.979h-.575l5.246-5.158a2.555 2.555 0 0 1 2.749-.534zM2.864 15.941l.908-3.124h1.243v.98c0 .542.447.98.997.98h.997v1.222l-3.162.888a1.727 1.727 0 0 0-.983-.946zM17.24 6.265l-.343.337a4.386 4.386 0 0 0-1.239-2.289 4.517 4.517 0 0 0-2.328-1.216l.343-.337a2.557 2.557 0 0 1 3.567-.001c.476.468.739 1.091.739 1.753 0 .662-.262 1.284-.739 1.753z"/>
</svg>
