<svg width="20" height="20" viewBox="0 0 20 20" fill="none" xmlns="http://www.w3.org/2000/svg">
<path fill-rule="evenodd" clip-rule="evenodd" d="M3.12502 1.90002C2.80013 1.90002 2.48855 2.02909 2.25882 2.25882C2.02909 2.48855 1.90002 2.80013 1.90002 3.12502V16.275H1.25002C0.918654 16.275 0.650024 16.5437 0.650024 16.875C0.650024 17.2064 0.918654 17.475 1.25002 17.475H2.50002H11.25H17.5H18.75C19.0814 17.475 19.35 17.2064 19.35 16.875C19.35 16.5437 19.0814 16.275 18.75 16.275H18.1V8.12502C18.1 7.80014 17.971 7.48855 17.7412 7.25882C17.5115 7.02909 17.1999 6.90002 16.875 6.90002H11.85V3.12502C11.85 2.80014 11.721 2.48855 11.4912 2.25882C11.2615 2.02909 10.9499 1.90002 10.625 1.90002H3.12502ZM16.9 8.12502V16.275H11.85V8.10002H16.875C16.8817 8.10002 16.888 8.10266 16.8927 8.10735C16.8974 8.11203 16.9 8.11839 16.9 8.12502ZM10.65 3.12502V7.50002V16.275H3.10002V3.12502C3.10002 3.11839 3.10266 3.11204 3.10735 3.10735C3.11204 3.10266 3.11839 3.10002 3.12502 3.10002H10.625C10.6317 3.10002 10.638 3.10266 10.6427 3.10735C10.6474 3.11203 10.65 3.11839 10.65 3.12502ZM5.00002 5.02502C4.66865 5.02502 4.40002 5.29365 4.40002 5.62502C4.40002 5.9564 4.66865 6.22502 5.00002 6.22502H7.50002C7.8314 6.22502 8.10002 5.9564 8.10002 5.62502C8.10002 5.29365 7.8314 5.02502 7.50002 5.02502H5.00002ZM5.65002 10.625C5.65002 10.2937 5.91865 10.025 6.25002 10.025H8.75002C9.0814 10.025 9.35002 10.2937 9.35002 10.625C9.35002 10.9564 9.0814 11.225 8.75002 11.225H6.25002C5.91865 11.225 5.65002 10.9564 5.65002 10.625ZM5.00002 13.15C4.66865 13.15 4.40002 13.4187 4.40002 13.75C4.40002 14.0814 4.66865 14.35 5.00002 14.35H7.50002C7.8314 14.35 8.10002 14.0814 8.10002 13.75C8.10002 13.4187 7.8314 13.15 7.50002 13.15H5.00002ZM13.15 13.75C13.15 13.4187 13.4187 13.15 13.75 13.15H15C15.3314 13.15 15.6 13.4187 15.6 13.75C15.6 14.0814 15.3314 14.35 15 14.35H13.75C13.4187 14.35 13.15 14.0814 13.15 13.75ZM13.75 10.025C13.4187 10.025 13.15 10.2937 13.15 10.625C13.15 10.9564 13.4187 11.225 13.75 11.225H15C15.3314 11.225 15.6 10.9564 15.6 10.625C15.6 10.2937 15.3314 10.025 15 10.025H13.75Z" fill="#889096"/>
</svg>
