<svg xmlns="http://www.w3.org/2000/svg" width="20" height="20">
    <path fill="#526373" fill-rule="evenodd" d="M18 14.816V19.5a.5.5 0 0 1-1 0V15c-1.654 0-3-1.346-3-3s1.346-3 3-3V.5a.5.5 0 0 1 1 0v8.684c1.161.414 2 1.514 2 2.816a2.996 2.996 0 0 1-2 2.816zM17 10c-1.103 0-2 .897-2 2s.897 2 2 2c1.102 0 2-.897 2-2s-.898-2-2-2zm-6-2.184V19.5a.5.5 0 0 1-1 0V8C8.346 8 7 6.654 7 5s1.346-3 3-3V.5a.5.5 0 0 1 1 0v1.684c1.161.414 2 1.514 2 2.816a2.996 2.996 0 0 1-2 2.816zM10 3c-1.103 0-2 .897-2 2s.897 2 2 2 2-.897 2-2-.897-2-2-2zM4 16.816V19.5a.5.5 0 0 1-1 0V17c-1.654 0-3-1.346-3-3s1.346-3 3-3V.5a.5.5 0 0 1 1 0v10.684c1.161.414 2 1.514 2 2.816a2.996 2.996 0 0 1-2 2.816zM3 12c-1.103 0-2 .898-2 2 0 1.103.897 2 2 2s2-.897 2-2c0-1.102-.897-2-2-2z"/>
</svg>
