<svg xmlns="http://www.w3.org/2000/svg" width="20" height="20">
    <path fill="#A6BEC6" fill-rule="evenodd" d="M19.447 14.893c-1.667.834-3.314 1.108-4.937 1.108-1.582 0-3.141-.26-4.675-.516-2.722-.453-5.304-.864-7.835.177v3.337a1 1 0 0 1-2 0V1.998a1 1 0 0 1 .553-.895C3.844-.543 7.056-.007 10.165.511c2.921.487 5.679.947 8.388-.408A1 1 0 0 1 20 .998v13a1 1 0 0 1-.553.895zM6 2.011c-1.355-.05-2.685.089-4 .63v10.872c1.174-.378 2.338-.517 3.491-.517.17 0 .339.014.509.02V2.011zm6 .805a62.988 62.988 0 0 1-2.165-.332A67.97 67.97 0 0 0 8 2.197V13.18c.727.095 1.449.213 2.165.332.619.103 1.23.203 1.835.287V2.816zm6-.333c-1.349.434-2.682.548-4 .504v10.998c1.355.051 2.685-.089 4-.63V2.483z"/>
</svg>
