<svg width="20" height="20" viewBox="0 0 20 20" fill="none" xmlns="http://www.w3.org/2000/svg">
<path d="M17 10.7273H2.45455C2.06878 10.7273 1.69881 10.8805 1.42603 11.1533C1.15325 11.4261 1 11.796 1 12.1818V16.5455C1 16.9312 1.15325 17.3012 1.42603 17.574C1.69881 17.8468 2.06878 18 2.45455 18H17C17.3858 18 17.7557 17.8468 18.0285 17.574C18.3013 17.3012 18.4545 16.9312 18.4545 16.5455V12.1818C18.4545 11.796 18.3013 11.4261 18.0285 11.1533C17.7557 10.8805 17.3858 10.7273 17 10.7273ZM17 16.5455H2.45455V12.1818H17V16.5455ZM17 2H2.45455C2.06878 2 1.69881 2.15325 1.42603 2.42603C1.15325 2.69881 1 3.06878 1 3.45455V7.81818C1 8.20395 1.15325 8.57392 1.42603 8.8467C1.69881 9.11948 2.06878 9.27273 2.45455 9.27273H17C17.3858 9.27273 17.7557 9.11948 18.0285 8.8467C18.3013 8.57392 18.4545 8.20395 18.4545 7.81818V3.45455C18.4545 3.06878 18.3013 2.69881 18.0285 2.42603C17.7557 2.15325 17.3858 2 17 2ZM17 7.81818H2.45455V3.45455H17V7.81818ZM15.5455 5.63636C15.5455 5.85213 15.4815 6.06304 15.3616 6.24244C15.2417 6.42184 15.0714 6.56166 14.872 6.64423C14.6727 6.7268 14.4533 6.7484 14.2417 6.70631C14.0301 6.66422 13.8357 6.56032 13.6832 6.40775C13.5306 6.25519 13.4267 6.06081 13.3846 5.84919C13.3425 5.63757 13.3641 5.41823 13.4467 5.21889C13.5292 5.01955 13.6691 4.84918 13.8485 4.72931C14.0279 4.60944 14.2388 4.54545 14.4545 4.54545C14.7439 4.54545 15.0213 4.66039 15.2259 4.86497C15.4305 5.06956 15.5455 5.34704 15.5455 5.63636ZM15.5455 14.3636C15.5455 14.5794 15.4815 14.7903 15.3616 14.9697C15.2417 15.1491 15.0714 15.2889 14.872 15.3715C14.6727 15.4541 14.4533 15.4757 14.2417 15.4336C14.0301 15.3915 13.8357 15.2876 13.6832 15.135C13.5306 14.9825 13.4267 14.7881 13.3846 14.5765C13.3425 14.3648 13.3641 14.1455 13.4467 13.9462C13.5292 13.7468 13.6691 13.5765 13.8485 13.4566C14.0279 13.3367 14.2388 13.2727 14.4545 13.2727C14.7439 13.2727 15.0213 13.3877 15.2259 13.5922C15.4305 13.7968 15.5455 14.0743 15.5455 14.3636Z" fill="#889096"/>
</svg>
