<svg xmlns="http://www.w3.org/2000/svg" width="30" height="30">
    <path fill="#004D74" fill-rule="evenodd" d="M28.983 21a.999.999 0 0 1-.999-1v-3h-2.997v2.5a7.5 7.5 0 0 1-.211 1.739l4.578 1.833a1 1 0 0 1 .557 1.299l-1.998 5a.998.998 0 1 1-1.855-.742l1.627-4.072-3.624-1.45A7.494 7.494 0 0 1 17.495 27a7.495 7.495 0 0 1-6.565-3.893l-3.624 1.45 1.627 4.072A1.001 1.001 0 0 1 8.006 30a.997.997 0 0 1-.928-.629l-1.998-5a.999.999 0 0 1 .556-1.299l4.428-1.773a.965.965 0 0 1-.061-.299v-1.059c-4.159-.463-7.47-3.777-7.932-7.941H1.013a.999.999 0 1 1 0-2h1.058c.462-4.164 3.773-7.478 7.932-7.941V1a1 1 0 0 1 1.998 0v1.059a8.965 8.965 0 0 1 5.731 2.994c.086-.024.17-.053.263-.053h1.998a5.002 5.002 0 0 1 4.994 5v.523l2.617-1.048-1.512-3.028a1 1 0 1 1 1.787-.894l1.998 4a.999.999 0 0 1-.523 1.376l-4.367 1.748V15h3.996a1 1 0 0 1 1 1v4a1 1 0 0 1-1 1zM15.997 10h1.918a7 7 0 0 0-5.914-5.92V6a1 1 0 1 1-1.998 0V4.08A7 7 0 0 0 4.089 10h1.918a1 1 0 0 1 0 2H4.089a7 7 0 0 0 5.914 5.92V16a1 1 0 0 1 1.998 0v1.92A7 7 0 0 0 17.915 12h-1.918a.999.999 0 1 1 0-2zm6.993 1.982V10c0-1.654-1.344-3-2.997-3h-.949c.46.923.771 1.932.89 3h1.058c.552 0 .998.448.998 1 0 .553-.446 1-.998 1h-1.058a9.01 9.01 0 0 1-7.911 7.938c.224 2.828 2.59 5.062 5.472 5.062a5.505 5.505 0 0 0 5.495-5.5v-7.518zM11.002 12a1 1 0 1 1 .001-1.999A1 1 0 0 1 11.002 12z"/>
</svg>
