<svg xmlns="http://www.w3.org/2000/svg" width="18" height="18">
    <path fill="#004D74" fill-rule="evenodd" d="M17.986 3.947a3.752 3.752 0 0 0-1.12-2.833 3.754 3.754 0 0 0-2.831-1.12c-1.014.042-1.99.482-2.749 1.242-.041.041-.06.093-.092.138l-8.909 8.912a.985.985 0 0 0-.227.366c-.003.009-.012.015-.015.024L.044 16.677a.998.998 0 0 0 1.264 1.265l5.999-2.001c.009-.003.015-.011.024-.014a.984.984 0 0 0 .367-.227l8.911-8.913c.044-.032.095-.05.135-.09.759-.759 1.2-1.736 1.242-2.75zM6.991 13.579l-2.585-2.586 7.084-7.087 2.586 2.586-7.085 7.087zM14.117 2.01c.49-.023.955.162 1.324.53.367.368.551.825.53 1.324-.017.428-.193.847-.486 1.209l-2.577-2.577c.362-.293.782-.469 1.209-.486zM3.429 12.844l1.711 1.712-2.567.856.856-2.568z"/>
</svg>
