<svg xmlns="http://www.w3.org/2000/svg" width="20" height="20">
    <path fill="#00AAC3" fill-rule="evenodd" d="M19.5 13a.5.5 0 0 1-.5-.5v-10c0-.827-.673-1.5-1.5-1.5h-14a.5.5 0 0 1 0-1h14C18.879 0 20 1.122 20 2.5v10a.5.5 0 0 1-.5.5zM18 4.5v9c0 1.379-1.121 2.5-2.5 2.5H9.675l-4.862 3.891a.505.505 0 0 1-.53.059A.499.499 0 0 1 4 19.5V16H2.5A2.503 2.503 0 0 1 0 13.5v-9C0 3.122 1.122 2 2.5 2h13C16.879 2 18 3.122 18 4.5zm-17 0v9c0 .827.673 1.5 1.5 1.5h2a.5.5 0 0 1 .5.5v2.96l4.187-3.351A.507.507 0 0 1 9.5 15h6c.827 0 1.5-.673 1.5-1.5v-9c0-.827-.673-1.5-1.5-1.5h-13C1.673 3 1 3.673 1 4.5zm8.936 4.964C9.287 9.724 9 9.865 9 10.5a.5.5 0 0 1-1 0c0-1.338.904-1.7 1.564-1.964.649-.26.936-.401.936-1.036C10.5 6.673 9.827 6 9 6s-1.5.673-1.5 1.5a.5.5 0 0 1-1 0C6.5 6.122 7.622 5 9 5s2.5 1.122 2.5 2.5c0 1.338-.904 1.7-1.564 1.964zM8.5 12a.5.5 0 1 1 0 1 .5.5 0 0 1 0-1z"/>
</svg>
