<?xml version="1.0" encoding="UTF-8"?>
<svg width="20px" height="20px" viewBox="0 0 20 20" version="1.1" xmlns="http://www.w3.org/2000/svg" xmlns:xlink="http://www.w3.org/1999/xlink">
    <!-- Generator: sketchtool 41.2 (35397) - http://www.bohemiancoding.com/sketch -->
    <title>1FE27DCD-A18A-4B69-9CE2-5A2452A9B33D</title>
    <desc>Created with sketchtool.</desc>
    <defs>
        <polygon id="path-1" points="0.0027244412 0.0174389834 0.0027244412 17.8750452 18.5989427 17.8750452 18.5989427 0.0174389834 0.0027244412 0.0174389834"></polygon>
        <polygon id="path-3" points="0.0027244412 0.0174389834 0.0027244412 17.8750452 18.5989427 17.8750452 18.5989427 0.0174389834 0.0027244412 0.0174389834"></polygon>
    </defs>
    <g id="Page-1" stroke="none" stroke-width="1" fill="none" fill-rule="evenodd">
        <g id="Luminati-PM" transform="translate(-381.000000, -338.000000)">
            <g id="internet" transform="translate(381.000000, 216.000000)">
                <g id="Group-6" transform="translate(0.000000, 122.000000)">
                    <g id="Group-3" transform="translate(1.000000, 1.000000)">
                        <mask id="mask-2" fill="white">
                            <use xlink:href="#path-1"></use>
                        </mask>
                        <g id="Clip-2"></g>
                        <path d="M18.5989427,8.94624208 C18.5989427,13.8773326 14.4352701,17.8750452 9.29947137,17.8750452 C4.16344564,17.8750452 0,13.8773326 0,8.94624208 C0,4.01493355 4.16344564,0.0174389834 9.29947137,0.0174389834 C14.4352701,0.0174389834 18.5989427,4.01493355 18.5989427,8.94624208 Z" id="Fill-1" fill="#00B7F1" mask="url(#mask-2)"></path>
                    </g>
                    <g id="Group-3" transform="translate(1.000000, 1.000000)">
                        <mask id="mask-4" fill="white">
                            <use xlink:href="#path-3"></use>
                        </mask>
                        <g id="Clip-2"></g>
                        <path d="M18.5989427,8.94624208 C18.5989427,13.8773326 14.4352701,17.8750452 9.29947137,17.8750452 C4.16344564,17.8750452 0,13.8773326 0,8.94624208 C0,4.01493355 4.16344564,0.0174389834 9.29947137,0.0174389834 C14.4352701,0.0174389834 18.5989427,4.01493355 18.5989427,8.94624208 Z" id="Fill-1" fill="#00B7F1" mask="url(#mask-4)"></path>
                        <path d="M18.5989427,8.94624208 C18.5989427,13.8773326 14.4352701,17.8750452 9.29947137,17.8750452 C4.16344564,17.8750452 0,13.8773326 0,8.94624208 C0,4.01493355 4.16344564,0.0174389834 9.29947137,0.0174389834 C14.4352701,0.0174389834 18.5989427,4.01493355 18.5989427,8.94624208 Z" id="Fill-1" fill="#ECECEC" opacity="0.371150362" mask="url(#mask-4)"></path>
                    </g>
                    <path d="M19.5989427,9.94624208 C19.5989427,8.15482251 19.049423,6.48652216 18.103497,5.08852606 C18.103497,5.08852606 17.5729575,5.83256029 17.672672,6.3109552 C17.7723411,6.78935011 18.3576873,6.82579758 18.2975226,7.17658274 C18.2374033,7.52758587 17.8054885,7.07630858 17.2740863,8.00087988 C16.742684,8.92579996 17.0085895,10.2016796 17.7723411,10.2970708 C18.5360928,10.3925929 19.5989427,9.94624208 19.5989427,9.94624208 Z" id="Fill-4" fill="#009CD6"></path>
                    <path d="M12.7417059,1.32859404 C13.8240355,1.61058241 14.8279467,2.07568009 15.715161,2.68709085 C15.715161,2.68709085 14.636918,2.51627601 14.2284334,2.86693037 C13.8199489,3.21775912 13.224159,4.04693918 12.7415242,2.86693037 C12.2590711,1.68705235 12.7417059,1.32859404 12.7417059,1.32859404 Z" id="Fill-5" fill="#009CD6"></path>
                    <path d="M3.30742007,4.05936445 C5.01164885,2.19474475 7.51241343,1.01743898 10.2994714,1.01743898 C10.2994714,1.01743898 9.6685362,1.384268 10.8642026,2.00605495 C12.0598691,2.62779831 11.5118023,2.91480038 11.2626067,3.10619322 C11.0135474,3.29745527 10.5816781,2.72353833 10.2994714,2.34083984 C10.0172647,1.95818494 8.805297,1.36826773 7.875309,1.68722674 C6.9453664,2.00622934 6.14842194,2.2419172 6.28110223,2.53859791 C6.41378252,2.83523501 8.00798929,2.26149246 8.60573168,2.29318781 C9.20365571,2.32501396 9.00427202,2.67566832 8.43990403,3.09036734 C7.875309,3.50489198 7.8086056,4.01511303 8.40652963,4.33389765 C9.00427202,4.65290025 9.73487634,4.68490079 9.90106725,4.49346435 C10.0673036,4.3022459 9.60219605,3.0584976 10.7313407,3.6005884 C11.8607124,4.1426792 12.790655,4.46181259 11.8607124,5.25881773 C10.9307244,6.05582287 9.86791989,6.9490912 9.83472711,7.45913786 C9.80139811,7.96918453 10.1669727,8.38405795 9.96758903,8.41588409 C9.76838697,8.44757944 9.58553155,8.20862177 9.45266964,8.03305481 C9.31998935,7.85766223 8.70540083,7.79396634 8.40652963,7.90548864 C8.10765843,8.01705454 7.54292717,8.44757944 7.85846287,8.86210408 C8.1741802,9.2767595 8.60555006,9.08519227 9.0374648,9.27658512 C9.46937955,9.46802156 9.87200655,10.1962299 9.78931976,10.3607667 C9.70649674,10.5252599 9.33847015,10.3169949 9.0374648,9.75498003 C8.73627783,9.19296519 8.17168279,9.56354359 7.77436845,9.46802156 C7.37691789,9.37232513 7.07800128,9.30862925 6.67946094,8.6387979 C6.2809206,7.96918453 5.45577818,7.78184625 5.11858317,7.39526759 C4.15263254,6.28797934 4.22178794,5.45007978 4.02258588,5.06742489 C3.8232476,4.6847264 3.30742007,4.05936445 3.30742007,4.05936445 Z" id="Fill-6" fill="#009CD6"></path>
                    <path d="M11.196085,10.0738082 C11.196085,10.0738082 12.1925493,10.1693303 12.6906226,10.5840293 C13.1888775,10.9985103 13.2553539,11.1581206 14.0193326,11.3175129 C14.7830843,11.4767309 15.1152845,11.8912555 14.617075,12.6886094 C14.1188201,13.4857889 13.2220249,14.7613634 12.7902917,15.1440183 C12.3587403,15.5267168 11.8271564,15.8455014 11.6279997,16.4832886 C11.4287977,17.1210758 11.3620943,17.5034255 11.794009,17.7586886 C11.794009,17.7586886 11.5616596,18.3009538 11.0302573,17.5992963 C10.4986734,16.8976388 10.9305428,16.068764 11.0302573,15.5904126 C11.1297448,15.1121921 11.3954687,13.6772254 11.229414,13.3263966 C11.0634047,12.9753935 10.2994714,12.7521309 10.1000877,12.0188217 C9.90088562,11.2855124 10.2496141,9.8583496 11.196085,10.0738082 Z" id="Fill-7" fill="#009CD6"></path>
                </g>
            </g>
        </g>
    </g>
</svg>

