<svg xmlns="http://www.w3.org/2000/svg" width="21.317" height="26.683">
    <path fill="#A6BEC6" fill-rule="evenodd" d="M8.65 19.759a.993.993 0 0 1-1.3 0C7.049 19.502 0 13.398 0 8c0-4.411 3.589-8 8-8s8 3.589 8 8c0 5.398-7.049 11.502-7.35 11.759zM8 2C4.691 2 2 4.691 2 8c0 3.337 3.87 7.657 6 9.654 2.13-1.997 6-6.317 6-9.654 0-3.309-2.691-6-6-6zm2.319 9.624c-.185.123-.421.21-.71.26a8.039 8.039 0 0 1-1.537.152c-1.212 0-2.109-.316-2.69-.948-.581-.631-.872-1.614-.872-2.95 0-2.569 1.206-3.854 3.616-3.854.527 0 1.045.074 1.554.222.509.148.763.326.763.536 0 .158-.085.368-.254.628-.17.259-.32.389-.45.389a1.21 1.21 0 0 1-.238-.086c-.397-.173-.866-.26-1.407-.26-1.249 0-1.873.817-1.873 2.452s.617 2.452 1.851 2.452c.289 0 .57-.025.845-.075V9.167h-.953c-.217 0-.325-.181-.325-.542v-.346c0-.361.108-.541.325-.541h2.198c.288 0 .433.144.433.433v3.009c0 .174-.092.322-.276.444z"/>
</svg>
