<svg xmlns="http://www.w3.org/2000/svg" width="30" height="30">
    <path fill="#004D74" fill-rule="evenodd" d="M29.164 17.986l-3.782.631c-.139.401-.3.791-.482 1.169l2.227 3.118a1 1 0 0 1-.107 1.288l-2.828 2.829a1.003 1.003 0 0 1-1.288.106L19.786 24.9c-.378.182-.768.343-1.169.482l-.631 3.782A.999.999 0 0 1 17 30h-4a.999.999 0 0 1-.986-.836l-.631-3.782c-.401-.139-.792-.3-1.169-.482l-3.118 2.227a1.003 1.003 0 0 1-1.289-.106l-2.828-2.829a1.002 1.002 0 0 1-.107-1.288L5.1 19.786a10.993 10.993 0 0 1-.482-1.169l-3.783-.631A.999.999 0 0 1 0 17v-4c0-.489.353-.906.835-.986l3.783-.631c.139-.401.3-.791.482-1.169L2.872 7.096a1.002 1.002 0 0 1 .107-1.288l2.828-2.829a1 1 0 0 1 1.289-.106L10.214 5.1c.378-.182.768-.343 1.169-.482l.631-3.783A1 1 0 0 1 13 0h4a1 1 0 0 1 .986.835l.631 3.783c.401.139.791.3 1.169.482l3.118-2.227a.997.997 0 0 1 1.288.106l2.828 2.829a1 1 0 0 1 .107 1.288L24.9 10.214c.182.377.343.768.482 1.169l3.782.631A1 1 0 0 1 30 13v4a1 1 0 0 1-.836.986zM28 13.847l-3.551-.592a1 1 0 0 1-.798-.713 8.915 8.915 0 0 0-.794-1.923 1 1 0 0 1 .06-1.069l2.091-2.927-1.631-1.63-2.927 2.09a.998.998 0 0 1-1.068.059 9.035 9.035 0 0 0-1.924-.793 1 1 0 0 1-.713-.797L16.153 2h-2.306l-.592 3.552a1 1 0 0 1-.714.797 9.048 9.048 0 0 0-1.923.793 1 1 0 0 1-1.068-.059l-2.928-2.09-1.629 1.63 2.09 2.927a.998.998 0 0 1 .059 1.068 9.035 9.035 0 0 0-.793 1.924 1 1 0 0 1-.797.713L2 13.847v2.306l3.552.592a1 1 0 0 1 .797.713c.193.68.46 1.326.793 1.924a.997.997 0 0 1-.059 1.068l-2.09 2.927 1.629 1.631 2.928-2.091a1 1 0 0 1 1.069-.06 8.895 8.895 0 0 0 1.922.793c.372.106.65.416.714.798L13.847 28h2.306l.592-3.552a1 1 0 0 1 .714-.798 8.916 8.916 0 0 0 1.922-.793 1 1 0 0 1 1.069.06l2.927 2.091 1.631-1.631-2.091-2.927a1 1 0 0 1-.06-1.069 8.895 8.895 0 0 0 .793-1.922c.106-.372.416-.65.798-.714L28 16.153v-2.306zM15 20c-2.757 0-5-2.243-5-5s2.243-5 5-5 5 2.243 5 5-2.243 5-5 5zm0-8c-1.654 0-3 1.346-3 3s1.346 3 3 3 3-1.346 3-3-1.346-3-3-3z"/>
</svg>
