<svg xmlns="http://www.w3.org/2000/svg" width="20" height="20">
    <path fill="#FFF" fill-rule="evenodd" d="M10.24 12.06h5.885a6.194 6.194 0 0 1-.478 1.292c-.224.454-.551.915-.981 1.385-.431.469-1.029.853-1.794 1.15-.766.298-1.644.446-2.632.446-1.723 0-3.198-.611-4.426-1.831-1.228-1.221-1.842-2.7-1.842-4.437s.614-3.223 1.842-4.46c1.228-1.236 2.703-1.854 4.426-1.854 1.69 0 3.062.516 4.115 1.549l2.727-2.629C15.264.887 12.967-.005 10.192-.005c-2.839 0-5.248.97-7.225 2.91C.989 4.846.001 7.209.001 9.995c0 2.786.996 5.149 2.99 7.089 1.993 1.94 4.394 2.911 7.201 2.911 2.934 0 5.303-.9 7.105-2.7 1.802-1.799 2.704-4.155 2.704-7.065 0-.752-.048-1.315-.144-1.691H10.24V12.06z"/>
</svg>
