<svg id="Layer_1" data-name="Layer 1" xmlns="http://www.w3.org/2000/svg" viewBox="0 0 30 30"><defs><style>.cls-1{fill:#004d74;}</style></defs><title>ic_ic_har_viewer</title><path class="cls-1" d="M15,30A15,15,0,1,1,30,15,15,15,0,0,1,15,30ZM15,2A13,13,0,1,0,28,15,13,13,0,0,0,15,2Z"/><path class="cls-1" d="M15,16a1,1,0,0,1-.53-.15A1,1,0,0,1,14,15V1a1,1,0,0,1,2,0V13.38L26.55,8.11a1,1,0,1,1,.9,1.78l-12,6A1,1,0,0,1,15,16Z"/><path class="cls-1" d="M10,29a.92.92,0,0,1-.36-.07,1,1,0,0,1-.57-1.29l5-13A1,1,0,0,1,15,14H28a1,1,0,0,1,0,2H15.69L10.93,28.36A1,1,0,0,1,10,29Z"/></svg>
