<svg xmlns="http://www.w3.org/2000/svg" width="20" height="20">
    <path fill="#004d74" fill-rule="evenodd" d="M17.845 2.84a.5.5 0 1 1-.707-.707l2-2a.499.499 0 0 1 .707 0 .499.499 0 0 1 0 .707l-2 2zm-3.342 9.492a1.467 1.467 0 0 0-.513 1.122c0 1.414-1.121 2.536-2.5 2.536H8.489a2.504 2.504 0 0 1-2.501-2.501c0-.47-.194-.885-.532-1.172-1.913-1.627-2.795-4.09-2.359-6.587C3.588 2.918 5.795.664 8.587.12c2.102-.407 4.233.124 5.853 1.46a6.986 6.986 0 0 1 2.551 5.407 6.98 6.98 0 0 1-2.488 5.345zm-.699-9.98A6.008 6.008 0 0 0 9.974.986c-.397 0-.797.038-1.195.116-2.389.465-4.276 2.394-4.696 4.8-.375 2.145.381 4.258 2.021 5.653a2.49 2.49 0 0 1 .884 1.899c0 .862.673 1.536 1.501 1.536h3.001c.827 0 1.5-.674 1.5-1.501 0-.767.317-1.455.868-1.921a5.987 5.987 0 0 0 2.133-4.581c0-1.8-.797-3.489-2.187-4.635zm-3.899 8.414a.498.498 0 0 1-.693.139.5.5 0 0 1-.139-.694l1.482-2.223H8.489a.499.499 0 0 1-.416-.777l2-3.001a.5.5 0 1 1 .832.555L9.423 6.988h2.067a.498.498 0 0 1 .416.777l-2.001 3.001zM2.487 2.987a.495.495 0 0 1-.353-.147L.133.84A.5.5 0 0 1 .84.133l2.001 2a.5.5 0 0 1-.354.854zm-2 5.001h1a.5.5 0 0 1 0 1h-1a.499.499 0 1 1 0-1zm2.647 5.148a.5.5 0 0 1 .707.707l-2 2a.5.5 0 1 1-.708-.707l2.001-2zm4.355 3.854h5.001a.5.5 0 0 1 0 1H7.489a.5.5 0 1 1 0-1zm1 2.001h3.001a.5.5 0 1 1 0 1H8.489a.5.5 0 1 1 0-1zm8.356-5.855l2 2a.5.5 0 0 1-.707.707l-2.001-2a.5.5 0 0 1 .708-.707zm1.146-4.648a.5.5 0 0 1 .501-.5h1a.5.5 0 0 1 0 1h-1a.5.5 0 0 1-.501-.5z"/>
</svg>
