<svg id="Layer_1" data-name="Layer 1" xmlns="http://www.w3.org/2000/svg" viewBox="0 0 20 20">
  <path fill="#004d74" d="M17,1H3A2,2,0,0,0,1,3V17a2,2,0,0,0,2,2H17a2,2,0,0,0,2-2V3A2,2,0,0,0,17,1Zm1,16a1,1,0,0,1-1,1H3a1,1,0,0,1-1-1V6H18ZM18,5H2V3A1,1,0,0,1,3,2H17a1,1,0,0,1,1,1Z"/>
  <circle cx="3.5" cy="3.5" r="0.5"/>
  <circle cx="5.5" cy="3.5" r="0.5"/>
  <circle cx="7.5" cy="3.5" r="0.5"/>
  <path fill="#004d74" d="M3.31,15A.5.5,0,0,0,4,14.69L4.67,13H7.33L8,14.69A.5.5,0,0,0,8.5,15a.43.43,0,0,0,.19,0A.49.49,0,0,0,9,14.31l-2.5-6a.52.52,0,0,0-.92,0l-2.5,6A.49.49,0,0,0,3.31,15ZM6,9.8,6.92,12H5.08Z"/>
  <path fill="#004d74" d="M10.5,15a.5.5,0,0,0,.5-.5V12h1a2,2,0,0,0,0-4H10.5a.5.5,0,0,0-.5.5v6A.5.5,0,0,0,10.5,15ZM11,9h1a1,1,0,0,1,0,2H11Z"/>
  <path fill="#004d74" d="M15.5,15a.5.5,0,0,0,.5-.5v-6a.5.5,0,0,0-1,0v6A.5.5,0,0,0,15.5,15Z"/>
</svg>
