<svg xmlns="http://www.w3.org/2000/svg" width="88" height="88" viewBox="0 0 88 88">
    <defs>
        <style>
            .cls-1{fill:rgba(0,77,116,.1)}.cls-2{fill:#004d74}
        </style>
    </defs>
    <g id="ic_admin" transform="translate(-565 -294)">
        <circle id="Ellipse_1" cx="44" cy="44" r="44" class="cls-1" data-name="Ellipse 1" transform="translate(565 294)"/>
        <g id="Group_253" data-name="Group 253">
            <path id="Op_component_2" d="M650.757 1099.679l.772-.771a5.964 5.964 0 0 0 2.471 1.024v1.09a1 1 0 0 0 2 0v-1.09a5.964 5.964 0 0 0 2.471-1.024l.772.771a1 1 0 0 0 1.414-1.413l-.772-.772a5.955 5.955 0 0 0 1.025-2.47H662a1 1 0 1 0 0-2h-1.09a5.953 5.953 0 0 0-1.025-2.47l.772-.772a1 1 0 0 0-1.414-1.413l-.772.771a5.965 5.965 0 0 0-2.471-1.02v-1.09a1 1 0 0 0-2 0v1.09a5.965 5.965 0 0 0-2.471 1.024l-.772-.771a1 1 0 0 0-1.414 1.413l.772.772a5.95 5.95 0 0 0-1.025 2.47H648a1 1 0 1 0 0 2h1.09a5.953 5.953 0 0 0 1.025 2.47l-.772.772a1 1 0 1 0 1.414 1.413zm4.243-9.651a4 4 0 1 1-4 4 4 4 0 0 1 4-4z" class="cls-2" data-name="Op component 2" transform="translate(-46 -768)"/>
            <path id="Path_37129" d="M-74.852 63.434C-71.327 59.639-69 53.321-69 47c0-10-5-14-13-14s-13 4-13 14c0 6.321 2.327 12.639 5.852 16.434l-.045.011c-.462.1-.922.212-1.377.344-.245.071-.485.153-.727.232q-.329.109-.653.23-.872.321-1.7.717c-.042.021-.085.038-.127.058-.325.159-.643.327-.957.5l-.174.1A19.941 19.941 0 0 0-105 83a.988.988 0 0 0 .7.94A31.778 31.778 0 0 0-82 93a31.777 31.777 0 0 0 22.3-9.061A.987.987 0 0 0-59 83a19.94 19.94 0 0 0-15.852-19.566zM-82 35c7.5 0 11 3.813 11 12 0 9.252-5.346 18-11 18s-11-8.748-11-18c0-8.187 3.5-12 11-12zm12 53.5V79a1 1 0 0 0-1-1 1 1 0 0 0-1 1v10.3A30.039 30.039 0 0 1-82 91a30.044 30.044 0 0 1-10-1.7V79a1 1 0 0 0-1-1 1 1 0 0 0-1 1v9.5a29.968 29.968 0 0 1-8.974-6.063 17.946 17.946 0 0 1 8.185-14.565c.025-.014.053-.02.078-.036.268-.172.541-.334.818-.492.039-.022.077-.045.116-.066q.435-.243.883-.463l.036-.016c.468-.227.949-.428 1.435-.614l1.978-.621c.221-.056.439-.119.664-.166.144-.031.29-.058.435-.086.365-.067.735-.122 1.108-.168A8.846 8.846 0 0 0-82 67a8.846 8.846 0 0 0 5.238-1.852 18.145 18.145 0 0 1 2.207.42l1.981.617A17.929 17.929 0 0 1-61.026 82.44 29.936 29.936 0 0 1-70 88.5z" class="cls-2" data-name="Path 37129" transform="translate(691 277)"/>
        </g>
    </g>
</svg>
