<svg id="Layer_1" data-name="Layer 1" xmlns="http://www.w3.org/2000/svg" viewBox="0 0 30 30"><defs><style>.cls-1{fill:#004d74;}</style></defs><title>ic_browser</title><path class="cls-1" d="M29,0H1A1,1,0,0,0,0,1V29a1,1,0,0,0,1,1H29a1,1,0,0,0,1-1V1A1,1,0,0,0,29,0ZM28,6H5A1,1,0,0,0,5,8H28V28H2V2H28Z"/><circle class="cls-1" cx="26" cy="4" r="1"/><circle class="cls-1" cx="23" cy="4" r="1"/><circle class="cls-1" cx="20" cy="4" r="1"/><path class="cls-1" d="M18.13,25.49A1,1,0,0,0,19,26h.13a1,1,0,0,0,.84-.75l.62-2.49,3.79,3A1,1,0,0,0,25,26a1,1,0,0,0,.78-.38,1,1,0,0,0-.16-1.4l-3.77-3,2.6-1.31A1,1,0,0,0,24.29,18l-10-3a1,1,0,0,0-1.07.33,1,1,0,0,0-.09,1.12Zm3.17-6.26-1.75.88h0a.88.88,0,0,0-.32.26.85.85,0,0,0-.18.37h0l-.39,1.54-2.57-4.63Z"/></svg>
