<svg id="Layer_1" data-name="Layer 1" xmlns="http://www.w3.org/2000/svg" viewBox="0 0 18 18"><defs><style>.cls-1{fill:#0096af;}.cls-2{fill:#007896;}.cls-3{fill:#00bcd2;}</style></defs><title>ic_chrome</title><circle class="cls-1" cx="9" cy="8.96" r="2.5"/><path class="cls-1" d="M5.31,7.47A4,4,0,0,1,9,5h6.92A8,8,0,0,0,3.09,3.63Z"/><path class="cls-2" d="M9.53,13A4.53,4.53,0,0,1,9,13a4,4,0,0,1-3.73-2.6L2.11,4.94A8,8,0,0,0,7.3,16.81Z"/><path class="cls-3" d="M12.1,6.5a3.92,3.92,0,0,1,0,5L8.93,17H9a8,8,0,0,0,8-8,8.28,8.28,0,0,0-.4-2.5Z"/></svg>
