<?xml version="1.0" encoding="UTF-8"?>
<svg width="18px" height="18px" viewBox="0 0 18 18" version="1.1" xmlns="http://www.w3.org/2000/svg" xmlns:xlink="http://www.w3.org/1999/xlink">
    <!-- Generator: sketchtool 41.2 (35397) - http://www.bohemiancoding.com/sketch -->
    <title>16F20558-0710-4A7F-84D5-F4A1268AE53A</title>
    <desc>Created with sketchtool.</desc>
    <defs></defs>
    <g id="Page-1" stroke="none" stroke-width="1" fill="none" fill-rule="evenodd">
        <g id="Luminati-PM" transform="translate(-711.000000, -132.000000)" fill="#212C33">
            <g id="Columns" transform="translate(711.000000, 132.000000)">
                <path d="M4.64,1.51 L1.64,1.51 C1.24,1.51 0.91,1.84 0.91,2.24 L0.91,15.45 C0.91,15.85 1.24,16.18 1.64,16.18 L4.64,16.18 C5.05,16.18 5.38,15.85 5.38,15.45 L5.38,2.24 C5.38,1.84 5.05,1.51 4.64,1.51 Z M2.38,14.71 L3.91,14.71 L3.91,2.98 L2.38,2.98 L2.38,14.71 Z" id="Fill-89"></path>
                <path d="M10.61,1.51 L7.61,1.51 C7.2,1.51 6.87,1.84 6.87,2.24 L6.87,15.45 C6.87,15.85 7.2,16.18 7.61,16.18 L10.61,16.18 C11.02,16.18 11.35,15.85 11.35,15.45 L11.35,2.24 C11.35,1.84 11.02,1.51 10.61,1.51 Z M8.34,14.71 L9.88,14.71 L9.88,2.98 L8.34,2.98 L8.34,14.71 Z" id="Fill-90"></path>
                <path d="M16.62,1.51 L13.61,1.51 C13.21,1.51 12.88,1.84 12.88,2.24 L12.88,15.45 C12.88,15.85 13.21,16.18 13.61,16.18 L16.62,16.18 C17.02,16.18 17.35,15.85 17.35,15.45 L17.35,2.24 C17.35,1.84 17.02,1.51 16.62,1.51 Z M14.35,14.71 L15.88,14.71 L15.88,2.98 L14.35,2.98 L14.35,14.71 Z" id="Fill-91"></path>
            </g>
        </g>
    </g>
</svg>
