<svg id="Layer_1" data-name="Layer 1" xmlns="http://www.w3.org/2000/svg" viewBox="0 0 30 30"><defs><style>.cls-1{fill:#004d74;}</style></defs><title>ic_code</title><path class="cls-1" d="M29,0H1A1,1,0,0,0,0,1V29a1,1,0,0,0,1,1H29a1,1,0,0,0,1-1V1A1,1,0,0,0,29,0ZM28,6H5A1,1,0,0,0,5,8H28V28H2V2H28Z"/><path class="cls-1" d="M8.29,22.71a1,1,0,0,0,1.42,0,1,1,0,0,0,0-1.42L6.41,18l3.3-3.29a1,1,0,0,0-1.42-1.42l-4,4a1,1,0,0,0,0,1.42Z"/><path class="cls-1" d="M20.29,22.71a1,1,0,0,0,1.42,0l4-4a1,1,0,0,0,0-1.42l-4-4a1,1,0,0,0-1.42,1.42L23.59,18l-3.3,3.29A1,1,0,0,0,20.29,22.71Z"/><path class="cls-1" d="M12.63,23.93A1,1,0,0,0,13,24a1,1,0,0,0,.93-.63l4-10a1,1,0,0,0-1.86-.74l-4,10A1,1,0,0,0,12.63,23.93Z"/></svg>
