<?xml version="1.0" encoding="UTF-8"?>
<svg width="20px" height="20px" viewBox="0 0 20 20" version="1.1" xmlns="http://www.w3.org/2000/svg" xmlns:xlink="http://www.w3.org/1999/xlink">
    <!-- Generator: sketchtool 41.2 (35397) - http://www.bohemiancoding.com/sketch -->
    <title>26B943F4-0485-4F1D-B3B9-97EE024EF875</title>
    <desc>Created with sketchtool.</desc>
    <defs></defs>
    <g id="Page-1" stroke="none" stroke-width="1" fill="none" fill-rule="evenodd">
        <g id="Luminati-PM" transform="translate(-482.000000, -231.000000)">
            <g id="Luminati-proxy-manager-new" transform="translate(-854.000000, 54.000000)" fill="#C8C2BF">
                <g id="Group-93" transform="translate(890.000000, 0.000000)">
                    <g id="Group">
                        <path d="M749,357.875 L749,357.25 L4,357.25 C3.313,357.25 2.69,356.9 2.234,356.3375 C1.781,355.7625 1.5,354.9875 1.5,354.125 L1.5,62.875 C1.5,62.0125 1.781,61.2375 2.234,60.6625 C2.69,60.1 3.313,59.75 4,59.75 L749,59.75 C749.69,59.75 750.31,60.1 750.76,60.6625 C751.22,61.2375 751.5,62.0125 751.5,62.875 L751.5,354.125 C751.5,354.9875 751.22,355.7625 750.76,356.3375 C750.31,356.9 749.69,357.25 749,357.25 L749,358.5 C750.93,358.5 752.5,356.5375 752.5,354.125 L752.5,62.875 C752.5,60.4625 750.93,58.5 749,58.5 L4,58.5 C2.072,58.5 0.503,60.4625 0.499,62.875 L0.499,354.125 C0.503,356.5375 2.072,358.5 4,358.5 L749,358.5 L749,357.875" id="Fill-8"></path>
                    </g>
                </g>
            </g>
            <g id="internet" transform="translate(381.000000, 216.000000)"></g>
            <g id="OK" transform="translate(482.000000, 231.000000)" fill="#2CA46F">
                <path d="M18.3103396,2 L5.67235163,14.6379879 L2.11608061,11.0915138 L0.48,12.7275944 L4.84941288,17.0970073 C5.30006982,17.5476642 6.03483656,17.5476642 6.48549349,17.0970073 L19.9464202,3.63608061 L18.3103396,2" id="Fill-84"></path>
            </g>
        </g>
    </g>
</svg>