<svg xmlns="http://www.w3.org/2000/svg" viewBox="0 0 14 13.97"><defs><style>.cls-1{fill:#eb3a28;}</style></defs><title>ic_cancel</title><g id="Layer_2" data-name="Layer 2"><g id="Layer_1-2" data-name="Layer 1"><path class="cls-1" d="M2.05,2.05A6.74,6.74,0,0,1,7,0,6.74,6.74,0,0,1,12,2.05,6.71,6.71,0,0,1,14,7,6.72,6.72,0,0,1,12,11.92,6.78,6.78,0,0,1,7,14a6.78,6.78,0,0,1-4.95-2.05A6.72,6.72,0,0,1,0,7,6.71,6.71,0,0,1,2.05,2.05Zm8.44,7.46L8,7l2.52-2.52-1-1L7,6,4.49,3.48l-1,1L6,7,3.51,9.51l1,1L7,8l2.53,2.52Z"/></g></g></svg>
