<?xml version="1.0" encoding="UTF-8"?>
<svg width="20px" height="20px" viewBox="0 0 20 20" version="1.1" xmlns="http://www.w3.org/2000/svg" xmlns:xlink="http://www.w3.org/1999/xlink">
    <!-- Generator: sketchtool 41.2 (35397) - http://www.bohemiancoding.com/sketch -->
    <title>ABB0FE34-2722-466B-B00E-0AEBFF81A5A4</title>
    <desc>Created with sketchtool.</desc>
    <defs></defs>
    <g id="Page-1" stroke="none" stroke-width="1" fill="none" fill-rule="evenodd">
        <g id="Luminati-PM" transform="translate(-722.000000, -232.000000)" fill="#1A1918">
            <g id="Actions" transform="translate(648.000000, 231.000000)">
                <g id="Copy" transform="translate(74.000000, 0.000000)">
                    <path d="M17.31,4.38 L6.34,4.38 C5.77,4.38 5.31,4.85 5.31,5.41 L5.31,18.85 C5.31,19.42 5.77,19.88 6.34,19.88 L17.31,19.88 C17.88,19.88 18.34,19.42 18.34,18.85 L18.34,5.41 C18.34,4.85 17.88,4.38 17.31,4.38 Z M7.37,17.82 L16.28,17.82 L16.28,6.45 L7.37,6.45 L7.37,17.82 Z" id="Fill-41"></path>
                    <path d="M3.93,14.05 L3.93,3.01 L13.26,3.01 L13.26,0.94 L2.9,0.94 C2.33,0.94 1.87,1.41 1.87,1.98 L1.87,14.05 L3.93,14.05" id="Fill-43"></path>
                </g>
            </g>
        </g>
    </g>
</svg>