<?xml version="1.0" encoding="UTF-8"?>
<svg width="18px" height="18px" viewBox="0 0 18 18" version="1.1" xmlns="http://www.w3.org/2000/svg" xmlns:xlink="http://www.w3.org/1999/xlink">
    <!-- Generator: sketchtool 41.2 (35397) - http://www.bohemiancoding.com/sketch -->
    <title>1965DBD5-EB72-4A33-97A3-F9072E995404</title>
    <desc>Created with sketchtool.</desc>
    <defs></defs>
    <g id="Page-1" stroke="none" stroke-width="1" fill="none" fill-rule="evenodd">
        <g id="Luminati-PM" transform="translate(-99.000000, -132.000000)" fill="red">
            <g id="Group-3" transform="translate(90.000000, 123.000000)">
                <g id="Delete" transform="translate(9.000000, 9.000000)">
                    <path d="M13.8253047,17.7911377 L4.10954879,17.7911377 C3.65563177,17.7911377 3.28863502,17.4328811 3.28863502,16.9897744 L2.32285412,4.81847952 C2.32285412,4.37537274 2.68985086,4.00768839 3.14376789,4.00768839 L14.7910856,4.00768839 C15.2450027,4.00768839 15.6119994,4.37537274 15.6119994,4.81847952 L14.6462185,16.9897744 C14.6462185,17.4328811 14.2792217,17.7911377 13.8253047,17.7911377 M4.60209706,6.23265011 L5.56787796,15.566176 L12.3669756,15.566176 L13.3327565,6.23265011 L4.60209706,6.23265011" id="Fill-146"></path>
                    <polygon id="Fill-147" points="0.71 2.40496172 17.2248535 2.40496172 17.2248535 0.18 0.71 0.18"></polygon>
                    <polyline id="Fill-148" points="9.78834053 13.5391981 8.04027709 13.5297703 7.82780529 8.27848355 10.1070482 8.27848355 9.78834053 13.5391981"></polyline>
                </g>
            </g>
        </g>
    </g>
</svg>
