<?xml version="1.0" encoding="UTF-8"?>
<svg width="20px" height="20px" viewBox="0 0 20 20" version="1.1" xmlns="http://www.w3.org/2000/svg" xmlns:xlink="http://www.w3.org/1999/xlink">
    <!-- Generator: sketchtool 41.2 (35397) - http://www.bohemiancoding.com/sketch -->
    <title>3407825E-A6B9-4785-9A4B-759F6ED81618</title>
    <desc>Created with sketchtool.</desc>
    <defs></defs>
    <g id="Page-1" stroke="none" stroke-width="1" fill="none" fill-rule="evenodd">
        <g id="Luminati-PM" transform="translate(-1111.000000, -344.000000)" fill="#D1D8DE">
            <g id="Group-8" transform="translate(-779.000000, -22.000000)">
                <g id="Luminati-proxy-manager-new" transform="translate(0.000000, 135.000000)">
                    <g id="Group-7" transform="translate(0.000000, 9.000000)">
                        <g id="Actions" transform="translate(1890.000000, 221.000000)">
                            <g id="Edit" transform="translate(0.000000, 1.000000)">
                                <polyline id="Fill-38" points="0.13 19.59 5.37 18.19 1.53 14.35 0.13 19.59"></polyline>
                                <path d="M15.18,0.67 C14.92,0.67 14.65,0.77 14.45,0.97 L2.78,12.64 C2.38,13.04 2.38,13.7 2.78,14.1 L5.76,17.08 C5.96,17.28 6.22,17.38 6.49,17.38 C6.75,17.38 7.02,17.28 7.22,17.08 L18.89,5.4 C19.29,5 19.29,4.35 18.89,3.94 L15.91,0.97 C15.71,0.77 15.45,0.67 15.18,0.67 Z M15.18,3.16 L16.7,4.67 L6.49,14.89 L4.97,13.37 L15.18,3.16 L15.18,3.16 Z" id="Fill-39"></path>
                            </g>
                        </g>
                    </g>
                </g>
            </g>
        </g>
    </g>
</svg>