<svg xmlns="http://www.w3.org/2000/svg" width="88" height="88" viewBox="0 0 88 88">
    <defs>
        <style>
            .cls-1{fill:rgba(0,77,116,.1)}.cls-2{fill:#526373}
        </style>
    </defs>
    <g id="ic_guest" transform="translate(-891 -239)">
        <circle id="Ellipse_1" cx="44" cy="44" r="44" class="cls-1" data-name="Ellipse 1" transform="translate(891 239)"/>
        <g id="Group_254" data-name="Group 254" transform="translate(1029 288)">
            <path id="Path_37130" d="M-56.195-.45a13.942 13.942 0 0 0-6.822-5.539A10.225 10.225 0 0 0-60-13.421c0-5.25-3.584-9.506-8.006-9.506s-8.005 4.256-8.005 9.506a10.221 10.221 0 0 0 3.025 7.431 14.107 14.107 0 0 0-5.791 4.131 1 1 0 0 0 .129 1.409 1 1 0 0 0 .639.232 1 1 0 0 0 .77-.361 12.076 12.076 0 0 1 6.351-3.983A6.864 6.864 0 0 0-68-3.914a6.878 6.878 0 0 0 2.886-.647A11.947 11.947 0 0 1-57.88.629a1 1 0 0 0 .843.461.988.988 0 0 0 .537-.158 1 1 0 0 0 .305-1.382zM-68-5.915c-3.31 0-6-3.367-6-7.506s2.694-7.5 6-7.5 6 3.366 6 7.5-2.691 7.506-6 7.506z" class="cls-2" data-name="Path 37130"/>
            <path id="Path_37131" d="M-109.26-1.859a14.107 14.107 0 0 0-5.791-4.131 10.221 10.221 0 0 0 3.021-7.431c0-5.25-3.584-9.506-8.005-9.506s-8.006 4.256-8.006 9.506a10.225 10.225 0 0 0 3.021 7.432 13.942 13.942 0 0 0-6.822 5.539 1 1 0 0 0 .3 1.382.987.987 0 0 0 .542.158 1 1 0 0 0 .844-.461 11.947 11.947 0 0 1 7.236-5.19 6.878 6.878 0 0 0 2.886.647 6.864 6.864 0 0 0 2.886-.648A12.076 12.076 0 0 1-110.8-.579a1 1 0 0 0 .77.361 1 1 0 0 0 .639-.232 1 1 0 0 0 .131-1.409zm-10.775-4.056c-3.311 0-6-3.367-6-7.506s2.693-7.5 6-7.5 6 3.366 6 7.5-2.69 7.506-6 7.506z" class="cls-2" data-name="Path 37131"/>
            <path id="Path_37132" d="M-86.9-2.512C-83.35-6.3-81-12.648-81-19c0-10-5-14-13-14s-13 4-13 14a25.985 25.985 0 0 0 4.662 15h-.007c.016.022.035.041.052.062a16.67 16.67 0 0 0 1.193 1.419c-.038.008-.075.02-.113.028-.463.1-.923.212-1.378.344-.246.07-.486.152-.728.232-.219.072-.437.149-.653.229q-.873.321-1.7.718c-.042.02-.085.037-.127.058a21.72 21.72 0 0 0-.958.5l-.174.1a19.94 19.94 0 0 0-10.094 17.372.987.987 0 0 0 .7.939 31.805 31.805 0 0 0 22.315 9.061A31.8 31.8 0 0 0-71.706 18a.99.99 0 0 0 .7-.94A19.943 19.943 0 0 0-86.9-2.512zM-94-31c7.5 0 11 3.813 11 12 0 5.939-2.208 11.657-5.281 15h-.007c-.232.252-.469.5-.712.724v.012A7.493 7.493 0 0 1-94-1c-5.654 0-11-8.748-11-18 0-8.187 3.5-12 11-12zm-12.026 53.567a29.982 29.982 0 0 1-8.98-6.063 18.138 18.138 0 0 1 .582-4.02l8.4 4.2zm23.015-10.5a1 1 0 0 0-1 1v10.3a30.079 30.079 0 0 1-10.006 1.7 30.08 30.08 0 0 1-10.007-1.7v-10.3a1 1 0 0 0-1-1 1 1 0 0 0-1 1v1.382l-7.779-3.887a17.918 17.918 0 0 1 6.989-8.618c.025-.013.053-.02.078-.035.268-.172.542-.335.819-.492l.116-.067c.29-.162.584-.317.883-.462l.036-.017c.526-.255 1.067-.48 1.616-.682.186-.069.372-.135.562-.2.223-.074.447-.149.674-.215.4-.115.813-.218 1.228-.306.145-.031.29-.057.435-.085.389-.073.783-.132 1.181-.18.062.046.126.086.188.13v-.012A8.735 8.735 0 0 0-94 1a8.8 8.8 0 0 0 5.165-1.8 17.908 17.908 0 0 1 14.6 11.358l-7.772 3.884v-1.38a1 1 0 0 0-1.004-1zm1 10.5v-5.886l8.388-4.192a18.082 18.082 0 0 1 .592 4.014 29.966 29.966 0 0 1-8.98 6.064z" class="cls-2" data-name="Path 37132"/>
        </g>
    </g>
</svg>
