<?xml version="1.0" encoding="UTF-8"?>
<svg width="20px" height="20px" viewBox="0 0 20 20" version="1.1" xmlns="http://www.w3.org/2000/svg" xmlns:xlink="http://www.w3.org/1999/xlink">
    <!-- Generator: sketchtool 41.2 (35397) - http://www.bohemiancoding.com/sketch -->
    <title>461C3B98-A99B-4D03-95E1-6CB2994BD32C</title>
    <desc>Created with sketchtool.</desc>
    <defs></defs>
    <g id="Page-1" stroke="none" stroke-width="1" fill="none" fill-rule="evenodd">
        <g id="Luminati-PM" transform="translate(-1186.000000, -274.000000)" fill="#D1D8DE">
            <g id="Group-8" transform="translate(-779.000000, -22.000000)">
                <g id="Luminati-proxy-manager-new" transform="translate(0.000000, 135.000000)">
                    <g id="Group-7" transform="translate(0.000000, 9.000000)">
                        <g id="Actions" transform="translate(1890.000000, 151.000000)">
                            <g id="Time" transform="translate(75.000000, 1.000000)">
                                <path d="M10.03,0.42 C4.93,0.42 0.8,4.55 0.8,9.64 C0.8,14.74 4.93,18.87 10.03,18.87 C15.12,18.87 19.25,14.74 19.25,9.64 C19.25,4.55 15.12,0.42 10.03,0.42 Z M10.03,2.68 C13.87,2.68 16.99,5.8 16.99,9.64 C16.99,13.48 13.87,16.61 10.03,16.61 C6.19,16.61 3.06,13.48 3.06,9.64 C3.06,5.8 6.19,2.68 10.03,2.68 L10.03,2.68 Z" id="Fill-35"></path>
                                <polygon id="Fill-36" points="8.7 9.87 10.21 9.87 10.21 4.55 8.7 4.55"></polygon>
                                <polyline id="Fill-37" points="8.71 10.44 8.71 8.93 14.89 8.92 14.9 10.43 8.71 10.44"></polyline>
                            </g>
                        </g>
                    </g>
                </g>
            </g>
        </g>
    </g>
</svg>