<svg xmlns="http://www.w3.org/2000/svg" id="prefix__ic_howto_lpm" width="24" height="24" viewBox="0 0 24 24">
    <path id="prefix__Rectangle_31" d="M0 0H24V24H0z" data-name="Rectangle 31" style="fill:none"/>
    <g id="prefix__Group_3982" data-name="Group 3982">
        <path id="prefix__Path_52017" d="M12 3a6.716 6.716 0 0 0-1.4.14 6.991 6.991 0 0 0-3.26 12.08A1.945 1.945 0 0 1 8 16.69V19a2.006 2.006 0 0 0 2 2h.28a1.979 1.979 0 0 0 3.44 0H14a2.006 2.006 0 0 0 2-2v-2.31a1.939 1.939 0 0 1 .64-1.46A6.992 6.992 0 0 0 12 3zm2 16h-4v-1h4zm0-2h-4v-1h4zm-3-2l1-4-3-1 4-5-1 4 3 1z" data-name="Path 52017" style="fill:#526373"/>
    </g>
</svg>
