<?xml version="1.0" encoding="UTF-8"?>
<svg width="18px" height="18px" viewBox="0 0 18 18" version="1.1" xmlns="http://www.w3.org/2000/svg" xmlns:xlink="http://www.w3.org/1999/xlink">
    <!-- Generator: sketchtool 41.2 (35397) - http://www.bohemiancoding.com/sketch -->
    <title>498AB580-1724-426D-8ACB-56D577CE52DC</title>
    <desc>Created with sketchtool.</desc>
    <defs></defs>
    <g id="Page-1" stroke="none" stroke-width="1" fill="none" fill-rule="evenodd">
        <g id="Luminati-PM" transform="translate(-751.000000, -132.000000)" fill="#212C33">
            <g id="PLUS" transform="translate(751.000000, 132.000000)">
                <path d="M9.91,15.62 L9.49,15.62 C9.08,15.62 8.75,15.29 8.75,14.89 L8.75,2.32 C8.75,1.91 9.08,1.58 9.49,1.58 L9.91,1.58 C10.31,1.58 10.64,1.91 10.64,2.32 L10.64,14.89 C10.64,15.29 10.31,15.62 9.91,15.62" id="Fill-22"></path>
                <path d="M9.91,15.62 L9.49,15.62 C9.08,15.62 8.75,15.29 8.75,14.89 L8.75,2.32 C8.75,1.91 9.08,1.58 9.49,1.58 L9.91,1.58 C10.31,1.58 10.64,1.91 10.64,2.32 L10.64,14.89 C10.64,15.29 10.31,15.62 9.91,15.62" id="Fill-22" transform="translate(9.695000, 8.600000) rotate(-270.000000) translate(-9.695000, -8.600000) "></path>
            </g>
        </g>
    </g>
</svg>