<?xml version="1.0" encoding="UTF-8"?>
<svg width="11px" height="11px" viewBox="0 0 11 11" version="1.1" xmlns="http://www.w3.org/2000/svg" xmlns:xlink="http://www.w3.org/1999/xlink">
    <!-- Generator: sketchtool 41.2 (35397) - http://www.bohemiancoding.com/sketch -->
    <title>24956A43-E280-4EE2-849D-DCA17DD7C3EE</title>
    <desc>Created with sketchtool.</desc>
    <defs></defs>
    <g id="Page-1" stroke="none" stroke-width="1" fill="none" fill-rule="evenodd">
        <g id="Luminati-PM-history-popup-details" transform="translate(-1489.000000, -130.000000)" fill="#4D4D4D">
            <g id="TOP" transform="translate(82.000000, 88.000000)">
                <g id="Button/Small/Default" transform="translate(1396.000000, 29.000000)">
                    <g id="Refresh" transform="translate(11.000000, 13.000000)">
                        <path d="M10.3522222,0.617222222 L6.77722222,0.617222222 L6.77722222,4.19222222 L8.09111111,2.87833333 C8.745,3.47722222 9.16055556,4.36944444 9.16055556,5.38388889 C9.16055556,6.93611111 8.14611111,8.24388889 6.77722222,8.78166667 L6.77722222,10.0344444 C8.8,9.49666667 10.3522222,7.65111111 10.3522222,5.445 C10.3522222,4.13111111 9.81444444,2.93944444 8.92222222,2.10833333 L10.3522222,0.617222222 Z M0.817666667,5.38388889 C0.817666667,6.69777778 1.353,7.88944444 2.2495,8.72055556 L0.817666667,10.1505556 L4.39327778,10.1505556 L4.39327778,6.57555556 L3.08122222,7.88944444 C2.42672222,7.29055556 2.01116667,6.39833333 2.01116667,5.38388889 C2.01116667,3.83777778 3.02316667,2.52388889 4.39327778,1.98611111 L4.39327778,0.794444444 C2.36561111,1.33222222 0.817666667,3.17777778 0.817666667,5.38388889 L0.817666667,5.38388889 Z" id="Fill-19"></path>
                    </g>
                </g>
            </g>
        </g>
    </g>
</svg>
