<?xml version="1.0" encoding="UTF-8"?>
<svg width="18px" height="18px" viewBox="0 0 18 18" version="1.1" xmlns="http://www.w3.org/2000/svg" xmlns:xlink="http://www.w3.org/1999/xlink">
    <!-- Generator: sketchtool 41.2 (35397) - http://www.bohemiancoding.com/sketch -->
    <title>B395AA2A-B05A-45B1-BFB2-B59B7019700E</title>
    <desc>Created with sketchtool.</desc>
    <defs></defs>
    <g id="Page-1" stroke="none" stroke-width="1" fill="none" fill-rule="evenodd">
        <g id="Luminati-PM" transform="translate(-56.000000, -132.000000)" fill="#1A1918">
            <g id="Group-2" transform="translate(47.000000, 124.000000)">
                <g id="Refresh" transform="translate(9.000000, 8.000000)">
                    <path d="M16.94,1.01 L11.09,1.01 L11.09,6.86 L13.24,4.71 C14.31,5.69 14.99,7.15 14.99,8.81 C14.99,11.35 13.33,13.49 11.09,14.37 L11.09,16.42 C14.4,15.54 16.94,12.52 16.94,8.91 C16.94,6.76 16.06,4.81 14.6,3.45 L16.94,1.01 Z M1.338,8.81 C1.338,10.96 2.214,12.91 3.681,14.27 L1.338,16.61 L7.189,16.61 L7.189,10.76 L5.042,12.91 C3.971,11.93 3.291,10.47 3.291,8.81 C3.291,6.28 4.947,4.13 7.189,3.25 L7.189,1.3 C3.871,2.18 1.338,5.2 1.338,8.81 L1.338,8.81 Z" id="Fill-19"></path>
                </g>
            </g>
        </g>
    </g>
</svg>