<?xml version="1.0" encoding="UTF-8"?>
<svg width="16px" height="17px" viewBox="0 0 16 17" version="1.1" xmlns="http://www.w3.org/2000/svg" xmlns:xlink="http://www.w3.org/1999/xlink">
    <!-- Generator: sketchtool 41.2 (35397) - http://www.bohemiancoding.com/sketch -->
    <title>9F77431D-E4CE-47F7-B90B-2B2C9F60A477</title>
    <desc>Created with sketchtool.</desc>
    <defs>
        <polygon id="path-1" points="1.60954442e-05 12.1557464 11.98685 12.1557464 11.98685 0.0121557464 1.60954442e-05 0.0121557464 1.60954442e-05 12.1557464"></polygon>
    </defs>
    <g id="Page-1" stroke="none" stroke-width="1" fill="none" fill-rule="evenodd">
        <g id="Luminati-PM-tooltip-with-errors" transform="translate(-285.000000, -809.000000)">
            <g id="Group-13" transform="translate(-780.000000, -22.000000)">
                <g id="Table2" transform="translate(0.000000, 492.000000)">
                    <g id="stop" transform="translate(1065.000000, 339.000000)">
                        <g id="Group-3" transform="translate(2.000000, 2.038493)">
                            <mask id="mask-2" fill="white">
                                <use xlink:href="#path-1"></use>
                            </mask>
                            <g id="Clip-2"></g>
                            <path d="M5.982685,12.1532342 C5.224835,12.1532342 4.466885,12.1586537 3.709185,12.147207 C3.599235,12.1455862 3.462835,12.0913412 3.385235,12.0136964 C2.289085,10.9170961 1.199785,9.81340498 0.114235,8.70596584 C0.052285,8.64275595 0.005285,8.5326958 0.004935,8.4442121 C-0.001565,6.87505718 -0.001815,5.30595292 0.005335,3.736798 C0.005785,3.64071696 0.055535,3.5210335 0.122485,3.45260678 C1.213235,2.33848197 2.309185,1.22962466 3.409535,0.125173799 C3.471885,0.0626223536 3.581835,0.0174434961 3.669885,0.0170383045 C5.218885,0.0105552398 6.767935,0.0104539419 8.316935,0.0170383045 C8.404135,0.0174434961 8.512335,0.0656612902 8.574935,0.128314033 C9.664735,1.21949487 10.751435,2.31391724 11.829535,3.41694993 C11.916235,3.50568687 11.978235,3.66209081 11.979035,3.78754824 C11.989335,5.32286966 11.989185,6.85829238 11.980135,8.3936138 C11.979435,8.51172714 11.920485,8.65881167 11.838885,8.74253437 C10.773835,9.83498143 9.702335,10.9210467 8.623185,11.9992108 C8.535735,12.0866309 8.380885,12.1451304 8.256135,12.1473589 C7.498535,12.1607809 6.740535,12.1540952 5.982685,12.1540952 L5.982685,12.1532342 Z" id="Fill-1" fill="#D8393C" mask="url(#mask-2)"></path>
                            <path d="M4.199385,5.55829102 C4.169985,5.55778453 4.140585,5.55727804 4.111235,5.5568222 C4.106135,5.47841763 4.096685,5.40001307 4.096685,5.32165915 C4.096435,4.65491646 4.099735,3.98817377 4.098285,3.32148173 C4.097385,2.92393818 3.881435,2.67545446 3.547935,2.67874664 C3.218635,2.68198817 2.993635,2.93913286 2.992035,3.3231025 C2.989835,3.85476446 2.990235,4.38647706 2.993585,4.91813902 C3.001235,6.15012392 2.973335,7.38388153 3.030485,8.61358723 C3.096335,10.0314537 4.133885,11.081457 5.561635,11.273923 C6.830685,11.4450151 8.100535,10.6248061 8.544335,9.34384369 C8.786985,8.64352075 9.024135,7.9412225 9.264285,7.23993723 C9.512685,6.51484696 9.765435,5.79117486 10.008935,5.06436252 C10.119585,4.73418206 10.004285,4.57382751 9.663985,4.57772747 C9.182485,4.58324821 8.803285,4.7636091 8.624985,5.25125712 C8.494985,5.60676206 8.373785,5.96560982 8.242385,6.32055761 C8.219735,6.38179219 8.165585,6.43102296 8.125985,6.48582512 C8.094285,6.41780359 8.038035,6.35074439 8.035285,6.28150728 C8.024885,6.02036133 8.031935,5.75845564 8.032435,5.49685385 C8.034585,4.34909814 8.037785,3.20134244 8.038135,2.05358673 C8.038235,1.69676493 7.874935,1.44519163 7.600735,1.36314034 C7.180185,1.23727771 6.807685,1.54907261 6.805835,2.04224137 C6.801985,3.09715756 6.806335,4.15207375 6.805935,5.2069393 C6.805935,5.28873734 6.795485,5.37048474 6.789885,5.45223213 C6.759235,5.45045942 6.728535,5.4486867 6.697835,5.44686334 C6.697835,5.24249486 6.697535,5.03807572 6.697885,4.83370723 C6.699785,3.66062706 6.703535,2.48754688 6.703035,1.3144667 C6.702885,0.904412857 6.472335,0.64686298 6.114335,0.642405873 C5.753685,0.637898117 5.496685,0.912010199 5.486035,1.31406151 C5.483785,1.398392 5.485985,1.48287444 5.486485,1.56725558 C5.493135,2.76545763 5.500285,3.96371033 5.505635,5.16196304 C5.505885,5.22745212 5.491235,5.2930425 5.483535,5.35858223 C5.458335,5.35620173 5.433135,5.35382123 5.407885,5.35149138 C5.407885,5.25617007 5.407785,5.16084876 5.407935,5.06552745 C5.409235,4.01061126 5.413985,2.95569506 5.410085,1.90077887 C5.408735,1.5421337 5.177785,1.28752146 4.859085,1.26366581 C4.535835,1.23940497 4.254085,1.47912642 4.203585,1.82830023 C4.190385,1.91946833 4.193235,2.01347277 4.193835,2.10610969 C4.200485,3.16082328 4.208585,4.21553688 4.214735,5.27025048 C4.215285,5.36623022 4.204735,5.46226062 4.199385,5.55829102" id="Fill-4" fill="#FFFFFF" mask="url(#mask-2)"></path>
                        </g>
                    </g>
                </g>
            </g>
        </g>
    </g>
</svg>

