<?xml version="1.0" encoding="UTF-8"?>
<svg width="18px" height="18px" viewBox="0 0 18 18" version="1.1" xmlns="http://www.w3.org/2000/svg" xmlns:xlink="http://www.w3.org/1999/xlink">
    <!-- Generator: sketchtool 41.2 (35397) - http://www.bohemiancoding.com/sketch -->
    <title>7A282D86-2EBF-467B-8E2B-68B144A28CAA</title>
    <desc>Created with sketchtool.</desc>
    <defs></defs>
    <g id="Page-1" stroke="none" stroke-width="1" fill="none" fill-rule="evenodd">
        <g id="Luminati-PM" transform="translate(-182.000000, -232.000000)">
            <g id="states" transform="translate(181.000000, 232.000000)">
                <g id="Fine" transform="translate(1.000000, 0.000000)">
                    <path d="M16.15,9.18 C16.15,13.6 12.57,17.18 8.15,17.18 C3.73,17.18 0.15,13.6 0.15,9.18 C0.15,4.76 3.73,1.18 8.15,1.18 C12.57,1.18 16.15,4.76 16.15,9.18" id="Fill-82" fill="#4CA16A"></path>
                    <path d="M8.15,18.18 C3.73,18.18 0.15,14.6 0.15,10.18 C0.15,5.76 3.73,2.18 8.15,2.18 C12.57,2.18 8.15,6.72013672 8.15,11.1401367 C8.15,15.5601367 12.57,18.18 8.15,18.18 Z" id="Fill-82" fill="#FFFFFF" opacity="0.147384511"></path>
                </g>
            </g>
        </g>
    </g>
</svg>