<?xml version="1.0" encoding="UTF-8"?>
<svg width="18px" height="18px" viewBox="0 0 18 18" version="1.1" xmlns="http://www.w3.org/2000/svg" xmlns:xlink="http://www.w3.org/1999/xlink">
    <!-- Generator: sketchtool 41.2 (35397) - http://www.bohemiancoding.com/sketch -->
    <title>D0570111-5A0D-4A52-BBE1-48B0E2C32F10</title>
    <desc>Created with sketchtool.</desc>
    <defs></defs>
    <g id="Page-1" stroke="none" stroke-width="1" fill="none" fill-rule="evenodd">
        <g id="Luminati-PM" transform="translate(-181.000000, -305.000000)">
            <g id="states" transform="translate(181.000000, 232.000000)">
                <g id="undefined" transform="translate(0.000000, 73.000000)">
                    <path d="M17.15,8.99 C17.15,13.41 13.57,16.99 9.15,16.99 C4.73,16.99 1.15,13.41 1.15,8.99 C1.15,4.58 4.73,0.99 9.15,0.99 C13.57,0.99 17.15,4.58 17.15,8.99" id="Fill-83" fill="#F6A623"></path>
                    <path d="M9,18 C4.58,18 1,14.42 1,10 C1,5.58 4.58,2 9,2 C13.42,2 9,6.54013672 9,10.9601367 C9,15.3801367 13.42,18 9,18 Z" id="Fill-82" fill="#FFFFFF" opacity="0.147384511"></path>
                </g>
            </g>
        </g>
    </g>
</svg>