<?xml version="1.0" encoding="UTF-8"?>
<svg width="16px" height="16px" viewBox="0 0 16 16" version="1.1" xmlns="http://www.w3.org/2000/svg" xmlns:xlink="http://www.w3.org/1999/xlink">
    <!-- Generator: sketchtool 41.2 (35397) - http://www.bohemiancoding.com/sketch -->
    <title>3B16C4A7-AF10-4B36-8193-59BE3CAEDDB8</title>
    <desc>Created with sketchtool.</desc>
    <defs></defs>
    <g id="Page-1" stroke="none" stroke-width="1" fill="none" fill-rule="evenodd">
        <g id="Luminati-PM-tooltip-with-errors" transform="translate(-285.000000, -832.000000)">
            <g id="Group-13" transform="translate(-780.000000, -22.000000)">
                <g id="Table2" transform="translate(0.000000, 492.000000)">
                    <g id="warning" transform="translate(1065.000000, 362.000000)">
                        <path d="M8.76,3.18333333 C8.72189604,3.07423659 8.61648787,3.0008446 8.49790323,3.0008446 C8.37931858,3.0008446 8.27391041,3.07423659 8.23580645,3.18333333 L2.06290323,13.4662963 C1.91822581,13.7087037 2.03564516,13.9062963 2.32290323,13.9083333 L14.5806452,13.9592593 C14.8679032,13.9592593 14.9874194,13.7555556 14.8448387,13.5192593 L8.76,3.18333333 Z" id="Shape" fill="#F6B343"></path>
                        <path d="M8.53354839,11.3518519 C8.72638719,11.3449273 8.91348745,11.4163145 9.04993818,11.5488777 C9.18638892,11.681441 9.25986952,11.8632107 9.25274194,12.0505556 C9.26902596,12.2413525 9.19896129,12.4295778 9.06082789,12.5661233 C8.92269449,12.7026688 8.73019341,12.7739908 8.53354839,12.7614815 C8.3380461,12.7699349 8.1480482,12.697321 8.01087532,12.561725 C7.87370244,12.4261291 7.8022649,12.2403128 7.81435484,12.0505556 C7.80909923,11.8637293 7.88318222,11.6830292 8.01921318,11.5508738 C8.15524414,11.4187183 8.34124336,11.346746 8.53354839,11.3518519 L8.53354839,11.3518519 Z M8.00096774,8.25962963 C7.98209677,7.84 7.96741935,7.27981481 7.96741935,7.015 C7.99301888,6.72820581 8.25053051,6.51428796 8.54612903,6.53425926 C8.83662647,6.50686924 9.09606041,6.7108606 9.12903226,6.99259259 C9.12903226,7.24518519 9.11435484,7.79518519 9.09548387,8.21481481 L9.01370968,9.92592593 C8.98225806,10.3455556 8.77048387,10.6877778 8.53983871,10.6877778 C8.30919355,10.6877778 8.09741935,10.3333333 8.06806452,9.92592593 L8.00096774,8.25962963 Z" id="Shape" fill="#FFFFFF"></path>
                    </g>
                </g>
            </g>
        </g>
    </g>
</svg>

