<?xml version="1.0" encoding="UTF-8"?>
<svg width="20px" height="20px" viewBox="0 0 20 20" version="1.1" xmlns="http://www.w3.org/2000/svg" xmlns:xlink="http://www.w3.org/1999/xlink">
    <!-- Generator: sketchtool 41.2 (35397) - http://www.bohemiancoding.com/sketch -->
    <title>8FAC1E3C-2C55-4CB7-83DD-0131C6279B7F</title>
    <desc>Created with sketchtool.</desc>
    <defs></defs>
    <g id="Page-1" stroke="none" stroke-width="1" fill="none" fill-rule="evenodd">
        <g id="Luminati-PM" transform="translate(-1221.000000, -238.000000)" fill="#D1D8DE">
            <g id="Group-8" transform="translate(-779.000000, -22.000000)">
                <g id="Luminati-proxy-manager-new" transform="translate(0.000000, 135.000000)">
                    <g id="Group-7" transform="translate(0.000000, 9.000000)">
                        <g id="Actions" transform="translate(1890.000000, 115.000000)">
                            <g id="Table" transform="translate(110.000000, 1.000000)">
                                <path d="M16.48,0.08 L3.93,0.08 C3.36,0.08 2.89,0.55 2.89,1.12 L2.89,18.14 C2.89,18.71 3.36,19.17 3.93,19.17 L16.48,19.17 C17.04,19.17 17.51,18.71 17.51,18.14 L17.51,1.12 C17.51,0.55 17.04,0.08 16.48,0.08 Z M4.96,17.11 L15.45,17.11 L15.45,2.15 L4.96,2.15 L4.96,17.11 Z" id="Fill-24"></path>
                                <polygon id="Fill-25" points="6.39 5.7 8.45 5.7 8.45 3.64 6.39 3.64"></polygon>
                                <polygon id="Fill-26" points="9.83 5.7 13.96 5.7 13.96 3.64 9.83 3.64"></polygon>
                                <polygon id="Fill-27" points="6.39 9.14 8.45 9.14 8.45 7.08 6.39 7.08"></polygon>
                                <polygon id="Fill-28" points="9.83 9.14 13.96 9.14 13.96 7.08 9.83 7.08"></polygon>
                                <polygon id="Fill-29" points="6.39 12.58 8.45 12.58 8.45 10.51 6.39 10.51"></polygon>
                                <polygon id="Fill-30" points="9.83 12.58 13.96 12.58 13.96 10.51 9.83 10.51"></polygon>
                                <polygon id="Fill-31" points="6.39 9.14 8.45 9.14 8.45 7.08 6.39 7.08"></polygon>
                                <polygon id="Fill-32" points="6.39 12.58 8.45 12.58 8.45 10.51 6.39 10.51"></polygon>
                                <polygon id="Fill-33" points="9.83 16.02 13.96 16.02 13.96 13.95 9.83 13.95"></polygon>
                                <polygon id="Fill-34" points="6.39 16.02 8.45 16.02 8.45 13.95 6.39 13.95"></polygon>
                            </g>
                        </g>
                    </g>
                </g>
            </g>
        </g>
    </g>
</svg>