<svg xmlns="http://www.w3.org/2000/svg" width="18" height="18" viewBox="0 0 18 18">
    <g id="prefix__ic_view_18" transform="translate(0 -2)">
        <path id="prefix__Rectangle_413" d="M0 0H18V18H0z" data-name="Rectangle 413" transform="translate(0 2)" style="fill:none"/>
        <g id="prefix__Group_3218" data-name="Group 3218" transform="translate(0 5)">
            <path id="prefix__Path_51708" d="M3.5 1.7A9.907 9.907 0 0 1 9 0a9.907 9.907 0 0 1 5.5 1.7A9.2 9.2 0 0 1 18 6a9.2 9.2 0 0 1-3.5 4.3 9.747 9.747 0 0 1-11 0A9.2 9.2 0 0 1 0 6a9.2 9.2 0 0 1 3.5-4.3zm2.7 7.1a3.867 3.867 0 0 0 5.6 0A3.784 3.784 0 0 0 13 6a3.784 3.784 0 0 0-1.2-2.8A3.631 3.631 0 0 0 9 2a3.784 3.784 0 0 0-2.8 1.2A3.784 3.784 0 0 0 5 6a3.784 3.784 0 0 0 1.2 2.8zm1-4.6A2.41 2.41 0 0 1 9 3.5 2.4 2.4 0 0 1 11.5 6 2.4 2.4 0 0 1 9 8.5 2.4 2.4 0 0 1 6.5 6a2.41 2.41 0 0 1 .7-1.8z" data-name="Path 51708" style="fill:#526373"/>
        </g>
    </g>
</svg>
