<?xml version="1.0" encoding="utf-8"?>
<!-- Generator: Adobe Illustrator 22.1.0, SVG Export Plug-In . SVG Version: 6.00 Build 0)  -->
<svg version="1.1" id="Layer_1" xmlns:sketch="http://www.bohemiancoding.com/sketch/ns"
	 xmlns="http://www.w3.org/2000/svg" xmlns:xlink="http://www.w3.org/1999/xlink" x="0px" y="0px" viewBox="0 0 161.2 30"
	 style="enable-background:new 0 0 161.2 30;" xml:space="preserve">
<style type="text/css">
	.st0{fill:#3023AE;}
</style>
<title>import-logo-white</title>
<desc>Created with Sketch.</desc>
<g id="Page-1" sketch:type="MSPage">
	<g id="import-logo-100px" sketch:type="MSLayerGroup">
		<path id="Shape" sketch:type="MSShapeGroup" class="st0" d="M51.1,23.9c-1.8,0-3.3-0.7-4.2-1.4V30h-4.8V7.2h4.7v1.2
			c0.9-0.8,2.4-1.6,4.3-1.6c4.5,0,8.2,3.3,8.2,8.6C59.2,20.6,55.6,23.9,51.1,23.9L51.1,23.9z M50.6,19.7c2.2,0,3.8-1.7,3.8-4.3
			s-1.6-4.3-3.8-4.3s-3.8,1.7-3.8,4.3S48.5,19.7,50.6,19.7L50.6,19.7z"/>
		<path id="Shape_1_" sketch:type="MSShapeGroup" class="st0" d="M152.5,6.3c4.9,0,8.7,3.7,8.7,8.6s-3.8,8.5-8.7,8.5
			c-4.9,0-8.7-3.6-8.7-8.5S147.6,6.3,152.5,6.3L152.5,6.3z M152.5,19c2.2,0,3.8-1.7,3.8-4.2s-1.6-4.2-3.8-4.2
			c-2.2,0-3.8,1.7-3.8,4.2C148.7,17.3,150.3,19,152.5,19L152.5,19z"/>
		<path id="Shape_2_" sketch:type="MSShapeGroup" class="st0" d="M72.7,6.3c4.9,0,8.7,3.7,8.7,8.6s-3.8,8.5-8.7,8.5
			c-4.9,0-8.7-3.6-8.7-8.5S67.8,6.3,72.7,6.3L72.7,6.3z M72.7,19c2.2,0,3.8-1.7,3.8-4.2s-1.6-4.2-3.8-4.2c-2.2,0-3.8,1.7-3.8,4.2
			C68.9,17.3,70.4,19,72.7,19L72.7,19z"/>
		<path id="Shape_3_" sketch:type="MSShapeGroup" class="st0" d="M123.6,17.7c1.6,0,2.9,1.3,2.9,2.9s-1.3,2.9-2.9,2.9
			c-1.6,0-2.9-1.3-2.9-2.9S122,17.7,123.6,17.7L123.6,17.7z"/>
		<path id="Shape_4_" sketch:type="MSShapeGroup" class="st0" d="M0,0h4.8v4.5H0V0L0,0z M0,7h4.8v16.4H0V7L0,7z"/>
		<path id="Shape_5_" sketch:type="MSShapeGroup" class="st0" d="M134.5,0h4.8v4.5h-4.8V0L134.5,0z M134.5,7h4.8v16.4h-4.8V7
			L134.5,7z"/>
		<path id="Shape_6_" sketch:type="MSShapeGroup" class="st0" d="M90.8,23.4H86V7h9.4v4.4h-4.7L90.8,23.4L90.8,23.4L90.8,23.4z"/>
		<path id="Shape_7_" sketch:type="MSShapeGroup" class="st0" d="M103.6,23.4V11.5h-2.8V7.1h2.8V2.5h5.1V7h4.3v4.4h-4.7V19h4.5v4.4
			L103.6,23.4L103.6,23.4z"/>
		<path id="Shape_8_" sketch:type="MSShapeGroup" class="st0" d="M35.9,23.4h-4.8V11.5h-5.3v12h-4.8v-12h-5.3v12H11V7.1h24.9V23.4
			L35.9,23.4z"/>
	</g>
</g>
</svg>
