<?xml version="1.0" encoding="utf-8"?>
<!-- Generator: Adobe Illustrator 22.1.0, SVG Export Plug-In . SVG Version: 6.00 Build 0)  -->
<svg version="1.1" id="Layer_1" xmlns="http://www.w3.org/2000/svg" xmlns:xlink="http://www.w3.org/1999/xlink" x="0px" y="0px"
	 viewBox="0 0 37.2 30" style="enable-background:new 0 0 37.2 30;" xml:space="preserve">
<style type="text/css">
	.st0{fill:#D32F2F;}
</style>
<title>logo-crawlera</title>
<path class="st0" d="M15.3,0.9c0.6,0.6,0.9,1.4,0.9,2.2c0,0.5-0.1,1-0.3,1.4c-0.2,0.5-0.6,0.8-1,1.1l2,2.9h3.6l1.6-2.8
	c-0.4-0.3-0.7-0.7-0.9-1.1c-0.2-0.3-0.3-0.8-0.3-1.3c0-1.8,1.4-3.1,3.1-3.1s3.1,1.4,3.1,3.1S25.7,6.4,24,6.4l0,0h-0.3L22,9.3
	l2.2,2.2l3.1-3.6l3.9-0.1c0.4-1.3,1.6-2.3,3-2.3c0.8,0,1.6,0.3,2.2,0.9c0.6,0.6,0.9,1.4,0.8,2.3c0,0.8-0.3,1.6-0.9,2.2
	c-1.1,1.1-2.9,1.2-4.1,0.3c-0.6-0.4-1-1-1.1-1.6L28,9.6l-3,3.5v4l3.1,3.6h3.1c0.2-0.6,0.6-1.2,1.1-1.6c1.2-1,3-0.8,4.1,0.3
	c1.2,1.2,1.2,3.2,0,4.4c-1.1,1.1-2.9,1.2-4.1,0.3c-0.5-0.4-0.9-1-1.1-1.6h-3.4l-0.4-0.1L24,18.7l-2,1.9l1.7,2.9l0.3-0.1
	c0.8,0,1.6,0.3,2.2,1s0.9,1.4,0.9,2.3c0,1.8-1.4,3.1-3.1,3.1c-1.8,0-3.1-1.4-3.1-3.1c0-0.5,0.1-1,0.3-1.4c0.2-0.5,0.5-0.8,0.9-1.1
	l-1.7-2.9h-3.5l-2,2.9c0.4,0.3,0.7,0.7,1,1.1c0.2,0.5,0.3,1,0.3,1.5c0,1.8-1.4,3.1-3.1,3.1S10,28.6,10,26.9c0-1.8,1.4-3.1,3.1-3.1
	l0,0h0.2l2.1-3.2l-2.1-2.1L10,22.3l-0.4,0.1H6.1c-0.2,0.6-0.6,1.2-1.1,1.6c-0.5,0.4-1.2,0.7-1.9,0.7c-0.8,0-1.6-0.3-2.2-0.9
	c-1.2-1.2-1.2-3.2,0-4.4c0.6-0.6,1.4-0.9,2.2-0.9c0.7,0,1.4,0.2,1.9,0.7c0.5,0.4,0.9,1,1.1,1.6h3.1l3.2-3.7v-3.7L9.2,9.6L6.1,9.5
	c-0.2,0.7-0.6,1.2-1.1,1.6c-0.5,0.4-1.2,0.7-1.9,0.7C1.4,11.9,0,10.4,0,8.7s1.4-3.1,3.1-3.1c1.4,0,2.6,1,3,2.3L10,8l3.1,3.7l2.3-2.3
	l-2.1-3.2l-0.2,0.1c-1.8,0-3.1-1.4-3.1-3.1c0-0.8,0.3-1.6,0.9-2.2C12.1-0.3,14.1-0.3,15.3,0.9z M2,7.7C1.8,8,1.6,8.3,1.6,8.7
	c0,0.4,0.1,0.7,0.4,1c0.3,0.3,0.6,0.4,1,0.4s0.7-0.1,1-0.4c0.3-0.3,0.4-0.6,0.4-1c0-0.4-0.1-0.7-0.4-1c-0.3-0.3-0.6-0.4-1-0.4
	S2.3,7.4,2,7.7z M2,20.4c-0.6,0.6-0.6,1.5,0,2c0.3,0.3,0.6,0.5,1,0.5c0.8,0.1,1.5-0.5,1.5-1.3c0.1-0.8-0.5-1.5-1.3-1.5
	c-0.1,0-0.2,0-0.2,0C2.7,20,2.3,20.2,2,20.4z M12.1,2.1c-0.3,0.3-0.4,0.6-0.4,1c-0.1,0.8,0.5,1.5,1.3,1.5c0.8,0.1,1.5-0.5,1.5-1.3
	c0-0.1,0-0.2,0-0.2c0-0.8-0.7-1.4-1.4-1.4C12.7,1.7,12.3,1.8,12.1,2.1L12.1,2.1z M12.1,25.8c-0.6,0.6-0.6,1.5,0,2
	c0.6,0.5,1.5,0.5,2,0c0.6-0.6,0.6-1.5,0-2C13.6,25.3,12.7,25.3,12.1,25.8z M14,13v3.8l2.8,2.8h3.8l2.8-2.8V13l-2.7-2.7h-4L14,13z
	 M23,2.2c-0.3,0.3-0.4,0.6-0.4,1c-0.1,0.8,0.5,1.5,1.3,1.5c0.8,0.1,1.5-0.5,1.5-1.3c0-0.1,0-0.2,0-0.2c0-0.8-0.6-1.4-1.4-1.4
	C23.6,1.8,23.2,2,23,2.2z M23,25.7c-0.6,0.6-0.6,1.5,0,2c0.6,0.5,1.5,0.5,2,0c0.6-0.6,0.6-1.5,0-2S23.5,25.1,23,25.7z M33.1,7.7
	c-0.3,0.3-0.5,0.6-0.4,1c0,0.4,0.1,0.7,0.4,1c0.6,0.6,1.5,0.6,2,0c0.3-0.3,0.4-0.6,0.4-1c0-0.4-0.1-0.7-0.4-1
	C34.6,7.2,33.7,7.2,33.1,7.7L33.1,7.7z M33.1,20.4c-0.6,0.6-0.6,1.5,0,2s1.5,0.6,2,0s0.6-1.5,0-2c-0.3-0.3-0.6-0.5-1-0.5
	C33.8,20,33.4,20.2,33.1,20.4L33.1,20.4z"/>
</svg>
