<?xml version="1.0" encoding="utf-8"?>
<!-- Generator: Adobe Illustrator 22.1.0, SVG Export Plug-In . SVG Version: 6.00 Build 0)  -->
<svg version="1.1" id="Layer_1" xmlns="http://www.w3.org/2000/svg" xmlns:xlink="http://www.w3.org/1999/xlink" x="0px" y="0px"
	 viewBox="0 0 83.7 30" style="enable-background:new 0 0 83.7 30;" xml:space="preserve">
<style type="text/css">
	.st0{fill:#053554;}
</style>
<title>LOGO</title>
<desc>Created with Sketch.</desc>
<g>
	<path class="st0" d="M11.8,10.9v-0.1c2.4-1.2,3.4-3.2,3.4-5.1c0-2.8-2.2-5.6-7-5.6C4,0,0.8,2.5,0.8,6.2c0,2,1.1,3.8,3.4,5v0.1
		c-2.6,1.1-4.2,3-4.2,5.8c0,3.1,2.7,6.1,8,6.1c4.8,0,8.2-2.7,8.2-6.7C16.1,13.7,14.3,11.8,11.8,10.9z M8.1,3c2.3,0,3.2,1.6,3.2,3.2
		c0,1.7-1.3,2.9-2.8,3.4C6.3,8.9,4.8,7.8,4.8,6C4.8,4.4,5.9,3,8.1,3z M8.1,20.2c-2.4,0-3.8-1.7-3.8-3.6c0-1.9,1.2-3.3,3.3-3.9
		c2.5,0.7,4.2,1.9,4.2,4.2C11.8,18.8,10.3,20.2,8.1,20.2z"/>
	<path class="st0" d="M24.5,0c-5.2,0-8.2,4.7-8.2,11.6c0,6.8,2.8,11.5,8,11.5c5.3,0,8.2-4.5,8.2-11.7C32.4,4.9,29.9,0,24.5,0z
		 M24.4,19.9c-2.3,0-3.9-2.8-3.8-8.3c0-5.6,1.5-8.4,3.8-8.4c2.5,0,3.8,3.1,3.8,8.3C28.2,16.9,26.9,19.9,24.4,19.9z"/>
	<rect x="34.2" class="st0" width="4.3" height="22.8"/>
	<path class="st0" d="M47.2,5.7c-5.4,0-8.2,4.4-8.2,9c0,5.1,3.2,8.5,8.6,8.5c2.4,0,4.4-0.5,5.9-1.1l-0.6-2.9
		c-1.3,0.5-2.7,0.8-4.6,0.8c-2.7,0-5.1-1.3-5.2-4.3h11.2c0.1-0.4,0.1-1,0.1-1.8C54.4,10.1,52.7,5.7,47.2,5.7z M43,12.6
		c0.2-1.7,1.3-4.1,3.9-4.1c2.8,0,3.5,2.5,3.5,4.1H43z"/>
	<path class="st0" d="M67.6,8.3L67.6,8.3c-0.9-1.4-2.4-2.6-4.9-2.6c-4,0-7.6,3.3-7.6,8.8c0,4.8,3,8.2,7.1,8.2c2.2,0,3.9-1,4.9-2.5
		h0.1v1.4c0,3.6-2.1,5.1-4.8,5.1c-2,0-3.8-0.7-4.9-1.3l-0.9,3.2c1.4,0.9,3.7,1.3,5.9,1.3c2.3,0,4.7-0.5,6.5-2
		c1.8-1.6,2.5-4.1,2.5-7.6v-9.5c0-2.3,0.1-3.7,0.1-4.8h-3.7L67.6,8.3z M67,15.5c0,0.5-0.1,1.1-0.2,1.5c-0.5,1.5-1.9,2.5-3.4,2.5
		c-2.7,0-4.1-2.3-4.1-5.2c0-3.4,1.8-5.5,4.1-5.5c1.8,0,3,1.2,3.4,2.7C67,12,67,12.4,67,12.8V15.5z"/>
	<path class="st0" d="M79.3,12.8c-2.1-0.8-2.9-1.3-2.9-2.3c0-1,0.8-1.8,2.3-1.8c1.5,0,2.8,0.6,3.5,1l0.8-3c-1-0.5-2.6-1-4.4-1
		c-3.9,0-6.3,2.3-6.3,5.3c0,2,1.3,3.8,4.6,4.9c2.1,0.7,2.8,1.3,2.8,2.4c0,1.1-0.8,1.9-2.7,1.9c-1.5,0-3.3-0.6-4.3-1.2L71.8,22
		c1.2,0.7,3.1,1.2,5.1,1.2c4.4,0,6.8-2.2,6.8-5.3C83.7,15.4,82.3,13.9,79.3,12.8z"/>
</g>
</svg>
