<svg xmlns="http://www.w3.org/2000/svg" width="252" height="75" viewBox="0 0 252 75">
    <g fill="none" fill-rule="nonzero" transform="translate(.438 .664)">
        <path fill="#003D5B" d="M72.698 54.603v-26.21h-7.27v32.762h24.718l-2.908-6.552zM105.412 52.419a5.605 5.605 0 0 1-3.635 2.184c-2.18 0-3.635-1.31-3.635-4.368v-10.92h-7.27v11.648c0 5.97 3.781 9.828 9.015 9.828 1.963.073 3.926-.582 5.525-1.82v1.456h7.27V39.314h-7.27V52.42zM143.87 39.096c-2.763-.146-5.235 1.31-7.197 3.058-1.745-1.893-4.217-2.985-6.761-3.058-2.036-.073-4.144 1.092-5.598 2.33l-.727-2.185h-6.543v21.114h7.27V47.323c.8-1.238 2.18-2.039 3.635-2.184 2.326 0 3.635 1.456 3.635 4.368v10.92h7.27V47.323c.872-1.238 2.18-2.039 3.634-2.184 2.327 0 3.635 1.456 3.635 4.368v10.92h7.27V48.78c.145-5.097-3.853-9.465-8.942-9.61h-.072c-.146-.073-.364-.073-.51-.073zM157.755 39.314h7.27v21.113h-7.27zM182.763 39.096a10.895 10.895 0 0 0-6.107 2.33l-.726-2.185h-6.543v21.114h7.27V47.323c1.017-1.384 2.617-2.184 4.361-2.184 2.327 0 3.635 1.456 3.635 4.368v10.92h7.27V48.051c0-6.043-3.853-8.955-9.16-8.955zM210.825 40.77c-1.672-1.092-3.563-1.601-5.525-1.601h-.146c-6.034.364-10.686 5.533-10.323 11.576.29 5.605 4.87 10.046 10.469 10.338 2.035-.146 3.925-.801 5.525-2.039V60.5h7.27V39.314h-7.27v1.456zm0 12.377c-1.018 1.456-2.618 2.257-4.362 2.184-2.763.073-5.016-2.111-5.09-4.878v-.218c0-3.64 2.182-5.824 5.09-5.824 1.744-.073 3.344.728 4.362 2.184v6.552zM235.47 54.24h-.728c-1.672-.074-2.908-1.457-2.835-3.059V45.14h7.27v-5.825h-7.27v-7.28h-7.27v7.28h-3.635v5.825h3.635v5.824c0 5.824 3.78 9.828 8.87 9.828 2.18 0 4.361-.364 6.397-1.092l-.727-5.824c-1.236.291-2.472.437-3.708.364zM243.539 39.314h7.27v21.113h-7.27z"/>
        <ellipse cx="161.39" cy="31.306" fill="#003D5B" rx="3.635" ry="3.64"/>
        <ellipse cx="247.174" cy="31.306" fill="#003D5B" rx="3.635" ry="3.64"/>
        <path fill="#00D2E6" d="M45.727 48.706c-.581-7.863-5.452-13.032-5.452-18.128 0-3.786 2.035-5.606 2.035-5.606 1.745-1.675 1.745-4.441.073-6.189-1.672-1.747-4.435-1.747-6.18-.072-1.599 1.601-1.744 4.15-.29 5.897 1.6 1.893 1.89 4.95.073 6.77-2.109 1.894-5.162 2.185-7.634.801-3.417-2.184-3.417-6.843-1.09-9.755 2.326-2.257 2.399-5.897.145-8.227-2.253-2.33-5.888-2.403-8.215-.146-2.326 2.257-2.399 5.897-.145 8.227l.145.146c3.126 2.985 1.672 8.372-2.035 10.12-1.89.946-4.144.582-5.67-.801-.873-.947-1.164-3.35-2.763-3.35-1.018 0-1.818.947-2.181 3.64C5.816 37.859.727 42.227.727 50.164c0 12.449 10.105 22.568 22.536 22.568 12.432 0 22.537-10.12 22.537-22.569 0-.51 0-.946-.073-1.456z"/>
        <ellipse cx="8.36" cy="21.113" fill="#00D2E6" rx="3.998" ry="4.004"/>
        <ellipse cx="23.263" cy="4.368" fill="#00D2E6" rx="3.635" ry="3.64"/>
        <g fill="#00AAC3" opacity=".2" transform="translate(0 .728)">
            <ellipse cx="8.36" cy="20.385" rx="3.998" ry="4.004"/>
            <path d="M17.448 17.473c0 1.602.654 3.13 1.817 4.223 3.126 2.985 1.672 8.372-2.036 10.12-1.89.946-4.143.582-5.67-.801-.945-.947-1.236-3.35-2.835-3.35-1.018 0-1.818.947-2.181 3.64C5.816 37.13.727 41.499.727 49.435c-.073 12.45 10.032 22.57 22.464 22.642h.072V11.65c-3.198 0-5.815 2.62-5.815 5.824zM19.628 3.64c0 2.039 1.6 3.64 3.635 3.64V0a3.602 3.602 0 0 0-3.635 3.64z"/>
        </g>
        <g fill="#004D74" opacity=".15" transform="translate(5.816 42.226)">
            <path d="M31.987 8.736c0 8.009-6.543 14.561-14.54 14.561-7.996 0-14.54-6.552-14.54-14.56H0c0 9.682 7.779 17.472 17.448 17.472 9.668 0 17.447-7.79 17.447-17.473h-2.908z"/>
            <ellipse cx="9.087" cy="4.368" rx="3.271" ry="4.368"/>
            <ellipse cx="25.808" cy="4.368" rx="3.271" ry="4.368"/>
        </g>
        <path fill="#003D5B" d="M37.803 49.507c0 8.008-6.543 14.56-14.54 14.56-7.996 0-14.54-6.552-14.54-14.56H5.817c0 9.683 7.779 17.473 17.447 17.473 9.67 0 17.448-7.79 17.448-17.473h-2.908z"/>
        <ellipse cx="14.903" cy="45.139" fill="#003D5B" rx="3.271" ry="4.368"/>
        <ellipse cx="31.624" cy="45.139" fill="#003D5B" rx="3.271" ry="4.368"/>
        <g fill="#FFF" opacity=".3">
            <path d="M35.986 31.379c-2.109 1.893-5.235 2.184-7.634.728-1.526-.947-2.544-2.549-2.69-4.369-.29 2.33.727 4.587 2.69 5.825 2.4 1.456 5.525 1.165 7.634-.728a4.241 4.241 0 0 0 1.163-3.859c-.073.947-.51 1.747-1.163 2.403zM45.727 48.706c-.581-7.572-5.089-12.595-5.452-17.473v.8c0 5.097 4.943 10.266 5.525 18.13 0-.51 0-.947-.073-1.457zM43.546 22.57a4.336 4.336 0 0 0-3.926-4.733c-2.18-.218-4.143 1.238-4.652 3.276a5.386 5.386 0 0 0 0 1.53c.436-2.403 2.617-3.932 5.016-3.568 1.817.29 3.271 1.674 3.562 3.494zM17.157 32.543c-1.89.947-4.144.583-5.67-.8-.873-.947-1.164-3.35-2.763-3.35-1.018 0-1.818.947-2.181 3.64C5.816 37.859.727 42.227.727 50.164v.873c.29-7.572 5.089-11.867 5.816-17.546.363-2.694 1.163-3.64 2.18-3.64 1.6 0 1.89 2.402 2.763 3.349a5.23 5.23 0 0 0 5.67.8c2.545-1.237 4-3.93 3.708-6.77-.29 2.257-1.672 4.295-3.707 5.314zM29.007 18.93c.436-3.204-1.818-6.116-5.017-6.553-3.198-.437-6.106 1.82-6.542 5.023a5.386 5.386 0 0 0 0 1.53c.363-3.204 3.271-5.534 6.397-5.17 2.763.364 4.87 2.475 5.162 5.17zM8.36 18.565c1.89 0 3.562 1.383 3.926 3.276.436-2.111-.945-4.222-3.053-4.66h-.146c-2.18-.436-4.216 1.02-4.652 3.204-.073.51-.073.947 0 1.456.363-1.893 2.035-3.276 3.925-3.276zM23.263 2.184c1.745 0 3.2 1.238 3.563 2.912A3.694 3.694 0 0 0 23.99.801c-1.962-.437-3.853.873-4.289 2.84-.073.509-.073.946 0 1.455.364-1.674 1.818-2.912 3.562-2.912z"/>
        </g>
        <path fill="#004D74" d="M23.263 71.348c-12.14 0-22.1-9.537-22.536-21.696v.583c0 12.45 10.105 22.57 22.536 22.57 12.432 0 22.537-10.12 22.537-22.57v-.583c-.436 12.159-10.396 21.696-22.537 21.696z" opacity=".15"/>
    </g>
</svg>
