<?xml version="1.0" encoding="utf-8"?>
<!-- Generator: Adobe Illustrator 22.0.0, SVG Export Plug-In . SVG Version: 6.00 Build 0)  -->
<svg version="1.1" id="Layer_1" xmlns="http://www.w3.org/2000/svg" xmlns:xlink="http://www.w3.org/1999/xlink" x="0px" y="0px"
	 viewBox="0 0 191.1 40" style="enable-background:new 0 0 191.1 40;" xml:space="preserve">
<style type="text/css">
	.st0{fill:#00D2E6;}
	.st1{opacity:0.4;fill:#004D74;enable-background:new    ;}
	.st2{opacity:0.2;}
	.st3{fill:#00AAC3;}
	.st4{opacity:0.15;}
	.st5{fill:#004D74;}
	.st6{fill:#003D5B;}
	.st7{opacity:0.3;}
	.st8{fill:#FFFFFF;}
</style>
<path id="Proxy_manager" class="st0" d="M34.4,34.2v-2.8h1.1c0.2,0,0.5,0,0.7,0.1c0.2,0.1,0.3,0.2,0.5,0.3c0.1,0.1,0.2,0.3,0.3,0.4
	c0.1,0.2,0.1,0.4,0.1,0.6c0,0.4-0.1,0.8-0.4,1.1c-0.3,0.3-0.7,0.4-1.2,0.4L34.4,34.2L34.4,34.2z M32.7,30.1v8.3h1.7v-2.9h1.1
	c0.5,0,1-0.1,1.4-0.2c0.4-0.1,0.7-0.3,1-0.6c0.3-0.2,0.5-0.5,0.6-0.9c0.1-0.4,0.2-0.7,0.2-1.1c0-0.4-0.1-0.7-0.2-1.1
	c-0.1-0.3-0.3-0.6-0.6-0.8c-0.3-0.3-0.6-0.4-1-0.6c-0.5-0.1-1-0.2-1.5-0.2L32.7,30.1L32.7,30.1z M41.3,34v-2.6h0.9
	c0.4,0,0.8,0.1,1.2,0.3c0.3,0.2,0.4,0.6,0.4,0.9c0,0.2,0,0.4-0.1,0.5c-0.1,0.2-0.2,0.3-0.3,0.4c-0.1,0.1-0.3,0.2-0.5,0.3
	C42.7,34,42.5,34,42.2,34H41.3L41.3,34z M44.3,35.4c-0.1-0.1-0.2-0.2-0.3-0.3c-0.1-0.1-0.2-0.2-0.3-0.2c0.3-0.1,0.5-0.2,0.7-0.4
	c0.2-0.1,0.4-0.3,0.5-0.5c0.1-0.2,0.3-0.4,0.3-0.7c0.1-0.3,0.1-0.5,0.1-0.8c0-0.3-0.1-0.7-0.2-1c-0.1-0.3-0.3-0.6-0.6-0.8
	c-0.3-0.2-0.6-0.4-1-0.5c-0.5-0.1-1-0.2-1.5-0.2h-2.6v8.3h1.7v-3.2h0.6c0.1,0,0.2,0,0.3,0.1c0.1,0.1,0.2,0.1,0.2,0.2l1.6,2.5
	c0.1,0.2,0.4,0.3,0.6,0.3h1.5L44.3,35.4z M54.5,32.6c-0.2-0.5-0.5-1-0.9-1.3c-0.4-0.4-0.8-0.7-1.3-0.9c-1.1-0.4-2.3-0.4-3.5,0
	c-0.5,0.2-1,0.5-1.3,0.9c-0.4,0.4-0.7,0.8-0.9,1.3c-0.4,1.1-0.4,2.3,0,3.4c0.2,0.5,0.5,1,0.9,1.3c0.4,0.4,0.8,0.7,1.3,0.9
	c1.1,0.4,2.3,0.4,3.5,0c1-0.4,1.8-1.2,2.2-2.2C54.9,34.9,54.9,33.7,54.5,32.6L54.5,32.6z M52.9,35.4c-0.1,0.3-0.3,0.6-0.5,0.9
	c-0.2,0.2-0.5,0.4-0.8,0.6c-0.7,0.3-1.4,0.3-2.1,0c-0.3-0.1-0.6-0.3-0.8-0.6c-0.2-0.3-0.4-0.6-0.5-0.9c-0.2-0.8-0.2-1.6,0-2.3
	c0.1-0.3,0.3-0.6,0.5-0.9c0.2-0.2,0.5-0.4,0.8-0.6c0.7-0.3,1.4-0.3,2.1,0c0.3,0.1,0.6,0.3,0.8,0.6c0.2,0.3,0.4,0.6,0.5,0.9
	C53.1,33.9,53.1,34.7,52.9,35.4L52.9,35.4z M59.9,34.1l2.6-4h-1.6c-0.1,0-0.1,0-0.2,0.1c-0.1,0-0.1,0.1-0.2,0.2L59,33
	c0,0-0.1,0.1-0.1,0.1c0,0,0,0.1-0.1,0.1l-1.8-2.9c0-0.1-0.1-0.1-0.1-0.1c-0.1,0-0.2-0.1-0.2,0H55l2.6,4l-2.7,4.3h1.6
	c0.1,0,0.2,0,0.3-0.1c0.1-0.1,0.1-0.1,0.2-0.2l1.7-2.8c0,0,0-0.1,0.1-0.1c0,0,0-0.1,0.1-0.1l1.8,3.1c0,0.1,0.1,0.1,0.2,0.2
	c0.1,0.1,0.2,0.1,0.3,0.1h1.7L59.9,34.1z M70.6,30.1h-1.5c-0.1,0-0.3,0-0.4,0.1c-0.1,0.1-0.2,0.2-0.2,0.3l-1.3,2.6
	c-0.1,0.2-0.2,0.3-0.2,0.5c-0.1,0.2-0.1,0.3-0.2,0.5c-0.1-0.2-0.1-0.3-0.2-0.5s-0.2-0.3-0.2-0.5L65,30.5c0-0.1-0.1-0.2-0.2-0.3
	c-0.1-0.1-0.2-0.1-0.4-0.1h-1.5l3,5.1v3.2h1.7v-3.2L70.6,30.1z M81.8,30.1c-0.1,0-0.1,0-0.2,0c-0.1,0-0.1,0-0.1,0c0,0-0.1,0-0.1,0.1
	c0,0-0.1,0.1-0.1,0.2L79,34.8c-0.1,0.1-0.1,0.3-0.2,0.4s-0.1,0.3-0.2,0.4c-0.1-0.1-0.1-0.3-0.2-0.4c-0.1-0.1-0.1-0.3-0.2-0.4
	l-2.3-4.4c0-0.1-0.1-0.1-0.1-0.2c0,0-0.1-0.1-0.1-0.1c0,0-0.1,0-0.2,0c-0.1,0-0.1,0-0.2,0H74v8.3h1.5v-5.1c0-0.1,0-0.2,0-0.3
	s0-0.3,0-0.4l2.4,4.5c0.1,0.2,0.3,0.4,0.6,0.4h0.2c0.3,0,0.5-0.1,0.6-0.4l2.4-4.5c0,0.1,0,0.3,0,0.4c0,0.1,0,0.2,0,0.3v5.1h1.5v-8.3
	L81.8,30.1L81.8,30.1z M86.8,35.3l0.9-2.5c0.1-0.1,0.1-0.3,0.2-0.5s0.1-0.4,0.2-0.6c0.1,0.2,0.1,0.4,0.2,0.6
	c0.1,0.2,0.1,0.3,0.2,0.5l0.9,2.5H86.8L86.8,35.3z M88.9,30.1h-1.7l-3.2,8.3h1.3c0.1,0,0.3,0,0.4-0.1c0.1-0.1,0.2-0.2,0.2-0.3
	l0.6-1.6h3.3l0.6,1.6c0,0.1,0.1,0.2,0.2,0.3c0.1,0.1,0.2,0.1,0.4,0.1h1.3L88.9,30.1z M98.4,30.1v4.7c0,0.1,0,0.3,0,0.4s0,0.3,0,0.4
	l-4.1-5.3c0,0-0.1-0.1-0.1-0.1c0,0-0.1-0.1-0.1-0.1c0,0-0.1,0-0.1,0c-0.1,0-0.1,0-0.2,0h-0.9v8.3h1.5v-4.8c0-0.1,0-0.2,0-0.4
	s0-0.3,0-0.4l4.1,5.3c0.1,0.1,0.2,0.2,0.3,0.2c0.1,0,0.2,0.1,0.3,0.1h0.9v-8.3L98.4,30.1L98.4,30.1z M103.5,35.3l0.9-2.5
	c0.1-0.1,0.1-0.3,0.2-0.5s0.1-0.4,0.2-0.6c0.1,0.2,0.1,0.4,0.2,0.6c0.1,0.2,0.1,0.3,0.2,0.5l0.9,2.5H103.5z M105.6,30.1h-1.7
	l-3.2,8.3h1.3c0.1,0,0.3,0,0.4-0.1c0.1-0.1,0.2-0.2,0.2-0.3l0.6-1.6h3.3l0.6,1.6c0,0.1,0.1,0.2,0.2,0.3c0.1,0.1,0.2,0.1,0.4,0.1h1.3
	L105.6,30.1z M113.3,35.1c0,0.1,0,0.2,0.1,0.2c0.1,0.1,0.2,0.1,0.3,0.1h0.9v1.4c-0.2,0.1-0.4,0.2-0.6,0.2c-0.6,0.1-1.2,0.1-1.8-0.1
	c-0.3-0.1-0.6-0.3-0.8-0.6c-0.2-0.3-0.4-0.6-0.5-0.9c-0.1-0.4-0.2-0.8-0.2-1.2c0-0.4,0.1-0.8,0.2-1.2c0.1-0.3,0.3-0.6,0.5-0.9
	c0.2-0.2,0.5-0.4,0.8-0.6c0.3-0.1,0.7-0.2,1-0.2c0.2,0,0.4,0,0.6,0c0.2,0,0.3,0.1,0.5,0.1c0.1,0,0.3,0.1,0.4,0.2
	c0.1,0.1,0.3,0.1,0.4,0.2c0.1,0.1,0.3,0.1,0.4,0.1c0.1,0,0.2-0.1,0.3-0.2l0.5-0.8c-0.2-0.2-0.4-0.3-0.6-0.4
	c-0.2-0.1-0.4-0.3-0.7-0.3c-0.3-0.1-0.5-0.2-0.8-0.2c-0.3-0.1-0.6-0.1-1-0.1c-0.6,0-1.2,0.1-1.8,0.3c-0.5,0.2-1,0.5-1.4,0.9
	c-0.4,0.4-0.7,0.8-0.9,1.3c-0.2,0.5-0.3,1.1-0.3,1.7c0,0.6,0.1,1.2,0.3,1.7c0.2,0.5,0.5,1,0.9,1.3c0.4,0.4,0.9,0.7,1.4,0.9
	c0.6,0.2,1.2,0.3,1.8,0.3c0.5,0,1-0.1,1.5-0.2c0.5-0.1,0.9-0.4,1.3-0.7v-3.4h-2.8L113.3,35.1L113.3,35.1z M122.8,31.5v-1.3h-5.2v8.3
	h5.2v-1.3h-3.5v-2.2h2.7v-1.3h-2.7v-2.1L122.8,31.5L122.8,31.5z M125.8,34v-2.6h0.9c0.4,0,0.8,0.1,1.2,0.3c0.3,0.2,0.4,0.6,0.4,0.9
	c0,0.2,0,0.4-0.1,0.5c-0.1,0.2-0.2,0.3-0.3,0.4c-0.1,0.1-0.3,0.2-0.5,0.3c-0.2,0.1-0.5,0.1-0.7,0.1H125.8z M128.7,35.4
	c-0.1-0.1-0.2-0.2-0.3-0.3c-0.1-0.1-0.2-0.2-0.3-0.2c0.3-0.1,0.5-0.2,0.7-0.4c0.2-0.1,0.4-0.3,0.5-0.5c0.1-0.2,0.3-0.4,0.3-0.7
	c0.2-0.6,0.2-1.2-0.1-1.8c-0.1-0.3-0.3-0.6-0.6-0.8c-0.3-0.2-0.6-0.4-1-0.5c-0.5-0.1-1-0.2-1.5-0.2h-2.6v8.3h1.7v-3.2h0.6
	c0.1,0,0.2,0,0.3,0.1c0.1,0.1,0.2,0.1,0.2,0.2l1.6,2.5c0.1,0.2,0.4,0.3,0.6,0.3h1.5L128.7,35.4z"/>
<path id="_V1.68.880_copy" class="st1" d="M136.3,40h1.1V29.6h-1.1V40z"/>
<g id="Layer_2_2_">
	<g id="Layer_1-2_1_">
		<path class="st0" d="M24.5,26.1c-0.3-4.3-3-7.1-3-9.8c0-2.1,1.1-3,1.1-3c0.9-0.9,0.9-2.4,0-3.4c-0.9-0.9-2.4-0.9-3.4,0
			c-0.9,0.9-0.9,2.3-0.2,3.2c0.9,1,1,2.7,0,3.7c-1.1,1-2.8,1.2-4.2,0.4c-1.9-1.2-1.9-3.7-0.6-5.3c1.3-1.2,1.3-3.2,0.1-4.5
			S11.3,6.1,10,7.3s-1.3,3.2-0.1,4.5c0,0,0,0,0.1,0.1c1.7,1.6,0.9,4.5-1.1,5.5c-0.9,0.5-2.3,0.4-3.1-0.4C5.4,16.3,5.2,15,4.4,15
			c-0.6,0-1,0.5-1.2,2C2.8,20.2,0,22.6,0,26.9c0,6.8,5.5,12.3,12.3,12.3s12.3-5.5,12.3-12.3C24.5,26.6,24.5,26.3,24.5,26.1z"/>
		<circle class="st0" cx="4.2" cy="11.1" r="2.2"/>
		<circle class="st0" cx="12.3" cy="2" r="2"/>
		<g class="st2">
			<circle class="st3" cx="4.2" cy="11.1" r="2.2"/>
			<path class="st3" d="M9.1,9.5c0,0.9,0.4,1.7,1,2.3c1.7,1.6,0.9,4.5-1.1,5.5c-0.9,0.5-2.3,0.4-3.1-0.4C5.4,16.3,5.2,15,4.4,15
				c-0.6,0-1,0.5-1.2,2C2.8,20.2,0,22.6,0,26.9c0,6.8,5.5,12.3,12.2,12.3c0,0,0,0,0,0V6.3C10.5,6.3,9.1,7.8,9.1,9.5z"/>
			<path class="st3" d="M10.3,2c0,1.1,0.9,2,2,2V0C11.2,0,10.3,0.9,10.3,2z"/>
		</g>
		<g class="st4">
			<path class="st5" d="M20.2,27.3c0,4.4-3.6,7.9-7.9,7.9s-7.9-3.6-7.9-7.9H2.8c0,5.3,4.2,9.5,9.5,9.5s9.5-4.2,9.5-9.5H20.2z"/>
			<ellipse class="st5" cx="7.7" cy="24.9" rx="1.8" ry="2.4"/>
			<ellipse class="st5" cx="16.8" cy="24.9" rx="1.8" ry="2.4"/>
		</g>
		<path class="st6" d="M20.2,26.5c0,4.4-3.6,7.9-7.9,7.9s-7.9-3.6-7.9-7.9H2.8c0,5.3,4.2,9.5,9.5,9.5s9.5-4.2,9.5-9.5H20.2z"/>
		<ellipse class="st6" cx="7.7" cy="24.1" rx="1.8" ry="2.4"/>
		<ellipse class="st6" cx="16.8" cy="24.1" rx="1.8" ry="2.4"/>
		<g class="st7">
			<path class="st8" d="M19.2,16.7c-1.1,1-2.8,1.2-4.2,0.4c-0.8-0.5-1.4-1.4-1.5-2.4c-0.2,1.3,0.4,2.5,1.5,3.2
				c1.3,0.8,3,0.6,4.2-0.4c0.6-0.6,0.8-1.3,0.6-2.1C19.8,15.9,19.5,16.3,19.2,16.7z"/>
			<path class="st8" d="M24.5,26.1c-0.3-4.1-2.8-6.8-3-9.5c0,0.2,0,0.3,0,0.4c0,2.8,2.7,5.6,3,9.8c0,0.2,0,0.3,0,0.5
				c0-0.2,0-0.3,0-0.5C24.5,26.6,24.5,26.3,24.5,26.1z"/>
			<path class="st8" d="M23.3,11.9c0.2-1.3-0.6-2.5-1.9-2.7c-1.3-0.2-2.5,0.6-2.7,1.9c0,0.3,0,0.6,0,0.8c0.2-1.3,1.5-2.1,2.7-1.9
				C22.3,10.1,23.1,10.9,23.3,11.9z"/>
			<path class="st8" d="M8.9,17.3c-0.9,0.5-2.3,0.4-3.1-0.4C5.4,16.3,5.2,15,4.4,15c-0.6,0-1,0.5-1.2,2C2.8,20.2,0,22.6,0,26.9
				c0,0.2,0,0.3,0,0.5c0.2-4.1,2.8-6.4,3.2-9.5c0.2-1.5,0.6-2,1.2-2c0.9,0,1,1.3,1.5,1.8c0.8,0.8,2.1,0.9,3.1,0.4
				c1.4-0.7,2.2-2.1,2-3.7C10.8,15.6,10,16.7,8.9,17.3z"/>
			<path class="st8" d="M15.4,9.9c0.2-1.7-1-3.3-2.7-3.6s-3.3,1-3.6,2.7c0,0.3,0,0.6,0,0.8c0.2-1.7,1.8-3,3.6-2.7
				C14.1,7.4,15.2,8.5,15.4,9.9z"/>
			<path class="st8" d="M4.2,9.7c1,0,1.9,0.8,2.1,1.8c0.2-1.2-0.6-2.3-1.7-2.5S2.2,9.5,2,10.7c0,0.2,0,0.5,0,0.8
				C2.2,10.4,3.1,9.7,4.2,9.7z"/>
			<path class="st8" d="M12.3,0.8c0.9,0,1.7,0.7,1.9,1.6c0.2-1.1-0.5-2.1-1.5-2.3s-2.1,0.5-2.3,1.5c0,0.3,0,0.5,0,0.8
				C10.5,1.5,11.3,0.8,12.3,0.8z"/>
		</g>
		<g class="st4">
			<path class="st5" d="M12.3,38.4c-6.6,0-12-5.2-12.3-11.8c0,0.1,0,0.2,0,0.3c0,6.8,5.5,12.3,12.3,12.3s12.3-5.5,12.3-12.3
				c0-0.1,0-0.2,0-0.3C24.3,33.2,18.9,38.4,12.3,38.4z"/>
		</g>
	</g>
</g>
<g>
	<polygon class="st6" points="35.8,20.9 35.8,7.1 32,7.1 32,24.3 45,24.3 43.5,20.9 	"/>
	<path class="st6" d="M53,19.7c-0.5,0.6-1.1,1-1.9,1.1c-1.1,0-1.9-0.7-1.9-2.3v-5.7h-3.8V19c0,3.1,2,5.2,4.7,5.2c1,0,2.1-0.3,2.9-1
		v0.8h3.8V12.9H53V19.7z"/>
	<path class="st6" d="M73.2,12.8c-1.5-0.1-2.8,0.7-3.8,1.6c-0.9-1-2.2-1.6-3.6-1.6c-1.1,0-2.2,0.6-2.9,1.2l-0.4-1.1h-3.4v11.1h3.8
		v-6.8c0.4-0.6,1.1-1.1,1.9-1.1c1.2,0,1.9,0.8,1.9,2.3v5.7h3.8v-6.9c0.5-0.6,1.1-1.1,1.9-1.1c1.2,0,1.9,0.8,1.9,2.3v5.7h3.8v-6.1
		c0.1-2.7-2-5-4.7-5C73.4,12.8,73.3,12.8,73.2,12.8z"/>
	<rect x="80.5" y="12.9" class="st6" width="3.8" height="11.1"/>
	<path class="st6" d="M93.7,12.8c-1.2,0.1-2.3,0.5-3.2,1.2l-0.4-1.1h-3.4v11.1h3.8v-6.8c0.5-0.7,1.4-1.1,2.3-1.1
		c1.2,0,1.9,0.8,1.9,2.3v5.7h3.8v-6.5C98.5,14.3,96.5,12.8,93.7,12.8z"/>
	<path class="st6" d="M108.4,13.6c-0.9-0.6-1.9-0.8-2.9-0.8h-0.1c-3.1,0.2-5.5,2.8-5.4,5.8c0,3.1,2.4,5.6,5.5,5.7
		c1-0.1,2.1-0.4,2.9-1.1V24h3.8V12.9h-3.8L108.4,13.6L108.4,13.6z M108.4,20.1c-0.6,0.7-1.1,1.1-2.3,1.1c-1.5,0-2.6-1.1-2.7-2.6
		c0,0,0-0.1,0-0.1c0-1.9,1.1-3.1,2.7-3.1c1.1,0,1.7,0.5,2.3,1.1V20.1z"/>
	<path class="st6" d="M121.4,20.7H121c-0.9,0-1.6-0.8-1.5-1.7v0v-3.1h3.8v-3.1h-3.8V9h-3.8v3.8h-1.9v3.1h1.9V19c0,3.1,2,5.2,4.7,5.2
		c1.1,0,2.3-0.2,3.4-0.6l-0.4-3.1C122.7,20.7,122,20.7,121.4,20.7z"/>
	<rect x="125.6" y="12.9" class="st6" width="3.8" height="11.1"/>
	<circle class="st6" cx="82.4" cy="8.7" r="1.9"/>
	<ellipse class="st6" cx="127.5" cy="8.7" rx="1.9" ry="1.9"/>
</g>
</svg>
