<svg id="Layer_1" data-name="Layer 1" xmlns="http://www.w3.org/2000/svg" viewBox="0 0 30 30"><defs><style>.cls-1{fill:#526373;}</style></defs><title>ic_logs</title><path class="cls-1" d="M29,0H3A1,1,0,0,0,2,1V5H1A1,1,0,0,0,1,7H2v4H1a1,1,0,0,0,0,2H2v4H1a1,1,0,0,0,0,2H2v4H1a1,1,0,0,0,0,2H2v4a1,1,0,0,0,1,1H29a1,1,0,0,0,1-1V1A1,1,0,0,0,29,0ZM28,28H4V25H5a1,1,0,0,0,0-2H4V19H5a1,1,0,0,0,0-2H4V13H5a1,1,0,0,0,0-2H4V7H5A1,1,0,0,0,5,5H4V2H28Z"/><path class="cls-1" d="M9,25H24a1,1,0,0,0,1-1V6a1,1,0,0,0-1-1H19a1,1,0,0,0-1,1v4H14a1,1,0,0,0-1,1v5H9a1,1,0,0,0-1,1v7A1,1,0,0,0,9,25ZM20,7h3V23H20V7Zm-5,5h3V23H15V12Zm-5,6h3v5H10Z"/></svg>
