<svg xmlns="http://www.w3.org/2000/svg" viewBox="0 0 16 16"><defs><style>.cls-1{fill:#00d2e6;}.cls-2{opacity:0.2;}.cls-3{fill:#00aac3;}.cls-4{opacity:0.15;}.cls-5{fill:#004d74;}.cls-6{fill:#003d5b;}.cls-7{opacity:0.3;}.cls-8{fill:#fff;}.cls-9{fill:none;}</style></defs><title>lum_logo_short</title><g id="Layer_2" data-name="Layer 2"><g id="Layer_1-2" data-name="Layer 1"><g id="Layer_2-2" data-name="Layer 2"><g id="Layer_1-2-2" data-name="Layer 1-2"><path class="cls-1" d="M13,10.65c-.13-1.75-1.21-2.89-1.21-4a1.7,1.7,0,0,1,.45-1.24,1,1,0,0,0,0-1.37A1,1,0,0,0,10.81,5.3a1.13,1.13,0,0,1,0,1.5A1.46,1.46,0,0,1,9.13,7a1.46,1.46,0,0,1-.24-2.16,1.29,1.29,0,1,0-1.83,0h0l0,0a1.42,1.42,0,0,1-.46,2.24,1.13,1.13,0,0,1-1.26-.18c-.19-.21-.25-.74-.61-.74s-.4.21-.48.81C4.12,8.24,3,9.21,3,11a5,5,0,1,0,10,0A1.72,1.72,0,0,0,13,10.65Z"/><circle class="cls-1" cx="4.69" cy="4.52" r="0.89"/><circle class="cls-1" cx="8" cy="0.81" r="0.81"/><g class="cls-2"><circle class="cls-3" cx="4.69" cy="4.52" r="0.89"/><path class="cls-3" d="M6.71,3.88a1.3,1.3,0,0,0,.4.94,1.42,1.42,0,0,1-.45,2.24A1.13,1.13,0,0,1,5.4,6.88c-.21-.21-.27-.74-.63-.74s-.4.21-.48.81C4.12,8.24,3,9.21,3,11a5,5,0,0,0,5,5H8V2.59A1.29,1.29,0,0,0,6.71,3.88Z"/><path class="cls-3" d="M7.19.81A.81.81,0,0,0,8,1.62V0A.81.81,0,0,0,7.19.81Z"/></g><g class="cls-4"><path class="cls-5" d="M11.23,11.15a3.23,3.23,0,0,1-6.46,0H4.12a3.88,3.88,0,0,0,7.76,0Z"/><ellipse class="cls-5" cx="6.14" cy="10.18" rx="0.73" ry="0.97"/><ellipse class="cls-5" cx="9.86" cy="10.18" rx="0.73" ry="0.97"/></g><path class="cls-6" d="M11.23,10.82a3.23,3.23,0,0,1-6.46,0H4.12a3.88,3.88,0,0,0,7.76,0Z"/><ellipse class="cls-6" cx="6.14" cy="9.85" rx="0.73" ry="0.97"/><ellipse class="cls-6" cx="9.86" cy="9.85" rx="0.73" ry="0.97"/><g class="cls-7"><path class="cls-8" d="M10.83,6.8A1.43,1.43,0,0,1,9.13,7a1.27,1.27,0,0,1-.6-1,1.34,1.34,0,0,0,.6,1.3,1.45,1.45,0,0,0,1.7-.16,1,1,0,0,0,.25-.86A.8.8,0,0,1,10.83,6.8Z"/><path class="cls-8" d="M13,10.65c-.13-1.68-1.13-2.8-1.21-3.88V7c0,1.13,1.1,2.27,1.23,4h0A1.72,1.72,0,0,0,13,10.65Z"/><path class="cls-8" d="M12.51,4.85a1,1,0,0,0-1.91-.33,1,1,0,0,0,0,.34,1,1,0,0,1,1.11-.79A1,1,0,0,1,12.51,4.85Z"/><path class="cls-8" d="M6.64,7.06a1.13,1.13,0,0,1-1.26-.18c-.19-.21-.25-.74-.61-.74s-.4.21-.48.81C4.12,8.24,3,9.21,3,11v.19c.07-1.68,1.13-2.63,1.3-3.89.08-.6.25-.81.48-.81s.42.54.61.75a1.16,1.16,0,0,0,1.26.17,1.49,1.49,0,0,0,.83-1.5A1.55,1.55,0,0,1,6.64,7.06Z"/><path class="cls-8" d="M9.28,4A1.3,1.3,0,0,0,8.16,2.59,1.28,1.28,0,0,0,6.71,3.7h0a1,1,0,0,0,0,.34A1.3,1.3,0,0,1,8.13,2.89,1.32,1.32,0,0,1,9.28,4Z"/><path class="cls-8" d="M4.69,4a.9.9,0,0,1,.87.73.88.88,0,0,0-.68-1h0a.88.88,0,0,0-1,.71h0a.91.91,0,0,0,0,.33A.9.9,0,0,1,4.69,4Z"/><path class="cls-8" d="M8,.33A.8.8,0,0,1,8.79,1,.82.82,0,0,0,8.16,0a.8.8,0,0,0-1,.63h0a.86.86,0,0,0,0,.32A.8.8,0,0,1,8,.33Z"/></g><g class="cls-4"><path class="cls-5" d="M8,15.67a5,5,0,0,1-5-4.81V11a5,5,0,0,0,10,0v-.13A5,5,0,0,1,8,15.67Z"/></g></g></g><rect class="cls-9" width="16" height="16"/></g></g></svg>
