<svg xmlns="http://www.w3.org/2000/svg" id="Layer_1" viewBox="0 0 172 36">
    <style>
        .st0{fill:#003d5b}.st1{fill:#00d2e6}.st2{opacity:.2}.st3{fill:#00aac3}.st4{opacity:.15}.st5{fill:#004d74}.st6{opacity:.3}.st7{fill:#fff}.st8{fill:#05bed1}
    </style>
    <g id="Layer_2_1_">
        <g id="Layer_1-2">
            <g id="Layer_2-2">
                <g id="Layer_1-2-2">
                    <path d="M35.9 26.9V13.8h-3.7v16.4h12.4l-1.5-3.3zM52.2 25.8c-.4.6-1.1 1-1.8 1.1-1.1 0-1.8-.6-1.8-2.2v-5.4H45v5.8c0 3 1.9 4.9 4.5 4.9 1 0 2-.3 2.8-.9v.7h3.6V19.3h-3.6v6.5zM71.3 19.2c-1.4 0-2.6.6-3.6 1.5-.9-.9-2.1-1.5-3.4-1.5-1 0-2 .5-2.8 1.2l-.4-1.1H58v10.5h3.6v-6.5c.4-.6 1.1-1 1.8-1.1 1.1 0 1.8.7 1.8 2.2v5.4h3.6v-6.5c.4-.6 1.1-1 1.8-1.1 1.2 0 1.8.7 1.8 2.2v5.4H76V24c.1-2.5-1.9-4.7-4.4-4.8h-.3zM78.2 19.3h3.6v10.5h-3.6zM90.7 19.2c-1.1.1-2.1.5-3 1.2l-.4-1.1H84v10.5h3.6v-6.5c.5-.7 1.3-1.1 2.2-1.1 1.2 0 1.8.7 1.8 2.2v5.4h3.6v-6.2c.1-3-1.9-4.4-4.5-4.4zM104.7 20c-.8-.5-1.8-.8-2.8-.8h-.1c-3 0-5.5 2.5-5.5 5.5s2.5 5.5 5.5 5.5c1-.1 2-.4 2.8-1v.7h3.6V19.3h-3.6v.7zm0 6.2c-.8 1.2-2.5 1.4-3.6.6-.6-.4-1-1.1-1.1-1.9v-.1c0-1.8 1.1-2.9 2.5-2.9.9 0 1.7.4 2.2 1.1v3.2zM117 26.7h-.4c-.8 0-1.4-.7-1.4-1.5v-3h3.6v-2.9h-3.7v-3.7h-3.6v3.6h-1.8v2.9h1.8V25c0 2.9 1.9 4.9 4.4 4.9 1.1 0 2.2-.2 3.2-.5l-.4-2.9c-.5.2-1.1.3-1.7.2zM121 19.3h3.6v10.5H121z" class="st0"/>
                    <ellipse cx="80.1" cy="15.3" class="st0" rx="1.8" ry="1.8"/>
                    <ellipse cx="122.8" cy="15.3" class="st0" rx="1.8" ry="1.8"/>
                    <path d="M22.4 24c-.3-3.9-2.7-6.5-2.7-9.1-.1-1 .3-2 1-2.8.9-.8.9-2.2.1-3.1-.8-.9-2.2-.9-3.1-.1-.8.8-.9 2.1-.2 3 .9 1 .9 2.4 0 3.4-1 .9-2.6 1.1-3.8.4-1.5-1.1-1.8-3.1-.7-4.6.1-.1.1-.2.2-.2 1.2-1.1 1.2-2.9.1-4.1s-2.9-1.2-4.1-.1-1.2 3-.1 4.1l.1.1c1.2 1.3 1.1 3.3-.2 4.5-.2.2-.5.4-.8.5-.9.5-2.1.3-2.8-.4-.5-.5-.6-1.7-1.4-1.7-.5 0-.9.5-1.1 1.8-.4 2.9-2.9 5.1-2.9 9 0 6.2 5 11.2 11.2 11.2 6.2 0 11.2-5 11.2-11.2.1-.1.1-.4 0-.6z" class="st1"/>
                    <ellipse cx="3.8" cy="10.2" class="st1" rx="2" ry="2"/>
                    <ellipse cx="11.2" cy="1.9" class="st1" rx="1.8" ry="1.8"/>
                    <g class="st2">
                        <ellipse cx="3.8" cy="10.2" class="st3" rx="2" ry="2"/>
                        <path d="M8.3 8.8c0 .8.3 1.6.9 2.1 1.2 1.3 1.1 3.3-.2 4.5-.2.2-.5.4-.8.5-.9.5-2.1.3-2.8-.4-.5-.5-.6-1.7-1.4-1.7-.5 0-.9.5-1.1 1.8-.4 2.9-2.9 5.1-2.9 9C0 30.9 5 36 11.2 36V5.9c-1.6 0-2.9 1.3-2.9 2.9zM9.4 1.9c0 1 .8 1.8 1.8 1.8V0c-1 0-1.8.8-1.8 1.9 0-.1 0-.1 0 0z" class="st3"/>
                    </g>
                    <g class="st4">
                        <path d="M18.5 25.1c.2 4-2.9 7.4-6.9 7.6-4 .2-7.4-2.9-7.6-6.9V25H2.5c0 4.8 3.9 8.7 8.7 8.7s8.7-3.9 8.7-8.7h-1.4z" class="st5"/>
                        <ellipse cx="7.1" cy="22.9" class="st5" rx="1.6" ry="2.2"/>
                        <ellipse cx="15.4" cy="22.9" class="st5" rx="1.6" ry="2.2"/>
                    </g>
                    <path d="M18.5 24.4c.2 4-2.9 7.4-6.9 7.6S4.2 29.1 4 25.1v-.8H2.5c0 4.8 3.9 8.7 8.7 8.7 4.8 0 8.7-3.9 8.7-8.7h-1.4z" class="st0"/>
                    <ellipse cx="7.1" cy="22.2" class="st0" rx="1.6" ry="2.2"/>
                    <ellipse cx="15.4" cy="22.2" class="st0" rx="1.6" ry="2.2"/>
                    <g class="st6">
                        <path d="M17.6 15.3c-1 .9-2.6 1.1-3.8.4-.8-.5-1.3-1.3-1.3-2.2-.2 1.1.4 2.3 1.3 2.9 1.2.7 2.8.6 3.8-.4.5-.5.7-1.2.6-1.9-.1.5-.3.9-.6 1.2zM22.4 24c-.3-3.8-2.5-6.3-2.7-8.7v.4c0 2.5 2.5 5.1 2.8 9 0-.2 0-.4-.1-.7zM21.3 10.9c.1-1.2-.8-2.2-1.9-2.4h-.1c-1.1-.1-2.1.6-2.3 1.6v.8c.2-1.2 1.3-2 2.5-1.8.9.2 1.7.9 1.8 1.8zM8.2 15.9c-.9.5-2.1.3-2.8-.4-.5-.5-.6-1.7-1.4-1.7-.5 0-.9.5-1.1 1.8-.4 2.9-2.9 5.1-2.9 9v.4c.2-3.8 2.5-5.9 2.9-8.8.2-1.2.6-1.6 1.1-1.6.8 0 .9 1.2 1.4 1.7.8.7 1.9.8 2.8.4 1.3-.6 2-2 1.8-3.4-.1 1.1-.8 2.1-1.8 2.6zM14.1 9.1c.3-1.6-.7-3.1-2.3-3.4S8.7 6.5 8.4 8v1.1c.1-1.6 1.5-2.8 3.1-2.6 1.4.1 2.5 1.2 2.6 2.6zM3.8 8.9c1 0 1.8.7 2 1.6.2-1-.5-2-1.6-2.3-1.1-.1-2.1.6-2.3 1.6v.7c.1-.9.9-1.6 1.9-1.6zM11.2.8c.9 0 1.6.6 1.8 1.5.2-1-.4-2-1.4-2.2-1-.2-1.9.4-2.1 1.4V2.3c.1-.9.9-1.5 1.7-1.5z" class="st7"/>
                    </g>
                    <g class="st4">
                        <path d="M11.2 35.3C5.1 35.3.2 30.5 0 24.5v.3C0 30.9 5 36 11.2 36c6.2 0 11.2-5 11.2-11.2v-.3c-.2 6-5.1 10.8-11.2 10.8z" class="st5"/>
                    </g>
                </g>
            </g>
            <path d="M131.8 32.3V17.7h1.3v14.6h-1.3zM140.2 29.9v-11h1.9v9.2h5v1.7l-6.9.1zM156.4 19.9c.8.8 1.2 1.8 1.1 2.9.1 1.1-.3 2.2-1.2 2.9-1 .7-2.3 1-3.6.9h-1.9v3.2H149V18.9h3.7c1.3-.1 2.6.3 3.7 1zm-1.3 4.5c.4-.5.6-1.1.6-1.7.1-.6-.2-1.2-.7-1.6-.7-.4-1.4-.5-2.2-.5h-1.9V25h2.2c.6.1 1.4-.1 2-.6zM161.5 29.9h-1.9v-11h2.9l3.3 6.9 3.3-6.9h2.9v11h-1.9v-8.6l-3.8 7.6h-1l-3.8-7.6v8.6z" class="st8"/>
        </g>
    </g>
</svg>
