<svg width="20" height="20" viewBox="0 0 20 20" fill="none" xmlns="http://www.w3.org/2000/svg">
<path fill-rule="evenodd" clip-rule="evenodd" d="M10.9655 14.2938C10.9666 14.2938 10.9677 14.2938 10.9687 14.2938C11.3131 14.2938 11.4093 14.2938 12.7524 12.1825L15.3937 12.5563C15.8687 13.9688 16.475 15.8438 16.875 17.0938L14.75 16.1188C14.6611 16.0728 14.5625 16.0488 14.4625 16.0488C14.3624 16.0488 14.2638 16.0728 14.175 16.1188L11.0937 17.9313C8.49372 16.0938 8.39372 16.0938 8.16872 16.0938C8.06247 16.0938 5.82497 16.2501 3.51872 16.4188L6.74997 12.6126L9.28122 12.2188C9.43206 12.4568 9.57571 12.6786 9.70639 12.8804C9.81936 13.0549 9.92264 13.2143 10.0125 13.3563L10.3687 13.9126C10.4166 14.0256 10.4966 14.1219 10.5989 14.1897C10.7011 14.2575 10.821 14.2937 10.9437 14.2938C10.9511 14.2938 10.9583 14.2938 10.9655 14.2938ZM11.0037 12.5003C10.9319 12.3872 10.8526 12.264 10.7677 12.1323C10.5901 11.8565 10.3883 11.5433 10.1812 11.2063C7.85 7.46258 7.5 5.99383 7.5 5.45008C7.50161 4.52829 7.86679 3.64435 8.51625 2.99021C9.16571 2.33608 10.047 1.96455 10.9687 1.95633C11.4308 1.9522 11.889 2.03944 12.3172 2.21302C12.7454 2.3866 13.1351 2.64309 13.4638 2.96776C13.7926 3.29244 14.0539 3.67888 14.2328 4.10488C14.4117 4.53088 14.5046 4.98804 14.5062 5.45008C14.5062 6.37861 13.5987 8.39382 12.017 10.9938C11.9502 11.0423 11.8933 11.1038 11.85 11.1751C11.5263 11.7026 11.2313 12.1554 11.0037 12.5003ZM13.4613 11.0215C14.5999 9.08207 15.7562 6.78348 15.7562 5.45008C15.7116 4.2193 15.1913 3.05382 14.3048 2.19888C13.4183 1.34394 12.2347 0.866211 11.0031 0.866211C9.77154 0.866211 8.58796 1.34394 7.70146 2.19888C6.81495 3.05382 6.29464 4.2193 6.25 5.45008C6.25 6.56023 7.00195 8.38604 8.5956 11.0598L6.33122 11.4126C6.18273 11.4353 6.04739 11.5107 5.94997 11.6251L1.57497 16.7501C1.4952 16.8439 1.44492 16.9592 1.43047 17.0816C1.41601 17.2039 1.43802 17.3277 1.49372 17.4376C1.55133 17.5506 1.64198 17.6435 1.75362 17.7038C1.86526 17.764 1.9926 17.7889 2.11872 17.7751L8.03122 17.3563C8.42497 17.5938 9.63122 18.4251 10.7 19.1813C10.8055 19.2577 10.9322 19.2992 11.0625 19.3001C11.1703 19.3066 11.278 19.2851 11.375 19.2376L14.5 17.3626C15.8687 18.0001 17.3125 18.6813 17.5437 18.8126C17.6296 18.8717 17.7289 18.9084 17.8327 18.9193C17.9364 18.9302 18.0411 18.915 18.1375 18.8751C18.2516 18.8282 18.3493 18.7486 18.4183 18.6462C18.4872 18.5439 18.5244 18.4235 18.525 18.3001C18.525 18.1751 18.525 18.0501 16.4562 11.8001C16.42 11.689 16.3534 11.5903 16.2639 11.5152C16.1744 11.4401 16.0656 11.3915 15.95 11.3751L13.4613 11.0215ZM9.89509 6.72271C10.1962 6.92393 10.5503 7.03134 10.9125 7.03134C11.3982 7.03134 11.8639 6.8384 12.2074 6.49498C12.5508 6.15155 12.7437 5.68576 12.7437 5.20009C12.7437 4.8379 12.6363 4.48385 12.4351 4.1827C12.2339 3.88155 11.9479 3.64683 11.6133 3.50823C11.2786 3.36963 10.9104 3.33336 10.5552 3.40402C10.2 3.47468 9.87369 3.64909 9.61758 3.9052C9.36148 4.1613 9.18707 4.4876 9.11641 4.84283C9.04575 5.19805 9.08202 5.56626 9.22062 5.90088C9.35922 6.23549 9.59394 6.52149 9.89509 6.72271ZM10.5895 4.71679C10.6851 4.65293 10.7975 4.61884 10.9125 4.61884C11.0666 4.61884 11.2145 4.68007 11.3235 4.78908C11.4325 4.89809 11.4937 5.04593 11.4937 5.20009C11.4937 5.31505 11.4596 5.42743 11.3958 5.52301C11.3319 5.6186 11.2411 5.6931 11.1349 5.73709C11.0287 5.78108 10.9118 5.79259 10.7991 5.77017C10.6863 5.74774 10.5828 5.69238 10.5015 5.61109C10.4202 5.5298 10.3648 5.42623 10.3424 5.31348C10.32 5.20073 10.3315 5.08386 10.3755 4.97765C10.4195 4.87144 10.494 4.78066 10.5895 4.71679Z" fill="#889096"/>
</svg>
