<svg id="Layer_9" data-name="Layer 9" xmlns="http://www.w3.org/2000/svg" xmlns:xlink="http://www.w3.org/1999/xlink" viewBox="0 0 216.82 44.37"><defs><style>.cls-1{fill:#ffffff;}.cls-2{fill:url(#radial-gradient);}.cls-3{fill:#333;}</style><radialGradient id="radial-gradient" cx="758.46" cy="733.98" r="48.33" gradientTransform="matrix(0.88, 0, 0, -0.88, -654.16, 680.09)" gradientUnits="userSpaceOnUse"><stop offset="0.05" stop-color="#edab04"/><stop offset="0.17" stop-color="#e99000"/><stop offset="0.4" stop-color="#df5711"/><stop offset="0.63" stop-color="#c82717"/><stop offset="0.72" stop-color="#b81818"/><stop offset="0.81" stop-color="#ad1917"/><stop offset="0.9" stop-color="#a91916"/></radialGradient></defs><title>website</title><path class="cls-1" d="M101.82,27.43c0.1-.94.52-8.42,0.94-11.22a3.64,3.64,0,0,1,2.08-3.12,3.36,3.36,0,0,1,3.53.62,2.74,2.74,0,0,1,.73,2,7.34,7.34,0,0,1-.21,2.6c-0.31,1.87-2,9-2.49,10.81a3.83,3.83,0,0,1-1.14,2,1.89,1.89,0,0,1-2.08.21c-1-.42-1.25-1.45-1.35-2.49a3.54,3.54,0,0,1,0-1.35h0Zm-2,9.35a3.36,3.36,0,0,1,1.56-3.43,3.27,3.27,0,0,1,4.16.83,3.12,3.12,0,0,1,.1,3.84,3.06,3.06,0,0,1-1.87,1,2.44,2.44,0,0,1-1.14.21A3.21,3.21,0,0,1,99.85,36.78Z"/><path class="cls-1" d="M83.54,36.78a4.87,4.87,0,0,1-1.77-3.95,4.72,4.72,0,0,1,1.87-3.74c1.35-1,2.7-1,4.47-1s2.39,0,4.05-.1l1.25-.1v-0.1a2.88,2.88,0,0,0-.1-0.94c-0.1-.73-1.66-1.77-3.43-1.56a6.13,6.13,0,0,0-2.08.94c-3,1.56-4.05-1.66-3.12-2.81a5.45,5.45,0,0,1,4.05-2,12.86,12.86,0,0,1,4.88.52,7,7,0,0,1,3.84,2.29c1,1.25,1,3,.94,4.57-0.21,1.77-.73,3.53-1,5.3a21.72,21.72,0,0,0-.1,2.6A3.45,3.45,0,0,1,96.94,39a2.34,2.34,0,0,1-3.74,0c-0.31-.52-0.62-1-0.94-1.66a9.49,9.49,0,0,1-5.19,1A8.58,8.58,0,0,1,83.54,36.78Zm3.32-3.84a1.73,1.73,0,0,0,1.66,1.77,3.6,3.6,0,0,0,3-.73,5,5,0,0,0,1.25-2.7c-1.25.1-3.32,0.1-3.84,0.1C88.31,31.59,87,31.79,86.86,32.94Z"/><path class="cls-1" d="M74.08,20.47A16.91,16.91,0,0,1,74,18a2.53,2.53,0,0,1,2.29-2.49A2.66,2.66,0,0,1,79,17.56c0.1,0.62.1,1.66,0.21,2.49,0,0,1.25,15,1.25,15.58a2.8,2.8,0,0,1-2.29,3.12c-2.29.1-2.7-1.66-2.91-2.7Z"/><path class="cls-1" d="M72.31,31.27c-0.52,2.7-1.66,5.09-4.16,6.44a9.13,9.13,0,0,1-8.21-.1,8.39,8.39,0,0,1-3.12-2.91c-0.83-1.45-1-2.29-1-4.68A9.06,9.06,0,0,1,59.33,23c2.29-1.66,5.61-1.66,8.21-.73A7.76,7.76,0,0,1,71,24.83a7.42,7.42,0,0,1,1.45,4.47c0,0.94-.21,2.29-0.1,2h0Zm-4.88-.73a6,6,0,0,0-.52-3.64,3.27,3.27,0,0,0-3.53-1.14A4.22,4.22,0,0,0,61,29a6,6,0,0,0,.52,4.47,3.15,3.15,0,0,0,4.47.42A6.36,6.36,0,0,0,67.53,30a0.78,0.78,0,0,0-.1.52h0Z"/><path class="cls-1" d="M51.43,22.44a6.56,6.56,0,0,1,2,3.84c0.31,1.77.83,7.27,0.94,8.1A3.76,3.76,0,0,1,54,36.78a2.64,2.64,0,0,1-3.22,1.14c-1.45-.62-1.56-2.49-1.66-3.74-0.21-1.87-.31-3.64-0.52-5.4-0.21-1.45-.52-3.32-2.29-3.22a3.16,3.16,0,0,0-2.7,2.08,8.25,8.25,0,0,0-.1,2.29c0.1,0.94.42,4.26,0.52,5.09a11.93,11.93,0,0,1,.1,2,2.66,2.66,0,0,1-2.49,2.29A2.36,2.36,0,0,1,40,38.65a4.36,4.36,0,0,1-.94-2c-0.31-1.77-1.45-14.75-1.77-16.52a5.08,5.08,0,0,1,.1-2.49,2.43,2.43,0,0,1,1.25-1.25,2.61,2.61,0,0,1,2-.1,2.41,2.41,0,0,1,1.45,1.56,50.71,50.71,0,0,1,.73,5.51,5.68,5.68,0,0,1,1.14-1C46.24,20.88,49.46,20.68,51.43,22.44Z"/><path id="Body" class="cls-2" d="M32.42,28.36c0.21-3.12-.94-8.42-1.87-11s0.94-5.92.94-5.92-0.94.1-2.91,1.87a6.77,6.77,0,0,0-2.08,4.36C24,11.95,19,8.21,17.14,5.71S16.62,0,16.62,0C12.88,1.66,11,5.61,10.39,10.39s-3.64,6.55-3.64,6.55c-0.52-4.47-5.61-5.51-5.61-5.51,1,0.31,2.91,5.4.94,9.25A17.83,17.83,0,0,0,0,28.47c0,8.73,5.61,15.9,16.1,15.9A15.7,15.7,0,0,0,32.42,28.36Z"/><ellipse class="cls-3" cx="21.92" cy="26.39" rx="2.29" ry="3.22"/><ellipse class="cls-3" cx="10.39" cy="26.39" rx="2.29" ry="3.22"/><path class="cls-3" d="M16.1,42A11.82,11.82,0,0,1,4.16,30.34a1,1,0,0,1,1-1,1,1,0,0,1,1,1A9.82,9.82,0,0,0,16.1,40,9.76,9.76,0,0,0,26,30.34a1,1,0,0,1,1-1,1,1,0,0,1,1,1A11.75,11.75,0,0,1,16.1,42Z"/><path class="cls-1" d="M128,38.61H114.52v-18h4V35.06h8l1.69,3.18Z"/><path class="cls-1" d="M140.69,38.25h-3.86V37.49a5,5,0,0,1-3.17,1.12c-2.93,0-4.94-2-4.94-5.32v-6.6h3.86v6c0,1.65.86,2.43,2.12,2.43A3,3,0,0,0,136.83,34v-7.3h3.86V38.25Z"/><path class="cls-1" d="M162.53,32v6.6h-3.89v-6c0-1.65-.79-2.43-2.07-2.43a2.25,2.25,0,0,0-1.76,1c0,0.29,0,.57,0,0.86v6.6H151v-6c0-1.65-.81-2.43-2.07-2.43a2.19,2.19,0,0,0-1.74,1v7.39h-3.86V27h3.86v0.69a4.07,4.07,0,0,1,2.88-1,4.54,4.54,0,0,1,3.55,1.55,5.65,5.65,0,0,1,4.1-1.55C160.48,26.69,162.53,28.71,162.53,32Z"/><rect class="cls-1" x="165.16" y="27.05" width="3.86" height="11.56"/><path class="cls-1" d="M183.71,32v6.6h-3.89v-6c0-1.65-.83-2.43-2.1-2.43a3,3,0,0,0-2.15,1.17v7.25h-3.86V27h3.86v0.79a5,5,0,0,1,3.19-1.14C181.7,26.69,183.71,28.71,183.71,32Z"/><path class="cls-1" d="M198.3,38.37h-3.86V37.73a5.77,5.77,0,0,1-3.17.88,5.86,5.86,0,0,1-5.75-6,5.85,5.85,0,0,1,5.75-6,5.77,5.77,0,0,1,3.17.88V26.81h3.86V38.37Zm-3.86-4V30.79a3,3,0,0,0-2.41-1.1,2.88,2.88,0,0,0,0,5.75A3,3,0,0,0,194.44,34.36Z"/><path class="cls-1" d="M210.57,38a10.17,10.17,0,0,1-3.5.57c-2.79,0-4.65-2.05-4.65-5.17V30h-2.27V26.69h2.27V22.75h3.86v3.93h3.93V30h-3.93v3.31a1.59,1.59,0,0,0,1.81,1.74,11.53,11.53,0,0,0,2.05-.29Z"/><rect class="cls-1" x="212.96" y="27.05" width="3.86" height="11.56"/><circle class="cls-1" cx="167.09" cy="22.03" r="1.93"/><circle class="cls-1" cx="214.89" cy="22.03" r="1.93"/></svg>
