<svg width="20" height="20" viewBox="0 0 20 20" fill="none" xmlns="http://www.w3.org/2000/svg">
<path fill-rule="evenodd" clip-rule="evenodd" d="M6 0.25C4.48122 0.25 3.25 1.48122 3.25 3V16C3.25 17.5188 4.48122 18.75 6 18.75H14C15.5188 18.75 16.75 17.5188 16.75 16V3C16.75 1.48122 15.5188 0.25 14 0.25H6ZM4.75 3C4.75 2.30964 5.30964 1.75 6 1.75H14C14.6904 1.75 15.25 2.30964 15.25 3V16C15.25 16.6904 14.6904 17.25 14 17.25H6C5.30964 17.25 4.75 16.6904 4.75 16V3ZM9.94995 15.5C10.6403 15.5 11.2 14.9404 11.2 14.25C11.2 13.5596 10.6403 13 9.94995 13C9.2596 13 8.69995 13.5596 8.69995 14.25C8.69995 14.9404 9.2596 15.5 9.94995 15.5Z" fill="#889096"/>
<path fill-rule="evenodd" clip-rule="evenodd" d="M9.94995 14.5C10.088 14.5 10.2 14.3881 10.2 14.25C10.2 14.1119 10.088 14 9.94995 14C9.81188 14 9.69995 14.1119 9.69995 14.25C9.69995 14.3881 9.81188 14.5 9.94995 14.5ZM3.25 3C3.25 1.48122 4.48122 0.25 6 0.25H14C15.5188 0.25 16.75 1.48122 16.75 3V16C16.75 17.5188 15.5188 18.75 14 18.75H6C4.48122 18.75 3.25 17.5188 3.25 16V3ZM6 1.75C5.30964 1.75 4.75 2.30964 4.75 3V16C4.75 16.6904 5.30964 17.25 6 17.25H14C14.6904 17.25 15.25 16.6904 15.25 16V3C15.25 2.30964 14.6904 1.75 14 1.75H6ZM11.2 14.25C11.2 14.9404 10.6403 15.5 9.94995 15.5C9.2596 15.5 8.69995 14.9404 8.69995 14.25C8.69995 13.5596 9.2596 13 9.94995 13C10.6403 13 11.2 13.5596 11.2 14.25Z" fill="#889096"/>
</svg>
