<svg xmlns="http://www.w3.org/2000/svg" width="20" height="20">
    <path fill="#526373" fill-rule="evenodd" d="M19.5 16a.501.501 0 0 1-.5-.5V.5c0-.275.225-.5.5-.5s.5.225.5.5v15c0 .275-.225.5-.5.5zm-2 2a.501.501 0 0 1-.5-.5V.5c0-.275.225-.5.5-.5s.5.225.5.5v17c0 .275-.225.5-.5.5zm-2 2H.5a.5.5 0 0 1-.5-.5V.5A.5.5 0 0 1 .5 0h15a.5.5 0 0 1 .5.5v19a.5.5 0 0 1-.5.5zM15 1H1v18h14V1zM3.5 4a.5.5 0 0 1 0 1 .499.499 0 1 1 0-1zm0 3a.5.5 0 0 1 0 1 .5.5 0 1 1 0-1zm0 3a.5.5 0 0 1 0 1 .499.499 0 1 1 0-1zm0 3a.5.5 0 0 1 0 1 .5.5 0 1 1 0-1zm2-9h7a.5.5 0 0 1 0 1h-7a.499.499 0 1 1 0-1zm0 3h7a.5.5 0 1 1 0 1h-7a.5.5 0 1 1 0-1zm0 3h7a.5.5 0 1 1 0 1h-7a.5.5 0 1 1 0-1zm0 2.999h7a.5.5 0 0 1 0 1.001h-7a.5.5 0 1 1 0-1.001z"/>
</svg>
