<svg id="Layer_1" data-name="Layer 1" xmlns="http://www.w3.org/2000/svg" viewBox="0 0 30 30"><defs><style>.cls-1{fill:#526373;}</style></defs><title>ic_proxy_ext</title><path class="cls-1" d="M21.92,11.62h0v0a1.27,1.27,0,0,0-.18-.27l-.08-.06a.6.6,0,0,0-.21-.14l-.09,0A1,1,0,0,0,21,11H17a1,1,0,0,0,0,2h1.59l-4.3,4.29a1,1,0,0,0,0,1.42,1,1,0,0,0,1.42,0L20,14.41V16a1,1,0,0,0,2,0V12s0,0,0,0A.83.83,0,0,0,21.92,11.62Z"/><path class="cls-1" d="M29,0H1A1,1,0,0,0,0,1V29a1,1,0,0,0,1,1H29a1,1,0,0,0,1-1V1A1,1,0,0,0,29,0ZM2,28V2H28V6H5A1,1,0,0,0,5,8H28V28Z"/><circle class="cls-1" cx="26" cy="4" r="1"/><circle class="cls-1" cx="23" cy="4" r="1"/><circle class="cls-1" cx="20" cy="4" r="1"/><path class="cls-1" d="M21,19a1,1,0,0,0-1,1v2H11V13h2a1,1,0,0,0,0-2H10a1,1,0,0,0-1,1V23a1,1,0,0,0,1,1H21a1,1,0,0,0,1-1V20A1,1,0,0,0,21,19Z"/></svg>
