<svg id="Layer_1" data-name="Layer 1" xmlns="http://www.w3.org/2000/svg" viewBox="0 0 30 30"><defs><style>.cls-1{fill:#004d74;}</style></defs><title>ic_proxy_lum</title><path class="cls-1" d="M8,19H6V14a1,1,0,0,0-2,0v6a1,1,0,0,0,1,1H8a1,1,0,0,0,0-2Z"/><path class="cls-1" d="M14,13H11a1,1,0,0,0-1,1v6a1,1,0,0,0,2,0V19h2a3,3,0,0,0,0-6Zm0,4H12V15h2a1,1,0,0,1,0,2Z"/><path class="cls-1" d="M25.27,13a1,1,0,0,0-1.13.45L22,17.06l-2.14-3.57A1,1,0,0,0,18,14v6a1,1,0,0,0,2,0V17.61l1.14,1.9a1,1,0,0,0,1.72,0L24,17.61V20a1,1,0,0,0,2,0V14A1,1,0,0,0,25.27,13Z"/><path class="cls-1" d="M29,0H1A1,1,0,0,0,0,1V29a1,1,0,0,0,1,1H29a1,1,0,0,0,1-1V1A1,1,0,0,0,29,0ZM2,28V2H28V6H5A1,1,0,0,0,5,8H28V28Z"/><circle class="cls-1" cx="26" cy="4" r="1"/><circle class="cls-1" cx="23" cy="4" r="1"/><circle class="cls-1" cx="20" cy="4" r="1"/></svg>
