<svg id="Layer_1" data-name="Layer 1" xmlns="http://www.w3.org/2000/svg" viewBox="0 0 30 30"><defs><style>.cls-1{fill:#526373;}</style></defs><title>ic_headers_2</title><path class="cls-1" d="M29,2H22V1a1,1,0,0,0-1-1H9A1,1,0,0,0,8,1V2H1A1,1,0,0,0,0,3V29a1,1,0,0,0,1,1H29a1,1,0,0,0,1-1V3A1,1,0,0,0,29,2ZM10,2H20V5H10ZM28,28H2V4H8V6A1,1,0,0,0,9,7H21a1,1,0,0,0,1-1V4h6Z"/><path class="cls-1" d="M13,10a1,1,0,0,0,0,2H23a1,1,0,0,0,0-2Z"/><circle class="cls-1" cx="8" cy="11" r="2"/><path class="cls-1" d="M23,16H13a1,1,0,0,0,0,2H23a1,1,0,0,0,0-2Z"/><circle class="cls-1" cx="8" cy="17" r="2"/><path class="cls-1" d="M23,22H13a1,1,0,0,0,0,2H23a1,1,0,0,0,0-2Z"/><circle class="cls-1" cx="8" cy="23" r="2"/></svg>
