<svg xmlns="http://www.w3.org/2000/svg" width="20" height="20">
    <path fill="#A6BEC6" fill-rule="evenodd" d="M19.278 7.981l-1.312.438v8.59a.995.995 0 0 1-.722.959l-6.974 1.995a.974.974 0 0 1-.546 0L2.75 17.968a.996.996 0 0 1-.723-.959v-8.59L.716 7.981a.996.996 0 1 1-.237-1.776L9.444.22a.998.998 0 0 1 1.106 0l8.965 5.985a.998.998 0 0 1-.237 1.776zM4.02 16.257l5.977 1.71 5.977-1.71V9.084l-5.662 1.889a.972.972 0 0 1-.63 0L4.02 9.084v7.173zM9.997 2.249L3.278 6.733l6.719 2.243 6.718-2.243-6.718-4.484z"/>
</svg>
