<svg width="20" height="20" viewBox="0 0 20 20" fill="none" xmlns="http://www.w3.org/2000/svg">
<path d="M10.9147 2.13731L10.9148 2.13726L10.9129 2.13565L10.9134 2.13528L10.9048 2.12747C10.6563 1.90146 10.3324 1.77622 9.99648 1.77622C9.66056 1.77622 9.33671 1.90146 9.08819 2.12747L9.08811 2.12739L9.08476 2.13074L9.07717 2.13833L2.83571 8.03378C2.69842 8.16016 2.58881 8.31363 2.51381 8.48451C2.43873 8.65559 2.39997 8.8404 2.4 9.02724C2.4 9.02724 2.4 9.02725 2.4 9.02725V16.2499C2.4 16.6079 2.54223 16.9513 2.79541 17.2045C3.04858 17.4577 3.39196 17.5999 3.75 17.5999H16.25C16.608 17.5999 16.9514 17.4577 17.2046 17.2045C17.4578 16.9513 17.6 16.6079 17.6 16.2499V9.02725C17.6 9.02725 17.6 9.02724 17.6 9.02724C17.6 8.8404 17.5613 8.65559 17.4862 8.48451C17.4112 8.31362 17.3016 8.16014 17.1643 8.03376C17.1641 8.03361 17.1639 8.03346 17.1638 8.03331L10.9147 2.13731ZM16.1508 9.06909L16.15 16.1499H3.85V9.07064L10 3.26243L16.1508 9.06909Z" fill="#889096" stroke="#889096" stroke-width="0.2"/>
</svg>
