<svg xmlns="http://www.w3.org/2000/svg" width="30" height="30">
    <path fill="#526373" fill-rule="evenodd" d="M29 4h-3.927C28.199 6.794 30 10.725 30 15c0 8.272-6.728 15-15 15a1 1 0 1 1 0-2c7.168 0 13-5.832 13-13 0-3.88-1.722-7.434-4.685-9.869l.675 4.727a1 1 0 0 1-1.98.284l-1-7c-.006-.039.009-.076.008-.114a.972.972 0 0 1 .017-.234.99.99 0 0 1 .059-.174c.017-.04.019-.083.041-.121.017-.03.046-.048.066-.075.018-.025.023-.056.043-.079.022-.025.054-.035.077-.058a1 1 0 0 1 .334-.212.994.994 0 0 1 .243-.053C21.933 2.018 21.964 2 22 2h7a1 1 0 1 1 0 2zM15 2C7.832 2 2 7.832 2 15c0 3.88 1.722 7.435 4.686 9.87l-.676-4.728a1 1 0 0 1 1.98-.284l1 7c.005.038-.009.073-.008.11a.971.971 0 0 1-.017.24.937.937 0 0 1-.058.169c-.016.041-.019.085-.041.124-.025.043-.059.076-.088.114-.01.012-.012.028-.023.04-.006.007-.015.01-.022.017a.989.989 0 0 1-.295.221c-.021.01-.043.017-.065.026-.119.048-.243.08-.372.081H1a1 1 0 1 1 0-2h3.927A14.65 14.65 0 0 1 0 15C0 6.729 6.729 0 15 0a1 1 0 0 1 0 2z"/>
</svg>
