<svg id="Layer_1" data-name="Layer 1" xmlns="http://www.w3.org/2000/svg" viewBox="0 0 30 30"><defs><style>.cls-1{fill:#526373;}</style></defs><title>ic_ic_rules</title><path class="cls-1" d="M22,30H1a1,1,0,0,1-1-1V1A1,1,0,0,1,1,0H29a1,1,0,0,1,1,1V22a1,1,0,0,1-1,1H23v6A1,1,0,0,1,22,30ZM2,28H21V22a1,1,0,0,1,1-1h6V2H2Z"/><path class="cls-1" d="M22,30a1,1,0,0,1-.71-.29,1,1,0,0,1,0-1.42l7-7a1,1,0,0,1,1.42,1.42l-7,7A1,1,0,0,1,22,30Z"/><path class="cls-1" d="M23,10H15a1,1,0,0,1,0-2h8a1,1,0,0,1,0,2Z"/><path class="cls-1" d="M8,11a1,1,0,0,1-.71-.29l-2-2A1,1,0,1,1,6.71,7.29L8,8.59l2.29-2.3a1,1,0,1,1,1.42,1.42l-3,3A1,1,0,0,1,8,11Z"/><path class="cls-1" d="M23,17H15a1,1,0,0,1,0-2h8a1,1,0,0,1,0,2Z"/><path class="cls-1" d="M8,19a3,3,0,1,1,3-3A3,3,0,0,1,8,19Zm0-4a1,1,0,1,0,1,1A1,1,0,0,0,8,15Z"/></svg>
