<svg xmlns="http://www.w3.org/2000/svg" width="30" height="30">
    <path fill="#004D74" fill-rule="evenodd" d="M15 30C6.729 30 0 23.272 0 15 0 6.729 6.729 0 15 0s15 6.729 15 15c0 8.272-6.729 15-15 15zm0-28C7.831 2 2 7.832 2 15s5.831 13 13 13c7.168 0 13-5.832 13-13S22.168 2 15 2zm0 22a9.948 9.948 0 0 1-8.96-5.555 1 1 0 1 1 1.79-.89A7.961 7.961 0 0 0 15 22a7.959 7.959 0 0 0 7.169-4.445 1 1 0 1 1 1.791.89A9.948 9.948 0 0 1 15 24zm5-10c-1.654 0-3-1.346-3-3s1.346-3 3-3 3 1.346 3 3-1.346 3-3 3zm0-4a1.001 1.001 0 0 0 0 2 1 1 0 0 0 0-2zm-10 4c-1.654 0-3-1.346-3-3s1.346-3 3-3 3 1.346 3 3-1.346 3-3 3zm0-4a1.001 1.001 0 1 0 1 1c0-.551-.449-1-1-1z"/>
</svg>
