<svg id="Layer_1" data-name="Layer 1" xmlns="http://www.w3.org/2000/svg" viewBox="0 0 30 30"><defs><style>.cls-1{fill:#004d74;}</style></defs><title>ic_ic_sessions</title><path class="cls-1" d="M29,6H9A1,1,0,0,1,8,5V1A1,1,0,0,1,9,0H29a1,1,0,0,1,1,1V5A1,1,0,0,1,29,6ZM10,4H28V2H10Z"/><path class="cls-1" d="M29,14H9a1,1,0,0,1-1-1V9A1,1,0,0,1,9,8H29a1,1,0,0,1,1,1v4A1,1,0,0,1,29,14ZM10,12H28V10H10Z"/><path class="cls-1" d="M29,22H9a1,1,0,0,1-1-1V17a1,1,0,0,1,1-1H29a1,1,0,0,1,1,1v4A1,1,0,0,1,29,22ZM10,20H28V18H10Z"/><path class="cls-1" d="M29,30H9a1,1,0,0,1-1-1V25a1,1,0,0,1,1-1H29a1,1,0,0,1,1,1v4A1,1,0,0,1,29,30ZM10,28H28V26H10Z"/><path class="cls-1" d="M3,6A3,3,0,1,1,6,3,3,3,0,0,1,3,6ZM3,2A1,1,0,1,0,4,3,1,1,0,0,0,3,2Z"/><path class="cls-1" d="M3,14a3,3,0,1,1,3-3A3,3,0,0,1,3,14Zm0-4a1,1,0,1,0,1,1A1,1,0,0,0,3,10Z"/><path class="cls-1" d="M3,22a3,3,0,1,1,3-3A3,3,0,0,1,3,22Zm0-4a1,1,0,1,0,1,1A1,1,0,0,0,3,18Z"/><path class="cls-1" d="M3,30a3,3,0,1,1,3-3A3,3,0,0,1,3,30Zm0-4a1,1,0,1,0,1,1A1,1,0,0,0,3,26Z"/></svg>
