<?xml version="1.0" encoding="utf-8"?>
<!-- Generator: Adobe Illustrator 22.0.0, SVG Export Plug-In . SVG Version: 6.00 Build 0)  -->
<svg version="1.1" id="Layer_1" xmlns="http://www.w3.org/2000/svg" xmlns:xlink="http://www.w3.org/1999/xlink" x="0px" y="0px"
	 viewBox="0 0 20 20" style="enable-background:new 0 0 20 20;" xml:space="preserve">
<style type="text/css">
	.st0{fill:#004d74;}
</style>
<g>
	<path class="st0" d="M10,15c-0.3,0-0.5-0.2-0.5-0.5v-6C9.5,8.2,9.7,8,10,8s0.5,0.2,0.5,0.5v6C10.5,14.8,10.3,15,10,15z"/>
	<path class="st0" d="M10,15.3c-0.4,0-0.8-0.3-0.8-0.8v-6c0-0.4,0.3-0.7,0.8-0.7s0.8,0.3,0.8,0.7v6C10.8,14.9,10.4,15.3,10,15.3z
		 M10,8.2c-0.1,0-0.2,0.1-0.2,0.2v6c0,0.1,0.1,0.2,0.2,0.2s0.2-0.1,0.2-0.2v-6C10.2,8.4,10.1,8.2,10,8.2z"/>
</g>
<g>
	<circle class="st0" cx="10" cy="6" r="0.5"/>
	<path class="st0" d="M10,6.8C9.6,6.8,9.2,6.4,9.2,6S9.6,5.2,10,5.2s0.8,0.3,0.8,0.8S10.4,6.8,10,6.8z M10,5.8
		C9.9,5.8,9.8,5.9,9.8,6S9.9,6.2,10,6.2s0.2-0.1,0.2-0.2S10.1,5.8,10,5.8z"/>
</g>
<g>
	<path class="st0" d="M10,19c-5,0-9-4-9-9c0-5,4-9,9-9l0,0c5,0,9,4,9,9C19,15,15,19,10,19z M10,2c-4.4,0-8,3.6-8,8c0,4.4,3.6,8,8,8
		c4.4,0,8-3.6,8-8S14.4,2,10,2L10,2z"/>
</g>
</svg>
