<?xml version="1.0" encoding="utf-8"?>
<!-- Generator: Adobe Illustrator 17.1.0, SVG Export Plug-In . SVG Version: 6.00 Build 0)  -->
<!DOCTYPE svg PUBLIC "-//W3C//DTD SVG 1.1//EN" "http://www.w3.org/Graphics/SVG/1.1/DTD/svg11.dtd">
<svg version="1.1" xmlns="http://www.w3.org/2000/svg" xmlns:xlink="http://www.w3.org/1999/xlink" x="0px" y="0px" width="209px"
	 height="71px" viewBox="0 0 209 71" enable-background="new 0 0 209 71" xml:space="preserve">
<g id="Layer_2">
</g>
<g id="Layer_1">
	<g>
		<g>
			<g>
				<g>
					<path fill-rule="evenodd" clip-rule="evenodd" fill="#DD4B39" d="M2.7,36h203.7c1.5,0,2.7,0.8,2.7,1.8v31.4
						c0,1-1.2,1.8-2.7,1.8H2.7C1.2,71,0,70.2,0,69.2V37.8C0,36.8,1.2,36,2.7,36z"/>
				</g>
			</g>
			<g>
				<path fill="#FFFFFF" d="M18.6,62.5c-2.6,0-4.4-1.5-4.4-3.3c0-1.8,2.3-3.2,4.9-3.2c0.4,0,0.8,0.1,1.2,0.1
					c0.3,0.1,0.6,0.2,0.8,0.3c1.2,0.8,2,1.3,2.3,2.2c0.1,0.2,0.1,0.4,0.1,0.6C23.4,61.1,22.2,62.5,18.6,62.5 M19.3,51.9
					c-1.7,0-3.4-1.8-3.7-3.9c-0.3-2.1,0.9-3.7,2.6-3.7c1.7,0,3.4,1.7,3.7,3.8C22.1,50.3,21,52,19.3,51.9 M22.8,55
					c-0.6-0.4-1.8-1.4-1.8-1.9c0-0.7,0.2-1,1.3-1.8c1.1-0.8,1.9-1.9,1.9-3.2c0-1.6-0.7-3.1-2.2-3.6h1.3c0.5,0,1.1-0.2,1.5-0.5
					l0.8-0.5H19c-3,0-5.8,2.1-5.8,4.5c0,2.5,2,4.5,5.1,4.5c0.2,0,0.4,0,0.6,0c-0.2,0.3-0.3,0.7-0.3,1.2c0,0.7,0.4,1.3,0.9,1.7
					c-0.4,0-0.8,0-1.2,0c-3.7,0-6.6,2.2-6.6,4.5c0,2.2,3.1,3.6,6.8,3.6c4.2,0,6.6-2.2,6.6-4.5C25.2,57.2,24.6,56.2,22.8,55"/>
			</g>
			<g>
				<path fill="#FFFFFF" d="M37.5,66.2c-0.3,0-0.5-0.2-0.5-0.5v-26c0-0.3,0.2-0.5,0.5-0.5s0.5,0.2,0.5,0.5v26
					C38,66,37.8,66.2,37.5,66.2z"/>
			</g>
		</g>
		<g>
			<g>
				<path fill-rule="evenodd" clip-rule="evenodd" fill="#3B5998" d="M2.7,0h203.7c1.5,0,2.7,0.8,2.7,1.8v31.4c0,1-1.2,1.8-2.7,1.8
					H2.7C1.2,35,0,34.2,0,33.2V1.8C0,0.8,1.2,0,2.7,0z"/>
			</g>
			<g>
				<path fill="#FFFFFF" d="M37.5,30.2c-0.3,0-0.5-0.2-0.5-0.5v-26c0-0.3,0.2-0.5,0.5-0.5S38,3.4,38,3.7v26
					C38,30,37.8,30.2,37.5,30.2z"/>
			</g>
			<g>
				<path fill="#FFFFFF" d="M14.5,14.2h1.9v-1.9c0-0.9,0-2.2,0.6-3c0.6-0.9,1.5-1.4,2.9-1.4c2.4,0,3.4,0.4,3.4,0.4l-0.5,2.9
					c0,0-0.8-0.2-1.5-0.2c-0.7,0-1.4,0.3-1.4,1.1v2.2h3l-0.2,2.9h-2.8v10h-3.5v-10h-1.9V14.2z"/>
			</g>
		</g>
	</g>
</g>
<g id="details">
</g>
</svg>
