<svg xmlns="http://www.w3.org/2000/svg" width="30" height="30">
    <path fill="#004D74" fill-rule="evenodd" d="M7.929 6.514l2.122 2.121a1 1 0 0 1-1.414 1.414l-2.122-2.12a1.002 1.002 0 0 1 0-1.415.999.999 0 0 1 1.414 0zm2.12 13.435a.997.997 0 0 1 0 1.414l-2.12 2.122c-.391.39-1.024.39-1.415 0a.999.999 0 0 1 0-1.414l2.121-2.122a1 1 0 0 1 1.414 0zm-7.048-4.95c0-.552.447-.999.999-.999h3a1 1 0 1 1 0 2H4a1 1 0 0 1-.999-1.001zM15 30C6.729 30 0 23.272 0 15 0 6.729 6.729 0 15 0c1.725 0 3.528.359 5.36 1.067a1 1 0 1 1-.72 1.866C18.038 2.314 16.477 2 15 2 7.832 2 2 7.832 2 15s5.832 13 13 13 13-5.832 13-13c0-1.481-.306-2.999-.934-4.643a1 1 0 1 1 1.868-.714C29.642 11.493 30 13.295 30 15c0 8.272-6.728 15-15 15zm11-14h-3a1 1 0 1 1 0-2h3a1 1 0 1 1 0 2zm-4.637 3.951l2.122 2.12a1 1 0 0 1-1.414 1.415l-2.122-2.121a1 1 0 0 1 1.414-1.414zM14 7V4a1 1 0 1 1 2 0v3a1 1 0 1 1-2 0zm1.707 8.707a.997.997 0 0 1-1.413 0 .999.999 0 0 1 0-1.414l10-10a.999.999 0 1 1 1.413 1.414l-10 10z"/>
</svg>
