<svg xmlns="http://www.w3.org/2000/svg" width="20" height="20" viewBox="0 0 20 20" fill="#A6BEC6" fill-rule="evenodd"><title>ic_static_res_2</title><g id="Layer_2" data-name="Layer 2"><g id="Layer_1-2" data-name="Layer 1"><path d="M10,20a.84.84,0,0,1-.27,0l-7-2A1,1,0,0,1,2,17V8A1,1,0,0,1,4,8v8.25L10,18l6-1.71V8a1,1,0,0,1,2,0v9a1,1,0,0,1-.72,1l-7,2A.9.9,0,0,1,10,20Z"/><path fill="#A6BEC6" fill-rule="evenodd" d="M16,9a1,1,0,0,1-.95-.68,1,1,0,0,1,.63-1.27l1.06-.35L10,2.2,3.26,6.7l1.06.35A1,1,0,1,1,3.68,9l-3-1A1,1,0,0,1,0,7.13a1,1,0,0,1,.44-1l9-6a1,1,0,0,1,1.1,0l9,6a1,1,0,0,1,.44,1,1,1,0,0,1-.67.82l-3,1A1.25,1.25,0,0,1,16,9Z"/><path fill="#A6BEC6" fill-rule="evenodd" d="M13,15H7a1,1,0,0,1-1-1V10A1,1,0,0,1,7,9h6a1,1,0,0,1,1,1v4A1,1,0,0,1,13,15ZM8,13h4V11H8Z"/><path fill="#A6BEC6" fill-rule="evenodd" d="M13,11H7V8a3,3,0,0,1,6,0ZM9,9h2V8A1,1,0,0,0,9,8Z"/></g></g>
</svg>
