<svg width="20" height="20" viewBox="0 0 20 20" fill="none" xmlns="http://www.w3.org/2000/svg">
<path d="M10.9147 2.13731L10.9148 2.13726L10.9129 2.13565L10.9134 2.13528L10.9048 2.12747C10.6563 1.90146 10.3324 1.77622 9.99648 1.77622C9.66056 1.77622 9.33671 1.90146 9.08819 2.12747L9.08811 2.12739L9.08476 2.13074L9.07717 2.13833L2.83571 8.03378C2.69842 8.16016 2.58881 8.31363 2.51381 8.48451C2.43873 8.65559 2.39997 8.8404 2.4 9.02724C2.4 9.02724 2.4 9.02725 2.4 9.02725V16.2499C2.4 16.6079 2.54223 16.9513 2.79541 17.2045C3.04858 17.4577 3.39196 17.5999 3.75 17.5999H16.25C16.608 17.5999 16.9514 17.4577 17.2046 17.2045C17.4578 16.9513 17.6 16.6079 17.6 16.2499V9.02725C17.6 9.02725 17.6 9.02724 17.6 9.02724C17.6 8.8404 17.5613 8.65559 17.4862 8.48451C17.4112 8.31362 17.3016 8.16014 17.1643 8.03376C17.1641 8.03361 17.1639 8.03346 17.1638 8.03331L10.9147 2.13731ZM16.1508 9.06909L16.15 16.1499H3.85V9.07064L10 3.26243L16.1508 9.06909Z" fill="#889096" stroke="#889096" stroke-width="0.2"/>
<path d="M12.3169 12.3586C12.2909 12.6137 12.2087 12.8598 12.0763 13.0793C11.9438 13.2989 11.7644 13.4863 11.5508 13.6282C11.1182 13.9166 10.5813 14 10.0928 14C9.66675 13.9978 9.24269 13.9417 8.83068 13.8333C8.66235 13.784 8.52022 13.6703 8.43508 13.517C8.34993 13.3637 8.32862 13.183 8.37576 13.014C8.4229 12.8451 8.5347 12.7015 8.68694 12.6144C8.83918 12.5273 9.01961 12.5037 9.18914 12.5487C9.55427 12.6487 10.4354 12.7737 10.8189 12.5186C10.8931 12.4695 10.9714 12.3919 10.9973 12.191C11.0265 11.9684 10.9381 11.8492 9.9319 11.5583C9.15246 11.3332 7.84783 10.9556 8.01456 9.63179C8.0405 9.38173 8.12117 9.14044 8.25084 8.92506C8.3805 8.70967 8.55598 8.52547 8.76482 8.38551C9.75184 7.71861 11.3257 8.10958 11.5016 8.15543C11.5864 8.17776 11.6659 8.21656 11.7356 8.26962C11.8053 8.32268 11.8639 8.38896 11.9081 8.46466C11.9522 8.54037 11.981 8.62403 11.9928 8.71085C12.0045 8.79768 11.9991 8.88599 11.9768 8.97072C11.9545 9.05545 11.9157 9.13495 11.8626 9.20469C11.8095 9.27443 11.7433 9.33303 11.6676 9.37715C11.5919 9.42128 11.5082 9.45006 11.4214 9.46185C11.3345 9.47364 11.2462 9.46822 11.1615 9.44589C10.7872 9.34835 9.89272 9.23248 9.50925 9.49257C9.45899 9.52648 9.4176 9.57197 9.38859 9.62521C9.35957 9.67846 9.34378 9.73789 9.34253 9.79851C9.33252 9.87354 9.33085 9.88854 9.43589 9.9569C9.62846 10.0811 9.97275 10.1803 10.307 10.277C11.1232 10.5129 12.5036 10.9156 12.3169 12.3586Z" fill="#889096"/>
</svg>
