<svg xmlns="http://www.w3.org/2000/svg" width="20" height="20">
    <path fill="#A6BEC6" fill-rule="evenodd" d="M19.555 15.834l-6 4a1 1 0 0 1-1.155-.032l-3.658-2.744-5.578.93A.998.998 0 0 1 2 17.002V12.62l-1.447-.724A1 1 0 0 1 0 11.001v-9c0-.477.337-.887.804-.981l5-1a.999.999 0 0 1 .751.149l2.517 1.678 1.481-.741a1 1 0 1 1 .894 1.79l-2 1c-.322.16-.703.135-1.002-.063L5.79 2.063 2 2.821v7.562l1.447.724a1 1 0 0 1 .553.895v3.819l4.836-.806a.998.998 0 0 1 .764.187l3.434 2.575L18 14.466v-2.464a1 1 0 1 1 2 0v3c0 .334-.167.646-.445.832zM16.5 10.001S13 6.906 13 3.572C13 1.731 14.567.001 16.5.001S20 1.731 20 3.572c0 3.334-3.5 6.429-3.5 6.429z"/>
</svg>
