<svg xmlns="http://www.w3.org/2000/svg" width="40" height="40" viewBox="0 0 40 40">
    <g fill="none" fill-rule="evenodd">
        <g>
            <g transform="translate(-12 -4)">
                <circle cx="32.053" cy="24.2" r="19.5" fill="#9CB5BE" fill-opacity=".19"/>
                <path fill="#FFF" stroke="#9CB5BE" stroke-linecap="round" stroke-width="1.5" d="M46.956 35.05H16.772c-.88 0-1.6-.72-1.6-1.6V14.383c0-.88.72-1.6 1.6-1.6h30.184c.88 0 1.6.72 1.6 1.6V33.45c0 .88-.72 1.6-1.6 1.6z"/>
                <path stroke="#9CB5BE" stroke-linecap="round" stroke-width="1.6" d="M15.84 16.917h32"/>
                <path fill="#9CB5BE" d="M43.44 14.925a.675.675 0 1 1-1.351 0 .675.675 0 0 1 1.35 0M45.19 14.925a.675.675 0 1 1-1.351 0 .675.675 0 0 1 1.35 0M46.973 14.925a.675.675 0 1 1-1.35 0 .675.675 0 0 1 1.35 0"/>
                <path stroke="#9CB5BE" stroke-linecap="round" stroke-width="1.6" d="M27.694 26.104l2.579 2.579M30.323 28.783l8.01-7.759"/>
            </g>
        </g>
    </g>
</svg>
