<?xml version="1.0" encoding="UTF-8"?>
<svg width="40px" height="29px" viewBox="0 0 40 29" version="1.1" xmlns="http://www.w3.org/2000/svg" xmlns:xlink="http://www.w3.org/1999/xlink">
    <!-- Generator: Sketch 48.2 (47327) - http://www.bohemiancoding.com/sketch -->
    <title>1-active</title>
    <desc>Created with Sketch.</desc>
    <defs></defs>
    <g id="lpm_first_use_request_old" stroke="none" stroke-width="1" fill="none" fill-rule="evenodd" transform="translate(-636.000000, -2008.000000)">
        <g id="Welcome" transform="translate(76.000000, 1705.000000)">
            <g id="Group-4" transform="translate(477.000000, 264.000000)">
                <g id="Group-30" transform="translate(0.000000, 10.000000)">
                    <g id="Group-12" transform="translate(0.396605, 0.500000)">
                        <g id="Group-37" transform="translate(29.603395, 19.500000)">
                            <g id="1-active" transform="translate(11.000000, 3.000000)">
                                <g id="port" transform="translate(42.000000, 5.000000)">
                                    <g id="Group" transform="translate(2.000000, 6.000000)">
                                        <g id="a-link" transform="translate(1.000000, 1.000000)" fill="#FFFFFF" fill-rule="nonzero">
                                            <rect id="a" x="0.116" y="0" width="32.99" height="7.189" rx="1.44"></rect>
                                        </g>
                                        <rect id="Rectangle-path" stroke="#9CB5BE" stroke-width="1.5" x="0.366" y="0.25" width="34.49" height="8.689" rx="1.44"></rect>
                                    </g>
                                    <g id="Group" transform="translate(2.000000, 18.000000)">
                                        <g id="b-link" transform="translate(1.000000, 1.000000)" fill="#FFFFFF" fill-rule="nonzero">
                                            <rect id="b" x="0.116" y="0.742" width="32.99" height="7.189" rx="1.44"></rect>
                                        </g>
                                        <rect id="Rectangle-path" stroke="#9CB5BE" stroke-width="1.5" x="0.366" y="0.992" width="34.49" height="8.689" rx="1.44"></rect>
                                    </g>
                                    <path d="M15.095,22.608 C15.079503,22.6342736 15.0591396,22.6573522 15.035,22.676 C15.0114812,22.6920291 14.9834407,22.7000907 14.955,22.699 C14.9218952,22.6980445 14.8895657,22.6887583 14.861,22.672 C14.8230785,22.6511893 14.7850782,22.6305225 14.747,22.61 C14.7007737,22.5857105 14.6526078,22.5653069 14.603,22.549 C14.5429406,22.529591 14.4801117,22.5201329 14.417,22.521 C14.297,22.521 14.208,22.547 14.15,22.598 C14.0907938,22.650085 14.0584249,22.7262254 14.062,22.805 C14.0603137,22.8562685 14.0794291,22.9060405 14.115,22.943 C14.15505,22.9830018 14.202183,23.0152151 14.254,23.038 C14.311,23.064 14.377,23.088 14.45,23.111 C14.524,23.133 14.6,23.157 14.676,23.184 C14.753,23.211 14.829,23.244 14.903,23.28 C14.976,23.316 15.042,23.363 15.099,23.42 C15.1585575,23.4793438 15.2060945,23.5496307 15.239,23.627 C15.274,23.708 15.291,23.807 15.291,23.921 C15.2920588,24.0434527 15.2696552,24.164975 15.225,24.279 C15.1362784,24.5060561 14.9529768,24.6831503 14.723,24.764 C14.5885183,24.813048 14.4461199,24.8367811 14.303,24.834 C14.218,24.834 14.131,24.826 14.042,24.808 C13.8680999,24.7735446 13.7013667,24.7096246 13.549,24.619 C13.4796231,24.5779041 13.4154879,24.5285435 13.358,24.472 L13.548,24.172 C13.5637195,24.1503797 13.583824,24.1323197 13.607,24.119 C13.631172,24.1045331 13.6588296,24.0969273 13.687,24.097 C13.725,24.097 13.763,24.109 13.802,24.133 L13.932,24.213 C13.981,24.242 14.036,24.268 14.099,24.292 C14.1708619,24.3174996 14.246767,24.3296986 14.323,24.328 C14.4191241,24.3336609 14.5143215,24.306512 14.593,24.251 C14.658,24.201 14.69,24.119 14.69,24.008 C14.6924537,23.9508993 14.6735597,23.8949305 14.637,23.851 C14.597931,23.8081404 14.5502139,23.7740567 14.497,23.751 C14.4339966,23.7224399 14.3687834,23.69903 14.302,23.681 C14.2265588,23.660176 14.1515436,23.6378382 14.077,23.614 C13.999864,23.5892416 13.9246599,23.5588257 13.852,23.523 C13.6981863,23.4500583 13.5782626,23.3208271 13.517,23.162 C13.4423733,22.959007 13.4459378,22.7355099 13.527,22.535 C13.5691687,22.4356284 13.6314798,22.3460776 13.71,22.272 C13.7959754,22.1915383 13.8968735,22.1286893 14.007,22.087 C14.124,22.041 14.258,22.018 14.41,22.018 C14.494,22.018 14.577,22.025 14.657,22.038 C14.8077723,22.0626934 14.9530011,22.1138112 15.086,22.189 C15.1460339,22.2233243 15.2020476,22.2642444 15.253,22.311 L15.095,22.608 Z M17.482,23.751 L17.227,22.996 C17.1804551,22.8709904 17.1387574,22.7442292 17.102,22.616 C17.0707017,22.7465587 17.0306102,22.8748513 16.982,23 L16.728,23.75 L17.482,23.75 L17.482,23.751 Z M18.498,24.805 L18.003,24.805 C17.9547954,24.8071194 17.9072692,24.7930376 17.868,24.765 C17.8343467,24.7394845 17.807829,24.7057347 17.791,24.667 L17.628,24.187 L16.58,24.187 L16.417,24.667 C16.401208,24.7046766 16.3756658,24.7374672 16.343,24.762 C16.3046471,24.7913927 16.2572944,24.8065879 16.209,24.805 L15.709,24.805 L16.777,22.048 L17.431,22.048 L18.498,24.805 Z M21.378,22.048 L20.273,24.805 L19.694,24.805 L18.589,22.048 L19.104,22.048 C19.16,22.048 19.204,22.061 19.238,22.088 C19.272,22.113 19.298,22.146 19.316,22.186 L19.849,23.662 C19.9037283,23.8095655 19.9511196,23.9597492 19.991,24.112 C20.009,24.029 20.029,23.949 20.051,23.873 C20.073,23.797 20.097,23.726 20.121,23.662 L20.651,22.186 C20.6670699,22.1482052 20.6929667,22.1154026 20.726,22.091 C20.7643529,22.0616073 20.8117056,22.0464121 20.86,22.048 L21.378,22.048 Z M22.659,22.54 L22.659,23.183 L23.526,23.183 L23.526,23.656 L22.659,23.656 L22.659,24.313 L23.79,24.313 L23.79,24.805 L22.016,24.805 L22.016,22.048 L23.79,22.048 L23.79,22.54 L22.66,22.54 L22.659,22.54 Z" id="Shape" stroke="#9CB5BE" stroke-width="0.2" fill="#9CB5BE" fill-rule="nonzero"></path>
                                    <g id="Group" transform="translate(10.000000, 0.000000)">
                                        <g transform="translate(7.530000, 6.809000)">
                                            <g id="c-link" transform="translate(0.000000, 1.000000)" fill="#9CB5BE" fill-rule="nonzero">
                                                <path d="M20.464,16.29 L15.145,10.97 L18.939,8.778 C19.2353245,8.6067634 19.4078848,8.28138178 19.3834103,7.94001516 C19.3589357,7.59864855 19.141722,7.30121207 18.824,7.174 L1.902,0.424 C1.57054658,0.292468135 1.19262649,0.370492515 0.940365146,0.622536581 C0.6881038,0.874580648 0.609753796,1.25243337 0.741,1.584 L7.49,18.509 C7.61639561,18.8274686 7.91386367,19.0455372 8.25560524,19.0702517 C8.59734681,19.0949661 8.92309649,18.9219682 9.094,18.625 L11.286,14.831 L16.604,20.15 C16.7715549,20.3181155 16.9991449,20.412609 17.2365,20.412609 C17.4738551,20.412609 17.7014451,20.3181155 17.869,20.15 L20.464,17.554 C20.6318089,17.3864852 20.7261078,17.1591098 20.7261078,16.922 C20.7261078,16.6848902 20.6318089,16.4575148 20.464,16.29 Z" id="c"></path>
                                            </g>
                                            <path d="M20.817,16.936 C21.0782383,17.1972382 21.2250005,17.5515533 21.2250005,17.921 C21.2250005,18.2904467 21.0782383,18.6447618 20.817,18.906 L18.222,21.502 C17.9607213,21.7635443 17.6061918,21.9105008 17.2365,21.9105008 C16.8668082,21.9105008 16.5122787,21.7635443 16.251,21.502 L11.393,16.644 L9.527,19.874 C9.26055064,20.3372484 8.75256652,20.6072267 8.21953388,20.5688791 C7.68650124,20.5305314 7.22239419,20.1906184 7.025,19.694 L0.276,2.77 C0.0704133751,2.25270203 0.19228732,1.66268513 0.586009429,1.26918043 C0.979731539,0.875675725 1.56981566,0.754127685 2.087,0.96 L19.01,7.71 C19.5055378,7.90787511 19.8445025,8.37143018 19.8828214,8.90363686 C19.9211403,9.43584354 19.6520795,9.94317644 19.19,10.21 L15.96,12.077 L20.818,16.936 L20.817,16.936 Z" id="Shape" stroke="#FFFFFF"></path>
                                        </g>
                                        <path d="M24.767,26.062 L19.257,20.552 C19.060634,20.3555211 18.784093,20.2614848 18.5086583,20.2975303 C18.2332236,20.3335758 17.9901936,20.4956072 17.851,20.736 L15.998,23.944 L10.702,10.664 L23.981,15.96 L20.773,17.814 C20.5317987,17.9524585 20.3689806,18.1954969 20.332699,18.4712367 C20.2964175,18.7469766 20.3908248,19.0238604 20.588,19.22 L26.098,24.73 L24.768,26.062 L24.767,26.062 Z" id="Shape" stroke="#FFFFFF" stroke-width="0.8" fill="#9CB5BE" fill-rule="nonzero"></path>
                                        <path d="M24.767,26.062 L19.257,20.552 C19.060634,20.3555211 18.784093,20.2614848 18.5086583,20.2975303 C18.2332236,20.3335758 17.9901936,20.4956072 17.851,20.736 L15.998,23.944 L10.702,10.664 L23.981,15.96 L20.773,17.814 C20.5317987,17.9524585 20.3689806,18.1954969 20.332699,18.4712367 C20.2964175,18.7469766 20.3908248,19.0238604 20.588,19.22 L26.098,24.73 L24.768,26.062 L24.767,26.062 Z" id="Shape" fill="#FFFFFF" fill-rule="nonzero"></path>
                                        <g transform="translate(2.530000, 12.334000)">
                                            <g id="d-link" fill="#9CB5BE" fill-rule="nonzero">
                                                <path d="M3.234,0.755 L1.248,2.742 C1.02238677,2.96779185 0.93437007,3.29679535 1.01710494,3.60507806 C1.09983981,3.91336078 1.34075685,4.15408722 1.64910495,4.23657807 C1.95745305,4.31906893 2.28638678,4.23079186 2.512,4.005 L4.498,2.019 C4.72379186,1.79320815 4.81197362,1.46410935 4.72932807,1.15567194 C4.64668251,0.847234529 4.40576547,0.606317488 4.09732806,0.523671934 C3.78889065,0.441026381 3.45979185,0.529208142 3.234,0.755 Z" id="d"></path>
                                            </g>
                                            <path d="M3.057,0.579 C3.34584923,0.289972128 3.76695146,0.176998591 4.16168155,0.282635429 C4.55641164,0.388272267 4.8648007,0.696470731 4.97068156,1.09113544 C5.07656241,1.48580015 4.96384924,1.90697214 4.675,2.196 L2.689,4.182 C2.47484535,4.39732263 2.18368742,4.51838829 1.88,4.51838829 C1.57631258,4.51838829 1.28515465,4.39732263 1.071,4.182 C0.856476448,3.96762344 0.735946007,3.67677819 0.735946007,3.3735 C0.735946007,3.07022181 0.856476448,2.77937656 1.071,2.565 L3.057,0.579 Z" id="Shape" stroke-opacity="0.8" stroke="#FFFFFF" stroke-width="0.5"></path>
                                        </g>
                                        <g transform="translate(3.530000, 3.334000)">
                                            <g id="e-link" fill="#9CB5BE" fill-rule="nonzero">
                                                <path d="M1.924,0.817 C1.57307654,0.48066892 1.01773178,0.486344336 0.673755251,0.829777033 C0.329778717,1.17320973 0.3232246,1.72854481 0.659,2.08 L2.646,4.066 C2.81308103,4.23424193 3.04038943,4.32885747 3.2775,4.32885747 C3.51461057,4.32885747 3.74191897,4.23424193 3.909,4.066 C4.07680893,3.8984852 4.17110777,3.67110977 4.17110777,3.434 C4.17110777,3.19689023 4.07680893,2.9695148 3.909,2.802 L1.924,0.817 Z" id="e"></path>
                                            </g>
                                            <path d="M2.1,0.64 L4.086,2.626 C4.53279836,3.07224608 4.53324608,3.79620164 4.087,4.243 C3.64075392,4.68979836 2.91679836,4.69024608 2.47,4.244 L0.483,2.258 C0.183719632,1.97126938 0.0629321068,1.54509088 0.167261353,1.1439692 C0.271590599,0.742847529 0.584717117,0.429527364 0.985774214,0.32495015 C1.38683131,0.220372935 1.81308441,0.340896957 2.1,0.64 Z" id="Shape" stroke-opacity="0.8" stroke="#FFFFFF" stroke-width="0.5"></path>
                                        </g>
                                        <g transform="translate(0.530000, 8.334000)">
                                            <g id="f-link" transform="translate(0.000000, 1.000000)" fill="#9CB5BE" fill-rule="nonzero">
                                                <path d="M5.596,0.996 C5.596,0.503 5.196,0.103 4.703,0.103 L1.893,0.103 C1.56665467,0.0920807987 1.26031564,0.25995246 1.09390919,0.540896218 C0.927502735,0.821839976 0.927502735,1.17116002 1.09390919,1.45210378 C1.26031564,1.73304754 1.56665467,1.9009192 1.893,1.89 L4.703,1.89 C5.196,1.89 5.596,1.49 5.596,0.996 Z" id="f"></path>
                                            </g>
                                            <path d="M5.846,1.996 C5.846,2.628 5.334,3.14 4.703,3.14 L1.893,3.14 C1.27462576,3.12171139 0.782819373,2.61514462 0.782819373,1.9965 C0.782819373,1.37785538 1.27462576,0.871288613 1.893,0.853 L4.703,0.853 C5.334,0.853 5.846,1.365 5.846,1.996 Z" id="Shape" stroke-opacity="0.8" stroke="#FFFFFF" stroke-width="0.5"></path>
                                        </g>
                                        <g transform="translate(8.530000, 0.334000)">
                                            <g id="g-link" transform="translate(0.000000, 1.000000)" fill="#9CB5BE" fill-rule="nonzero">
                                                <path d="M1.838,4.754 C2.332,4.754 2.732,4.354 2.732,3.86 L2.732,1.051 C2.732,0.557257434 2.33174257,0.157 1.838,0.157 C1.34425743,0.157 0.944,0.557257434 0.944,1.051 L0.944,3.861 C0.944,4.354 1.344,4.754 1.838,4.754 Z" id="g"></path>
                                            </g>
                                            <path d="M1.838,6.004 C1.20657656,6.00400024 0.694551944,5.49242319 0.694,4.861 L0.694,2.05 C0.694,1.41818625 1.20618625,0.906 1.838,0.906 C2.46981375,0.906 2.982,1.41818625 2.982,2.05 L2.982,4.86 C2.982,5.491 2.47,6.003 1.838,6.003 L1.838,6.004 Z" id="Shape" stroke-opacity="0.8" stroke="#FFFFFF" stroke-width="0.5"></path>
                                        </g>
                                        <g transform="translate(12.530000, 2.334000)">
                                            <g id="h-link" transform="translate(0.000000, 1.000000)" fill="#9CB5BE" fill-rule="nonzero">
                                                <path d="M1.228,3.918 C1.46546267,3.91840493 1.69328543,3.82410862 1.861,3.656 L3.846,1.67 C4.08543488,1.44726734 4.18415341,1.11157715 4.10340874,0.794687265 C4.02266407,0.477797382 3.77534207,0.230279553 3.45851619,0.149284107 C3.14169031,0.068288661 2.80592209,0.16674148 2.583,0.406 L0.596,2.392 C0.340447228,2.64767682 0.26402039,3.03209372 0.402341331,3.36607751 C0.540662272,3.7000613 0.866506099,3.91787593 1.228,3.918 Z" id="h"></path>
                                            </g>
                                            <path d="M1.228,5.168 C0.76525179,5.16805651 0.348043663,4.88932919 0.170949944,4.46180875 C-0.00614377545,4.03428832 0.0917593453,3.54218414 0.419,3.215 L2.406,1.229 C2.85542973,0.798416238 3.56663362,0.806140711 4.00660519,1.24638437 C4.44657676,1.68662803 4.45386153,2.39783656 4.023,2.847 L2.037,4.833 C1.82261715,5.04781335 1.53148747,5.16836767 1.228,5.168 Z" id="Shape" stroke-opacity="0.8" stroke="#FFFFFF" stroke-width="0.5"></path>
                                        </g>
                                    </g>
                                </g>
                            </g>
                        </g>
                    </g>
                </g>
            </g>
        </g>
    </g>
</svg>
