<svg xmlns="http://www.w3.org/2000/svg" width="30" height="30">
    <path fill="#526373" fill-rule="evenodd" d="M15.009 30c-2.247 0-4.409-.485-6.427-1.442a1 1 0 1 1 .857-1.807A12.898 12.898 0 0 0 15.009 28c7.168 0 13.001-5.832 13.001-13S22.177 2 15.009 2C7.84 2 2.008 7.832 2.008 15c0 1.949.42 3.823 1.249 5.569a1 1 0 1 1-1.806.858A14.863 14.863 0 0 1 .008 15c0-8.271 6.729-15 15.001-15C23.281 0 30.01 6.729 30.01 15c0 8.272-6.729 15-15.001 15zM7.008 15a1 1 0 1 1-2 0c0-5.514 4.486-10 10.001-10C20.523 5 25.01 9.486 25.01 15s-4.487 10-10.001 10a1 1 0 1 1 0-2c4.412 0 8-3.589 8-8s-3.588-8-8-8-8.001 3.589-8.001 8zm8.001-3a3.013 3.013 0 0 0-2.6 1.501 1 1 0 0 1-1.731-1.002A5.017 5.017 0 0 1 15.009 10c2.757 0 5 2.243 5 5a5.02 5.02 0 0 1-2.499 4.331 1.001 1.001 0 0 1-1.002-1.731 3.013 3.013 0 0 0 1.501-2.6c0-1.654-1.346-3-3-3zm-4.703 6.288l-4.982 1.661a1 1 0 1 1-.632-1.897l9-3.001c.099-.032.2-.046.3-.048.022 0 .042.006.063.006.096.005.188.023.278.054.03.011.059.021.088.034.107.049.208.11.295.196a.971.971 0 0 1 .195.295c.014.029.024.058.035.089.031.089.048.18.053.274.001.023.007.044.006.066a.97.97 0 0 1-.048.3l-3 8.999a.999.999 0 0 1-1.265.633 1 1 0 0 1-.633-1.265l1.661-4.982L1.715 29.707a.996.996 0 0 1-1.415 0 1 1 0 0 1 0-1.414l10.006-10.005z"/>
</svg>
