<svg xmlns="http://www.w3.org/2000/svg" width="20" height="20">
    <path fill="#00AAC3" fill-rule="evenodd" d="M19.5 12h-2.274a7.349 7.349 0 0 1-.705 1.693l1.611 1.611a.5.5 0 0 1 0 .707l-2.121 2.121a.5.5 0 0 1-.707 0l-1.611-1.611a7.349 7.349 0 0 1-1.693.705V19.5a.5.5 0 0 1-.5.5h-3a.5.5 0 0 1-.5-.5v-2.274a7.416 7.416 0 0 1-1.694-.704l-1.609 1.61a.515.515 0 0 1-.707 0l-2.122-2.121a.5.5 0 0 1 0-.707l1.61-1.611A7.39 7.39 0 0 1 2.774 12H.5a.5.5 0 0 1-.5-.5v-3A.5.5 0 0 1 .5 8h2.274c.163-.59.399-1.158.704-1.694l-1.61-1.609a.5.5 0 0 1 0-.707L3.99 1.868a.497.497 0 0 1 .707 0l1.609 1.61A7.434 7.434 0 0 1 8 2.774V.5a.5.5 0 0 1 .5-.5h3a.5.5 0 0 1 .5.5v2.274c.59.163 1.157.399 1.693.704l1.611-1.61a.5.5 0 0 1 .707 0l2.121 2.122a.499.499 0 0 1 0 .707l-1.61 1.609c.305.536.541 1.104.704 1.694H19.5a.5.5 0 0 1 .5.5v3a.5.5 0 0 1-.5.5zM19 9h-2.165a.499.499 0 0 1-.488-.393 6.468 6.468 0 0 0-.876-2.107.5.5 0 0 1 .067-.624l1.533-1.533-1.414-1.414-1.533 1.533a.5.5 0 0 1-.623.067 6.442 6.442 0 0 0-2.107-.876.499.499 0 0 1-.394-.488V1H9v2.165a.499.499 0 0 1-.393.488 6.425 6.425 0 0 0-2.107.876.498.498 0 0 1-.624-.067L4.343 2.929 2.929 4.343l1.533 1.533a.5.5 0 0 1 .067.624 6.468 6.468 0 0 0-.876 2.107.5.5 0 0 1-.488.393H1v2h2.165c.235 0 .438.163.488.393.164.748.459 1.457.876 2.108a.5.5 0 0 1-.067.623l-1.533 1.533 1.414 1.414 1.533-1.533a.5.5 0 0 1 .624-.067c.651.417 1.36.712 2.107.876a.499.499 0 0 1 .393.488V19h2v-2.165c0-.235.163-.439.393-.488a6.464 6.464 0 0 0 2.108-.876.5.5 0 0 1 .623.067l1.533 1.533 1.414-1.414-1.533-1.533a.5.5 0 0 1-.067-.623c.417-.651.712-1.36.876-2.108a.498.498 0 0 1 .488-.393H19V9zm-9 4.5c-1.93 0-3.5-1.57-3.5-3.5S8.07 6.5 10 6.5s3.5 1.57 3.5 3.5-1.57 3.5-3.5 3.5zm0-6A2.503 2.503 0 0 0 7.5 10c0 1.379 1.122 2.5 2.5 2.5 1.379 0 2.5-1.121 2.5-2.5 0-1.378-1.121-2.5-2.5-2.5z"/>
</svg>
