<svg width="20" height="20" viewBox="0 0 20 20" fill="none" xmlns="http://www.w3.org/2000/svg">
<g clip-path="url(#clip0_6_39)">
<path d="M8.25 10.6206C9.63071 10.6206 10.75 9.50132 10.75 8.12061C10.75 6.73989 9.63071 5.62061 8.25 5.62061C6.86929 5.62061 5.75 6.73989 5.75 8.12061C5.75 9.50132 6.86929 10.6206 8.25 10.6206Z" stroke="#889096" stroke-width="1.5" stroke-linecap="round" stroke-linejoin="round"/>
<path d="M14.5 8.12061C14.5 6.463 13.8415 4.87329 12.6694 3.70119C11.4973 2.52909 9.9076 1.87061 8.25 1.87061C6.5924 1.87061 5.00269 2.52909 3.83058 3.70119C2.65848 4.87329 2 6.463 2 8.12061C2 13.7456 8.25 18.1206 8.25 18.1206" stroke="#889096" stroke-width="1.5" stroke-linecap="round" stroke-linejoin="round"/>
<path d="M14.3647 10.063L14.3627 10.0605L14.3564 10.0545C14.219 9.9211 14.0379 9.84561 13.8483 9.84561C13.6587 9.84561 13.4777 9.9211 13.3402 10.0545L13.3401 10.0544L13.3352 10.0596L13.3325 10.0624L10.3381 13.0796C10.2625 13.154 10.2026 13.2437 10.1619 13.3428C10.121 13.4422 10.1 13.5493 10.1 13.6572C10.1 13.6572 10.1 13.6573 10.1 13.6573L10.1 17.3556C10.1 17.5621 10.1768 17.7619 10.3163 17.9107C10.4561 18.0598 10.6478 18.1456 10.85 18.1456H16.85C17.0522 18.1456 17.2439 18.0598 17.3837 17.9107C17.5232 17.7619 17.6 17.5621 17.6 17.3556V13.6573C17.6 13.6573 17.6 13.6572 17.6 13.6572C17.6 13.5493 17.579 13.4422 17.5381 13.3428C17.4974 13.2437 17.4375 13.154 17.3619 13.0796L14.3647 10.063ZM11 13.7192L13.85 10.8479L16.7004 13.7184L16.7 17.2056H11V13.7192Z" fill="#889096" stroke="#889096" stroke-width="0.3"/>
</g>
<defs>
<clipPath id="clip0_6_39">
<rect width="20" height="20" fill="white"/>
</clipPath>
</defs>
</svg>
