<svg xmlns="http://www.w3.org/2000/svg" width="20" height="20">
    <path fill="#00AAC3" fill-rule="evenodd" d="M13.366 19.84a.498.498 0 0 1-.732 0C12.362 19.549 6 12.632 6 7c0-3.86 3.14-7 7-7 3.859 0 7 3.14 7 7 0 5.632-6.362 12.549-6.634 12.84zM13 1C9.691 1 7 3.691 7 7c0 4.497 4.645 10.184 6 11.747 1.356-1.563 6-7.25 6-11.747 0-3.309-2.691-6-6-6zm0 9c-1.654 0-3-1.346-3-3s1.346-3 3-3 3 1.346 3 3-1.346 3-3 3zm0-5c-1.103 0-2 .897-2 2s.897 2 2 2c1.102 0 2-.897 2-2s-.898-2-2-2zm-7.5 8h-5a.5.5 0 0 1 0-1h5a.5.5 0 0 1 0 1zm-1-3h-4a.5.5 0 0 1 0-1h4a.5.5 0 0 1 0 1zm-4 5h6a.5.5 0 0 1 0 1h-6a.5.5 0 0 1 0-1z"/>
</svg>
